SplineFontDB: 3.2
FontName: HersheyTex
FullName: HersheyTex
FamilyName: HersheyTex_Book
Weight: Regular
Copyright: no copyright, use at your own risk
Version: 1.0
ItalicAngle: 0
UnderlinePosition: -100
UnderlineWidth: 51
Ascent: 819
Descent: 205
InvalidEm: 0
sfntRevision: 0x00010000
LayerCount: 2
Layer: 0 0 "Back" 1
Layer: 1 0 "Fore" 0
XUID: [1021 565 -594955042 10599]
StyleMap: 0x0000
FSType: 0
OS2Version: 4
OS2_WeightWidthSlopeOnly: 0
OS2_UseTypoMetrics: 1
CreationTime: 1581386846
ModificationTime: 1648429292
PfmFamily: 17
TTFWeight: 400
TTFWidth: 5
LineGap: 92
VLineGap: 0
Panose: 2 0 5 3 0 0 0 0 0 0
OS2TypoAscent: 819
OS2TypoAOffset: 0
OS2TypoDescent: -205
OS2TypoDOffset: 0
OS2TypoLinegap: 92
OS2WinAscent: 823
OS2WinAOffset: 0
OS2WinDescent: 209
OS2WinDOffset: 0
HheadAscent: 823
HheadAOffset: 0
HheadDescent: -209
HheadDOffset: 0
OS2SubXSize: 665
OS2SubYSize: 716
OS2SubXOff: 0
OS2SubYOff: 143
OS2SupXSize: 665
OS2SupYSize: 716
OS2SupXOff: 0
OS2SupYOff: 491
OS2StrikeYSize: 51
OS2StrikeYPos: 265
OS2CapHeight: 693
OS2XHeight: 472
OS2Vendor: 'PfEd'
MarkAttachClasses: 1
DEI: 91125
LangName: 1033 "" "" "" "FontForge 2.0 : HersheyTex : 27-3-2022" "" "Version 1.0"
Encoding: UnicodeBmp
UnicodeInterp: none
NameList: AGL For New Fonts
DisplaySize: -96
AntiAlias: 1
FitToEm: 0
WinInfo: 64 8 2
BeginPrivate: 3
BlueValues 23 [16 16 472 473 693 693]
OtherBlues 11 [-205 -205]
BlueShift 2 20
EndPrivate
TeXData: 1 0 0 241664 120832 80554 482817 1048576 80554 783286 444596 497025 792723 393216 433062 380633 303038 157286 324010 404750 52429 2506097 1059062 262144
BeginChars: 65539 229

StartChar: .notdef
Encoding: 65536 -1 0
Width: 374
GlyphClass: 1
Flags: W
HStem: -14 62<82 258> 634 62<82 258>
VStem: 20 62<48 634> 258 62<48 634>
LayerCount: 2
Fore
SplineSet
20 0 m 1
 20 682 l 1
 34 696 l 1
 306 696 l 1
 320 682 l 1
 320 0 l 1
 306 -14 l 1
 34 -14 l 1
 20 0 l 1
82 634 m 1
 82 48 l 1
 258 48 l 1
 258 634 l 1
 82 634 l 1
EndSplineSet
Validated: 1
EndChar

StartChar: exclam
Encoding: 33 33 2
Width: 315
GlyphClass: 1
Flags: W
VStem: 143 44<222.001 706.999>
LayerCount: 2
Fore
SplineSet
219 55 m 0
 219 53 219 51 217 49 c 0
 202 34 186 19 171 4 c 0
 169 2 167 1 165 1 c 0
 163 1 163 1 155 9 c 0
 141 22 128 35 114 49 c 0
 112 51 112 53 112 55 c 0
 112 57 112 59 114 61 c 0
 129 76 145 91 160 106 c 0
 161 107 164 108 166 108 c 0
 168 108 170 107 171 106 c 0
 186 91 202 76 217 61 c 0
 219 59 219 57 219 55 c 0
143 685 m 2
 143 687 144 690 145 691 c 2
 159 705 l 2
 160 706 163 707 165 707 c 0
 167 707 170 706 171 705 c 2
 185 691 l 2
 186 690 187 687 187 685 c 2
 187 244 l 2
 187 242 186 239 185 238 c 2
 171 224 l 2
 170 223 167 222 165 222 c 0
 163 222 160 223 159 224 c 2
 145 238 l 2
 144 239 143 242 143 244 c 2
 143 685 l 2
165 49 m 1
 171 55 l 1
 165 61 l 1
 159 55 l 1
 165 49 l 1
EndSplineSet
Validated: 1
EndChar

StartChar: quotedbl
Encoding: 34 34 3
Width: 504
GlyphClass: 1
Flags: W
HStem: 442 265<112 156 364 408>
VStem: 112 44<442.001 706.999> 364 44<442.001 706.999>
LayerCount: 2
Fore
SplineSet
364 685 m 2
 364 687 365 690 366 691 c 2
 380 705 l 2
 381 706 384 707 386 707 c 0
 388 707 391 706 392 705 c 2
 406 691 l 2
 407 690 408 687 408 685 c 2
 408 464 l 2
 408 462 407 459 406 458 c 2
 392 444 l 2
 391 443 388 442 386 442 c 0
 384 442 381 443 380 444 c 2
 366 458 l 2
 365 459 364 462 364 464 c 2
 364 685 l 2
112 685 m 2
 112 687 113 690 114 691 c 2
 128 705 l 2
 129 706 132 707 134 707 c 0
 136 707 139 706 140 705 c 0
 154 691 l 2
 155 690 156 687 156 685 c 0
 156 464 156 464 156 464 c 2
 156 462 155 459 154 458 c 2
 140 444 l 2
 139 443 136 442 134 442 c 0
 132 442 129 443 128 444 c 2
 114 458 l 2
 113 459 112 462 112 464 c 2
 112 685 l 2
EndSplineSet
Validated: 1
EndChar

StartChar: numbersign
Encoding: 35 35 4
Width: 660
GlyphClass: 1
Flags: W
HStem: 190 44<80.0007 196 250 385 439 564.999> 380 44<112.001 237 291 426 480 595.999>
LayerCount: 2
Fore
SplineSet
102 190 m 2
 100 190 97 191 96 192 c 1
 82 206 l 2
 81 207 80 210 80 212 c 0
 80 214 81 217 82 218 c 2
 96 232 l 2
 97 233 100 234 102 234 c 2
 206 234 l 1
 237 380 l 1
 134 380 l 2
 132 380 129 381 128 382 c 2
 114 396 l 2
 113 397 112 400 112 402 c 0
 112 404 113 407 114 408 c 2
 128 422 l 2
 129 423 132 424 134 424 c 2
 247 424 l 1
 332 813 l 2
 333 815 333 815 348 830 c 0
 350 832 352 833 355 833 c 0
 357 833 360 832 361 831 c 0
 375 816 l 2
 376 815 377 814 377 812 c 0
 377 812 376 812 291 424 c 1
 436 424 l 1
 521 813 l 2
 522 815 522 815 537 830 c 0
 539 832 541 833 544 833 c 0
 546 833 549 832 550 831 c 1
 564 816 l 2
 565 815 566 814 566 812 c 0
 566 812 565 812 480 424 c 1
 574 424 l 2
 576 424 579 423 580 422 c 2
 594 408 l 2
 595 407 596 404 596 402 c 0
 596 400 595 397 594 396 c 2
 580 382 l 2
 579 381 576 380 574 380 c 2
 471 380 l 1
 439 234 l 1
 543 234 l 2
 545 234 548 233 549 232 c 2
 563 218 l 2
 564 217 565 214 565 212 c 0
 565 210 564 207 563 206 c 2
 549 192 l 2
 548 191 545 190 543 190 c 2
 430 190 l 1
 344 -199 l 2
 343 -201 344 -201 328 -217 c 0
 326 -219 324 -219 322 -219 c 0
 320 -219 319 -219 317 -217 c 1
 302 -202 l 2
 301 -201 300 -200 300 -198 c 0
 300 -197 301 -197 385 190 c 1
 241 190 l 1
 155 -199 l 2
 154 -201 155 -201 139 -217 c 0
 137 -219 135 -219 133 -219 c 0
 131 -219 130 -219 128 -217 c 1
 113 -202 l 2
 112 -201 111 -200 111 -198 c 0
 111 -197 112 -197 196 190 c 1
 102 190 l 2
395 234 m 1
 426 380 l 1
 282 380 l 1
 250 234 l 1
 395 234 l 1
EndSplineSet
Validated: 1
EndChar

StartChar: dollar
Encoding: 36 36 5
Width: 629
GlyphClass: 1
Flags: W
HStem: 2 44<282 364> 663 44<282 364>
VStem: 80 44<529 587> 238 44<-123.999 2 54 361 421 655 707 832.999> 364 44<-123.999 2 54 319 379 655 707 832.999> 521 44<121 211>
LayerCount: 2
Fore
SplineSet
565 591 m 0
 565 589 564 586 562 584 c 0
 548 570 l 2
 547 569 545 568 543 568 c 0
 541 568 539 569 537 571 c 0
 523 585 523 585 476 633 c 1
 408 655 l 1
 408 364 l 1
 420 360 l 1
 421 360 l 1
 484 328 l 2
 484 328 487 327 517 296 c 0
 523 290 527 285 533 279 c 1
 564 216 l 2
 565 215 565 213 565 212 c 2
 565 118 l 2
 565 116 564 114 563 112 c 0
 485 34 485 34 484 34 c 0
 483 33 l 2
 408 8 l 1
 408 -102 l 2
 408 -104 407 -107 406 -108 c 2
 392 -122 l 2
 391 -123 388 -124 386 -124 c 0
 384 -124 381 -123 380 -122 c 2
 366 -108 l 2
 365 -107 364 -104 364 -102 c 2
 364 2 l 1
 282 2 l 1
 282 -102 l 2
 282 -104 281 -107 280 -108 c 2
 266 -122 l 2
 265 -123 262 -124 260 -124 c 0
 258 -124 255 -123 254 -122 c 2
 240 -108 l 2
 239 -107 238 -104 238 -102 c 2
 238 8 l 1
 162 33 l 2
 171 24 l 0
 171 24 155 39 82 112 c 0
 81 114 80 116 80 118 c 0
 80 120 81 123 82 124 c 2
 96 138 l 2
 97 139 99 140 101 140 c 0
 103 140 106 140 108 138 c 0
 129 117 149 97 169 76 c 1
 238 54 l 1
 238 376 l 1
 225 380 l 1
 224 380 l 1
 161 412 l 2
 161 412 158 413 128 444 c 0
 122 450 118 455 112 461 c 1
 81 524 l 2
 80 525 80 527 80 528 c 2
 80 590 l 2
 80 593 81 595 82 596 c 0
 160 674 159 674 160 674 c 0
 162 675 l 2
 238 700 l 1
 238 811 l 2
 238 813 239 816 240 817 c 2
 254 831 l 2
 255 832 258 833 260 833 c 0
 262 833 265 832 266 831 c 2
 280 817 l 2
 281 816 282 813 282 811 c 2
 282 707 l 1
 364 707 l 1
 364 811 l 2
 364 813 365 816 366 817 c 2
 380 831 l 2
 381 832 384 833 386 833 c 0
 388 833 391 832 392 831 c 2
 406 817 l 2
 407 816 408 813 408 811 c 2
 408 700 l 1
 483 675 l 2
 474 684 l 0
 474 684 490 669 563 596 c 0
 564 595 565 593 565 591 c 0
364 663 m 1
 282 663 l 1
 282 406 l 1
 364 379 l 1
 364 663 l 1
282 46 m 1
 364 46 l 1
 364 334 l 1
 282 361 l 1
 282 46 l 1
408 319 m 1
 408 54 l 1
 476 76 l 1
 521 121 l 1
 521 211 l 1
 491 270 l 1
 475 286 l 1
 414 317 l 1
 408 319 l 1
238 421 m 1
 238 655 l 1
 169 633 l 1
 124 587 l 1
 124 529 l 1
 154 470 l 1
 170 454 l 1
 231 423 l 1
 238 421 l 1
EndSplineSet
Validated: 1
EndChar

StartChar: percent
Encoding: 37 37 6
Width: 755
GlyphClass: 1
Flags: W
HStem: 2 44<515 573> 222 44<545 603> 442 44<168 226> 600 44<418 510> 663 44<198 256>
VStem: 80 44<531 589> 301 44<561 619> 427 44<90 148> 647 44<120 178>
LayerCount: 2
Fore
SplineSet
543 266 m 2
 606 266 l 2
 608 266 610 265 612 264 c 2
 689 187 l 2
 690 185 691 183 691 181 c 2
 691 118 l 2
 691 117 691 115 690 114 c 2
 659 51 l 1
 644 36 645 36 643 35 c 0
 640 33 640 33 578 2 c 1
 512 2 l 2
 509 2 507 3 506 4 c 0
 429 81 429 81 429 81 c 2
 428 82 427 84 427 86 c 2
 427 153 l 1
 460 218 460 218 462 220 c 2
 476 234 l 1
 539 265 l 2
 540 266 542 266 543 266 c 2
256 663 m 1
 198 663 l 1
 148 639 l 1
 124 589 l 1
 124 531 l 1
 168 486 l 1
 226 486 l 1
 276 511 l 1
 301 561 l 1
 301 619 l 1
 256 663 l 1
603 222 m 1
 545 222 l 1
 495 198 l 1
 471 148 l 1
 471 90 l 1
 515 46 l 1
 573 46 l 1
 623 70 l 1
 647 120 l 1
 647 178 l 1
 603 222 l 1
345 622 m 2
 345 559 l 2
 345 558 345 556 344 555 c 2
 312 492 l 1
 306 486 301 481 295 475 c 1
 232 443 l 2
 231 442 229 442 228 442 c 2
 165 442 l 2
 163 442 161 443 159 445 c 0
 82 522 82 522 82 522 c 2
 81 523 80 525 80 528 c 2
 80 590 l 2
 80 591 80 593 81 594 c 2
 112 657 l 1
 118 663 124 669 130 675 c 1
 193 706 l 2
 194 707 196 707 197 707 c 2
 260 707 l 2
 262 707 304 687 326 675 c 1
 418 644 l 1
 510 644 l 1
 603 675 l 1
 665 706 l 2
 666 707 668 707 669 707 c 0
 671 707 673 707 675 705 c 0
 689 690 l 2
 691 688 691 687 691 685 c 0
 691 683 690 681 689 680 c 1
 122 18 l 1
 108 4 l 2
 107 3 104 2 102 2 c 0
 100 2 97 2 95 4 c 2
 81 18 l 2
 80 19 80 21 80 23 c 0
 80 25 80 27 82 29 c 2
 595 627 l 1
 514 600 l 1
 415 600 l 1
 345 623 l 1
 345 622 l 2
EndSplineSet
Validated: 1
EndChar

StartChar: ampersand
Encoding: 38 38 7
Width: 818
GlyphClass: 1
Flags: W
HStem: 2 44<230 352 639 697> 442 44<672 697>
VStem: 80 44<151 211> 238 44<507.018 589> 426 44<529 589> 710 44<59 107.266 380.001 429>
LayerCount: 2
Fore
SplineSet
471 141 m 1
 333 334 l 1
 311 367 l 1
 170 287 l 1
 154 271 l 1
 124 211 l 1
 124 151 l 1
 154 92 l 1
 170 76 l 1
 230 46 l 1
 352 46 l 1
 412 76 l 1
 460 124 l 1
 471 141 l 1
754 402 m 2
 754 400 753 397 752 396 c 2
 738 382 l 2
 737 381 734 380 732 380 c 0
 730 380 727 381 726 382 c 2
 712 396 l 2
 711 397 710 400 710 402 c 2
 710 429 l 1
 697 442 l 1
 672 442 l 1
 658 428 l 1
 627 367 l 1
 564 210 l 1
 564 208 l 1
 519 141 l 1
 532 123 l 1
 579 76 l 1
 639 46 l 1
 697 46 l 1
 710 59 l 1
 710 86 l 2
 710 88 711 91 712 92 c 2
 726 106 l 2
 727 107 730 108 732 108 c 0
 734 108 737 107 738 106 c 1
 752 92 l 2
 753 91 754 88 754 86 c 2
 754 55 l 2
 754 53 753 51 752 49 c 0
 737 34 721 19 706 4 c 0
 705 3 703 2 700 2 c 2
 634 2 l 1
 571 34 l 2
 570 34 570 34 569 35 c 0
 496 108 496 108 496 108 c 1
 423 35 l 2
 422 34 422 34 421 34 c 2
 358 2 l 1
 224 2 l 1
 161 34 l 2
 161 34 158 35 128 66 c 0
 122 72 118 77 112 83 c 1
 81 146 l 2
 80 147 80 149 80 150 c 2
 80 212 l 2
 80 213 80 215 81 216 c 2
 112 279 l 1
 117 284 130 298 159 327 c 0
 160 327 160 327 161 328 c 2
 289 401 l 1
 282 410 276 421 269 430 c 1
 238 525 l 1
 238 594 l 1
 271 659 271 659 273 661 c 2
 287 675 l 1
 350 706 l 2
 352 706 353 707 354 707 c 0
 355 707 356 706 358 706 c 2
 421 675 l 1
 436 660 436 661 437 659 c 0
 439 656 439 656 470 594 c 1
 470 524 l 1
 438 461 l 2
 438 460 438 460 391 413 c 0
 390 413 390 413 389 412 c 2
 346 387 l 1
 371 347 421 276 494 175 c 1
 522 216 l 1
 585 373 l 1
 585 374 l 1
 616 437 l 1
 632 453 647 468 663 484 c 0
 665 485 667 486 669 486 c 2
 700 486 l 2
 703 486 705 485 706 484 c 0
 721 469 737 454 752 439 c 0
 753 437 754 435 754 433 c 2
 754 402 l 2
306 639 m 1
 282 589 l 1
 282 529 l 1
 312 437 l 1
 323 421 l 1
 380 453 l 1
 396 469 l 1
 426 529 l 1
 426 589 l 1
 402 639 l 1
 354 662 l 1
 306 639 l 1
EndSplineSet
Validated: 1
EndChar

StartChar: quotesingle
Encoding: 39 39 8
Width: 315
GlyphClass: 1
Flags: W
HStem: 474 233
VStem: 175 44<592 605 638 650>
LayerCount: 2
Fore
SplineSet
159 654 m 1
 175 638 l 1
 175 650 l 1
 166 660 l 1
 159 654 l 1
166 600 m 0
 164 600 162 600 160 602 c 0
 145 617 129 633 114 648 c 0
 112 650 112 651 112 653 c 0
 112 655 112 657 114 659 c 0
 129 674 145 690 160 705 c 0
 162 707 164 707 166 707 c 0
 168 707 169 707 171 705 c 0
 186 690 202 674 217 659 c 0
 218 658 219 656 219 654 c 2
 219 590 l 2
 219 589 219 588 218 587 c 2
 187 524 l 2
 187 524 164 500 140 476 c 0
 138 475 136 474 134 474 c 0
 132 474 129 475 128 476 c 2
 114 490 l 2
 113 491 112 493 112 495 c 0
 112 497 112 500 114 502 c 0
 124 512 134 523 145 533 c 1
 175 592 l 1
 175 605 l 1
 171 601 169 600 166 600 c 0
EndSplineSet
Validated: 1
EndChar

StartChar: parenleft
Encoding: 40 40 9
Width: 441
GlyphClass: 1
Flags: W
VStem: 112 44<208.929 405.071>
LayerCount: 2
Fore
SplineSet
354 833 m 0
 356 833 359 832 361 830 c 0
 375 816 l 2
 376 815 377 813 377 811 c 0
 377 809 376 807 374 805 c 0
 312 743 312 743 312 743 c 1
 249 649 l 1
 187 525 l 1
 156 369 l 1
 156 245 l 1
 187 89 l 1
 249 -35 l 1
 312 -129 l 1
 374 -191 l 2
 376 -193 377 -195 377 -197 c 0
 377 -199 376 -201 374 -203 c 0
 360 -217 l 2
 359 -218 357 -220 355 -220 c 0
 353 -220 351 -219 349 -217 c 0
 272 -140 272 -140 272 -140 c 2
 271 -139 271 -139 271 -138 c 2
 208 -44 l 1
 207 -43 l 1
 144 83 l 1
 144 85 l 1
 112 242 l 1
 112 372 l 1
 144 529 l 1
 144 531 l 1
 207 657 l 1
 229 688 250 720 271 752 c 0
 271 753 271 753 272 754 c 0
 349 831 349 831 349 831 c 2
 350 832 352 833 354 833 c 0
EndSplineSet
Validated: 1
EndChar

StartChar: parenright
Encoding: 41 41 10
Width: 441
GlyphClass: 1
Flags: W
VStem: 301 44<242.046 371.954>
LayerCount: 2
Fore
SplineSet
80 811 m 0
 80 813 81 816 82 817 c 2
 96 831 l 2
 97 832 99 833 101 833 c 0
 103 833 106 833 108 831 c 2
 185 754 l 2
 185 753 185 753 186 752 c 2
 249 658 l 1
 249 657 l 1
 313 529 l 1
 344 372 l 2
 345 371 345 371 345 370 c 2
 345 244 l 2
 345 243 345 243 344 242 c 2
 313 85 l 1
 249 -43 l 1
 249 -44 l 1
 186 -138 l 2
 185 -139 185 -139 185 -140 c 2
 108 -217 l 2
 106 -218 104 -219 102 -219 c 0
 100 -219 97 -218 96 -217 c 0
 82 -203 l 2
 81 -202 80 -200 80 -198 c 0
 80 -196 80 -193 82 -191 c 0
 96 -177 96 -176 145 -128 c 1
 207 -35 l 1
 269 89 l 1
 301 245 l 1
 301 369 l 1
 269 525 l 1
 207 649 l 1
 145 742 l 1
 124 763 103 784 82 805 c 0
 81 807 80 809 80 811 c 0
EndSplineSet
Validated: 1
EndChar

StartChar: asterisk
Encoding: 42 42 11
Width: 503
GlyphClass: 1
Flags: W
VStem: 237 44<285.001 459 533 706.999>
LayerCount: 2
Fore
SplineSet
418 613 m 0
 420 613 421 612 422 611 c 2
 436 597 l 2
 438 595 439 592 439 591 c 0
 439 589 439 588 437 586 c 0
 422 571 422 571 421 570 c 2
 298 496 l 1
 421 422 422 422 423 421 c 1
 437 406 l 2
 439 404 439 403 439 401 c 0
 439 400 438 397 436 395 c 2
 422 381 l 2
 421 380 420 379 418 379 c 0
 417 379 415 380 413 381 c 2
 281 459 l 1
 281 307 l 2
 281 305 280 302 279 301 c 2
 265 287 l 2
 264 286 261 285 259 285 c 0
 257 285 254 286 253 287 c 2
 239 301 l 2
 238 302 237 305 237 307 c 2
 237 459 l 1
 106 381 l 2
 104 380 102 379 101 379 c 0
 99 379 98 380 97 381 c 0
 83 395 l 2
 81 397 80 400 80 401 c 0
 80 403 80 404 82 406 c 0
 97 421 97 421 98 422 c 2
 221 496 l 1
 98 570 97 570 96 571 c 2
 82 586 l 2
 80 588 80 589 80 591 c 0
 80 592 81 595 83 597 c 2
 97 611 l 2
 98 612 99 613 101 613 c 0
 102 613 104 612 106 611 c 2
 237 533 l 1
 237 685 l 2
 237 687 238 690 239 691 c 2
 253 705 l 2
 254 706 257 707 259 707 c 0
 261 707 264 706 265 705 c 2
 279 691 l 2
 280 690 281 687 281 685 c 2
 281 533 l 1
 413 611 l 2
 415 612 417 613 418 613 c 0
EndSplineSet
Validated: 1
EndChar

StartChar: plus
Encoding: 43 43 12
Width: 819
GlyphClass: 1
Flags: W
HStem: 285 44<112.001 396 440 722.999>
VStem: 396 44<2.00073 285 329 611.999>
LayerCount: 2
Fore
SplineSet
134 285 m 2
 132 285 129 286 128 287 c 0
 114 301 l 2
 113 302 112 305 112 307 c 0
 112 309 113 312 114 313 c 2
 128 327 l 2
 129 328 132 329 134 329 c 2
 396 329 l 1
 396 590 l 2
 396 592 397 595 398 596 c 2
 412 610 l 2
 413 611 416 612 418 612 c 0
 420 612 423 611 424 610 c 0
 438 596 l 2
 439 595 440 592 440 590 c 2
 440 329 l 1
 701 329 l 2
 703 329 706 328 707 327 c 2
 721 313 l 2
 722 312 723 309 723 307 c 0
 723 305 722 302 721 301 c 2
 707 287 l 2
 706 286 703 285 701 285 c 2
 440 285 l 1
 440 24 l 2
 440 22 439 19 438 18 c 2
 424 4 l 2
 423 3 420 2 418 2 c 0
 416 2 413 3 412 4 c 0
 398 18 l 2
 397 19 396 22 396 24 c 2
 396 285 l 1
 134 285 l 2
EndSplineSet
Validated: 1
EndChar

StartChar: comma
Encoding: 44 44 13
Width: 315
GlyphClass: 1
Flags: W
HStem: -125 234
VStem: 175 44<-6 8>
LayerCount: 2
Fore
SplineSet
160 55 m 1
 166 49 l 1
 172 55 l 1
 166 61 l 1
 160 55 l 1
166 1 m 0
 164 1 162 2 160 4 c 0
 128 35 128 35 114 49 c 0
 112 51 112 53 112 55 c 0
 112 57 112 59 114 61 c 0
 129 76 145 91 160 106 c 0
 162 108 164 109 166 109 c 0
 168 109 168 109 176 101 c 0
 190 88 203 75 217 61 c 0
 218 59 219 57 219 55 c 2
 219 -8 l 2
 219 -9 219 -11 218 -12 c 2
 187 -75 l 1
 171 -91 156 -106 140 -122 c 0
 138 -124 135 -125 133 -125 c 0
 131 -125 129 -124 128 -123 c 1
 114 -109 l 2
 113 -108 112 -105 112 -103 c 0
 112 -101 112 -99 114 -97 c 2
 145 -66 l 1
 175 -6 l 1
 175 8 l 1
 168 1 168 1 166 1 c 0
EndSplineSet
Validated: 1
EndChar

StartChar: hyphen
Encoding: 45 45 14
Width: 819
GlyphClass: 1
Flags: W
HStem: 285 44<112.001 722.999>
LayerCount: 2
Fore
SplineSet
134 285 m 2
 132 285 129 286 128 287 c 0
 114 301 l 2
 113 302 112 305 112 307 c 0
 112 309 113 312 114 313 c 2
 128 327 l 2
 129 328 132 329 134 329 c 2
 701 329 l 2
 703 329 706 328 707 327 c 2
 721 313 l 2
 722 312 723 309 723 307 c 0
 723 305 722 302 721 301 c 2
 707 287 l 2
 706 286 703 285 701 285 c 2
 134 285 l 2
EndSplineSet
Validated: 1
EndChar

StartChar: period
Encoding: 46 46 15
Width: 315
GlyphClass: 1
Flags: W
HStem: 1 107<164 167>
VStem: 112 107<53 57>
LayerCount: 2
Fore
SplineSet
219 55 m 0
 219 53 219 51 217 49 c 0
 202 34 186 19 171 4 c 0
 169 2 167 1 165 1 c 0
 163 1 163 1 155 9 c 0
 141 22 128 35 114 49 c 0
 112 51 112 53 112 55 c 0
 112 57 112 59 114 61 c 0
 129 76 145 91 160 106 c 0
 161 107 164 108 166 108 c 0
 168 108 170 107 171 106 c 0
 186 91 202 76 217 61 c 0
 219 59 219 57 219 55 c 0
165 49 m 1
 171 55 l 1
 165 61 l 1
 159 55 l 1
 165 49 l 1
EndSplineSet
Validated: 1
EndChar

StartChar: slash
Encoding: 47 47 16
Width: 693
GlyphClass: 1
Flags: W
LayerCount: 2
Fore
SplineSet
638 833 m 2
 638 833 642 833 644 831 c 1
 658 817 l 2
 659 816 660 814 660 812 c 0
 660 811 660 809 659 807 c 1
 92 -201 l 1
 87 -207 81 -212 76 -217 c 0
 74 -219 73 -219 71 -219 c 0
 69 -219 67 -218 66 -217 c 2
 52 -203 l 2
 50 -201 49 -199 49 -196 c 0
 49 -195 50 -194 50 -193 c 2
 617 815 l 2
 618 816 618 816 633 831 c 0
 635 833 636 833 638 833 c 2
EndSplineSet
Validated: 1
EndChar

StartChar: zero
Encoding: 48 48 17
Width: 629
GlyphClass: 1
Flags: W
HStem: 2 44<292 353> 663 44<292 353>
VStem: 80 44<272.16 436.84> 521 44<272.16 436.84>
LayerCount: 2
Fore
SplineSet
357 2 m 1
 288 2 l 1
 194 33 l 2
 192 34 177 48 176 51 c 2
 113 145 l 2
 112 146 112 147 112 148 c 2
 80 305 l 1
 80 403 l 1
 112 561 l 2
 112 562 112 562 113 563 c 2
 176 658 l 1
 192 674 192 674 194 675 c 2
 288 707 l 1
 357 707 l 1
 451 675 l 2
 453 674 453 674 469 658 c 1
 532 563 l 2
 533 562 533 562 533 561 c 2
 565 403 l 1
 565 305 l 1
 533 148 l 2
 533 147 533 146 532 145 c 0
 467 49 468 49 468 49 c 0
 453 34 453 34 451 33 c 1
 357 2 l 1
437 635 m 1
 353 663 l 1
 292 663 l 1
 208 635 l 1
 155 556 l 1
 124 401 l 1
 124 308 l 1
 155 153 l 1
 208 74 l 1
 292 46 l 1
 353 46 l 1
 437 74 l 1
 490 153 l 1
 521 308 l 1
 521 401 l 1
 490 556 l 1
 437 635 l 1
EndSplineSet
Validated: 33
EndChar

StartChar: one
Encoding: 49 49 18
Width: 629
GlyphClass: 1
Flags: W
VStem: 332 44<2.00073 637>
LayerCount: 2
Fore
SplineSet
196 537 m 0
 194 537 192 538 191 539 c 2
 177 553 l 2
 175 555 175 557 175 559 c 0
 175 561 175 562 177 564 c 0
 192 579 192 579 193 580 c 1
 255 611 l 1
 349 705 l 2
 350 706 353 707 355 707 c 0
 357 707 359 706 360 705 c 2
 374 691 l 2
 375 690 376 688 376 685 c 2
 376 24 l 2
 376 22 375 19 374 18 c 1
 360 4 l 2
 359 3 356 2 354 2 c 0
 352 2 349 3 348 4 c 0
 334 18 l 2
 333 19 332 22 332 24 c 2
 332 637 l 1
 266 570 265 570 264 570 c 0
 263 569 l 2
 200 538 l 2
 198 537 197 537 196 537 c 0
EndSplineSet
Validated: 1
EndChar

StartChar: two
Encoding: 50 50 19
Width: 629
GlyphClass: 1
Flags: W
HStem: 2 44<149 564.999> 663 44<261 384>
VStem: 111 44<506.001 557> 489 44<498 557>
LayerCount: 2
Fore
SplineSet
155 528 m 2
 155 526 154 523 153 522 c 0
 139 508 l 2
 138 507 135 506 133 506 c 0
 131 506 128 507 127 508 c 2
 113 522 l 2
 112 523 111 526 111 528 c 2
 111 559 l 2
 111 560 111 562 112 563 c 2
 144 626 l 2
 144 626 145 629 176 659 c 0
 182 665 187 669 193 675 c 1
 256 706 l 2
 257 707 258 707 259 707 c 2
 385 707 l 2
 386 707 388 707 389 706 c 2
 452 675 l 1
 491 637 501 627 501 626 c 2
 533 563 l 1
 533 492 l 1
 501 429 l 1
 438 334 l 1
 342 238 245 142 149 46 c 1
 543 46 l 2
 545 46 548 45 549 44 c 2
 563 30 l 2
 564 29 565 26 565 24 c 0
 565 22 564 19 563 18 c 2
 549 4 l 2
 548 3 545 2 543 2 c 0
 102 2 102 2 102 2 c 2
 99 2 97 3 96 4 c 0
 82 18 l 2
 81 19 80 21 80 23 c 0
 80 25 81 28 82 29 c 2
 397 344 l 1
 459 437 l 1
 489 498 l 1
 489 557 l 1
 459 617 l 1
 443 633 l 1
 384 663 l 1
 261 663 l 1
 202 633 l 1
 186 617 l 1
 155 557 l 1
 155 528 l 2
EndSplineSet
Validated: 1
EndChar

StartChar: three
Encoding: 51 51 20
Width: 629
GlyphClass: 1
Flags: W
HStem: 2 44<257 353> 411 44<364 415> 663 44<143.001 471>
VStem: 521 44<210 274>
LayerCount: 2
Fore
SplineSet
165 663 m 2
 163 663 160 664 159 665 c 2
 145 679 l 2
 144 680 143 683 143 685 c 0
 143 687 144 690 145 691 c 2
 159 705 l 2
 160 706 163 707 165 707 c 2
 512 707 l 2
 514 707 514 708 531 691 c 0
 533 689 533 687 533 684 c 0
 533 683 533 681 532 680 c 2
 364 455 l 1
 417 455 l 2
 418 455 420 455 421 454 c 2
 484 423 l 1
 500 407 515 392 531 376 c 0
 532 375 533 374 533 373 c 2
 565 278 l 1
 565 210 l 1
 533 115 l 2
 533 114 532 113 531 112 c 0
 453 34 453 34 452 34 c 0
 451 33 l 2
 357 2 l 1
 257 2 l 1
 163 33 l 1
 159 35 l 1
 135 59 112 83 112 83 c 2
 81 146 l 2
 80 148 80 150 80 151 c 0
 80 153 81 155 82 156 c 0
 96 170 l 2
 98 172 102 172 102 172 c 2
 104 172 106 171 107 170 c 0
 122 155 122 155 123 153 c 2
 154 91 l 1
 169 76 l 1
 261 46 l 1
 353 46 l 1
 444 76 l 1
 491 122 l 1
 521 214 l 1
 521 274 l 1
 491 365 l 1
 475 381 l 1
 415 411 l 1
 323 411 l 2
 320 411 320 411 303 428 c 0
 302 429 300 432 300 434 c 0
 300 435 301 437 302 438 c 2
 471 663 l 1
 165 663 l 2
EndSplineSet
Validated: 1
EndChar

StartChar: four
Encoding: 52 52 21
Width: 629
GlyphClass: 1
Flags: W
HStem: 222 44<141 395 439 595.999>
VStem: 395 44<2.00073 222 266 620>
LayerCount: 2
Fore
SplineSet
80 244 m 0
 80 246 81 249 81 249 c 2
 396 690 l 1
 410 704 l 2
 412 706 414 707 417 707 c 0
 419 707 422 706 423 705 c 2
 437 691 l 2
 438 690 439 687 439 685 c 2
 439 266 l 1
 574 266 l 2
 576 266 579 265 580 264 c 2
 594 250 l 2
 595 249 596 246 596 244 c 0
 596 242 595 239 594 238 c 2
 580 224 l 2
 579 223 576 222 574 222 c 2
 439 222 l 1
 439 24 l 2
 439 22 438 19 437 18 c 2
 423 4 l 2
 422 3 419 2 417 2 c 0
 415 2 412 3 411 4 c 2
 397 18 l 2
 396 19 395 22 395 24 c 2
 395 222 l 1
 102 222 l 2
 100 222 98 223 97 224 c 2
 83 238 l 2
 81 240 80 242 80 244 c 0
395 266 m 1
 395 620 l 1
 141 266 l 1
 395 266 l 1
EndSplineSet
Validated: 1
EndChar

StartChar: five
Encoding: 53 53 22
Width: 629
GlyphClass: 1
Flags: W
HStem: 2 44<257 353> 442 44<239.018 353> 663 44<185 501.999>
VStem: 521 44<210 278>
LayerCount: 2
Fore
SplineSet
162 454 m 1
 196 467 218 473 257 486 c 1
 357 486 l 1
 451 455 l 2
 442 464 l 0
 442 464 458 449 531 376 c 0
 532 375 533 374 533 373 c 2
 565 278 l 1
 565 210 l 1
 533 115 l 2
 533 114 532 113 531 112 c 0
 453 34 453 34 452 34 c 0
 451 33 l 2
 357 2 l 1
 257 2 l 1
 163 33 l 1
 159 35 l 1
 135 59 112 83 112 83 c 2
 81 146 l 2
 80 148 80 150 80 151 c 0
 80 153 81 155 82 156 c 0
 96 170 l 2
 98 172 102 172 102 172 c 2
 104 172 106 171 107 170 c 0
 122 155 122 155 123 153 c 2
 154 91 l 1
 169 76 l 1
 261 46 l 1
 353 46 l 1
 444 76 l 1
 491 122 l 1
 521 214 l 1
 521 274 l 1
 491 366 l 1
 444 412 l 1
 353 442 l 1
 261 442 l 1
 169 412 l 1
 139 382 l 2
 137 380 135 379 133 379 c 0
 131 379 130 380 129 381 c 0
 114 395 l 2
 112 397 112 399 112 401 c 2
 143 686 l 2
 143 688 144 690 145 691 c 2
 159 705 l 2
 160 706 162 707 165 707 c 2
 480 707 l 2
 482 707 485 706 486 705 c 2
 500 691 l 2
 501 690 502 687 502 685 c 0
 502 683 501 680 500 679 c 2
 486 665 l 2
 485 664 482 663 480 663 c 2
 185 663 l 1
 162 454 l 1
EndSplineSet
Validated: 1
EndChar

StartChar: six
Encoding: 54 54 23
Width: 630
GlyphClass: 1
Flags: W
HStem: 2 44<324 374.982> 411 44<324 357> 663 44<324 385>
VStem: 112 44<354 436.84> 522 44<214 243>
LayerCount: 2
Fore
SplineSet
156 244 m 1
 187 122 l 1
 233 76 l 1
 324 46 l 1
 353 46 l 1
 445 76 l 1
 491 122 l 1
 522 214 l 1
 522 243 l 1
 491 334 l 1
 445 381 l 1
 353 411 l 1
 324 411 l 1
 233 381 l 1
 186 334 l 1
 156 244 l 1
566 244 m 2
 566 212 l 2
 566 211 566 211 565 210 c 2
 534 115 l 2
 543 124 l 0
 543 124 528 108 455 35 c 0
 454 34 453 34 452 33 c 2
 357 2 l 1
 320 2 l 1
 226 33 l 2
 235 24 l 0
 235 24 219 39 146 112 c 0
 145 113 144 115 144 116 c 2
 112 242 l 1
 112 403 l 1
 144 561 l 2
 144 562 144 562 145 563 c 2
 208 658 l 1
 224 674 224 674 226 675 c 2
 320 707 l 1
 389 707 l 1
 483 675 l 2
 488 672 502 658 502 657 c 1
 533 594 l 2
 534 592 534 590 534 589 c 0
 534 587 533 585 532 584 c 0
 518 570 l 2
 516 568 512 568 512 568 c 2
 510 568 508 569 507 570 c 0
 492 585 492 585 491 587 c 2
 467 636 l 1
 385 663 l 1
 324 663 l 1
 240 635 l 1
 187 556 l 1
 156 401 l 1
 156 354 l 1
 223 421 223 422 224 422 c 0
 226 423 l 2
 320 455 l 1
 357 455 l 1
 452 423 l 2
 443 432 l 0
 443 432 459 417 532 344 c 0
 533 343 533 342 534 341 c 2
 565 247 l 2
 566 246 566 245 566 244 c 2
EndSplineSet
Validated: 1
EndChar

StartChar: seven
Encoding: 55 55 24
Width: 629
GlyphClass: 1
Flags: W
HStem: 663 44<80.0007 509>
LayerCount: 2
Fore
SplineSet
543 707 m 2
 545 707 548 706 549 705 c 0
 563 691 l 2
 564 690 565 687 565 685 c 0
 565 684 565 683 564 682 c 2
 249 20 l 2
 248 18 248 18 233 3 c 0
 232 2 231 1 229 1 c 0
 227 1 225 1 223 3 c 0
 209 18 l 2
 207 20 206 21 206 24 c 0
 206 25 207 26 207 27 c 2
 509 663 l 1
 102 663 l 2
 100 663 97 664 96 665 c 2
 82 679 l 2
 81 680 80 683 80 685 c 0
 80 687 81 690 82 691 c 2
 96 705 l 2
 97 706 100 707 102 707 c 2
 543 707 l 2
EndSplineSet
Validated: 1
EndChar

StartChar: eight
Encoding: 56 56 25
Width: 629
GlyphClass: 1
Flags: W
HStem: 2 44<239.018 405.982> 663 44<261 384>
VStem: 80 44<151 242> 112 44<529 589> 490 44<529 589> 521 44<151 242>
LayerCount: 2
Fore
SplineSet
352 380 m 1xe4
 322 387 l 1
 293 380 l 1
 201 349 l 1
 154 302 l 1
 124 242 l 1
 124 151 l 1
 154 91 l 1
 169 76 l 1
 261 46 l 1
 384 46 l 1
 476 76 l 1
 491 91 l 1
 521 151 l 1
 521 242 l 1
 491 302 l 1
 444 349 l 1
 352 380 l 1xe4
322 432 m 1
 345 437 345 437 414 455 c 1
 465 480 l 1
 490 529 l 1
 490 589 l 1
 466 636 l 1
 384 663 l 1
 261 663 l 1
 179 636 l 1
 156 589 l 1
 156 529 l 1xd8
 180 480 l 1
 231 455 l 1
 302 437 302 437 322 432 c 1
257 707 m 1
 388 707 l 1
 483 675 l 2
 485 674 500 660 501 657 c 2
 533 594 l 2
 534 593 534 591 534 590 c 2
 534 528 l 2xd8
 534 527 534 525 533 524 c 0
 500 459 500 459 498 457 c 2
 484 443 l 1
 421 412 l 2
 420 411 420 411 419 411 c 2
 405 407 l 1
 451 392 l 2
 442 402 l 0
 442 402 458 386 533 311 c 1
 564 248 l 2
 565 247 565 245 565 244 c 2
 565 150 l 2
 565 149 565 147 564 146 c 2
 533 83 l 1
 483 33 l 1
 388 2 l 1
 257 2 l 1
 162 33 l 2
 161 34 160 34 159 35 c 0
 135 59 112 83 112 83 c 2xd4
 81 146 l 2
 80 147 80 149 80 150 c 2
 80 244 l 2xe0
 80 245 80 247 81 248 c 2
 112 311 l 1
 192 391 191 391 192 391 c 0
 194 392 l 2
 240 407 l 1
 226 411 l 2
 225 411 225 411 224 412 c 2
 161 443 l 1
 146 458 146 457 145 459 c 0
 143 462 143 462 112 524 c 1
 112 594 l 1
 145 659 144 658 145 659 c 0
 160 674 160 674 162 675 c 0
 257 707 l 1
EndSplineSet
Validated: 1
EndChar

StartChar: nine
Encoding: 57 57 26
Width: 630
GlyphClass: 1
Flags: W
HStem: 2 44<261 321> 254 44<292 342.982> 663 44<292 325>
VStem: 80 44<462 495> 490 44<305.046 354>
LayerCount: 2
Fore
SplineSet
489 465 m 1
 459 586 l 1
 413 633 l 1
 321 663 l 1
 292 663 l 1
 201 633 l 1
 154 586 l 1
 124 495 l 1
 124 466 l 1
 154 374 l 1
 201 328 l 1
 292 298 l 1
 321 298 l 1
 413 328 l 1
 459 374 l 1
 489 465 l 1
534 464 m 2
 534 307 l 2
 534 306 534 306 533 305 c 2
 502 148 l 2
 502 147 502 146 501 145 c 0
 437 50 437 49 437 49 c 0
 414 26 420 33 420 33 c 2
 325 2 l 1
 257 2 l 1
 162 33 l 2
 160 34 145 48 144 51 c 0
 112 114 l 2
 112 115 111 116 111 117 c 0
 111 119 113 122 114 123 c 2
 128 137 l 2
 130 139 133 140 134 140 c 0
 136 140 137 140 139 138 c 0
 154 123 154 123 155 122 c 2
 179 73 l 1
 261 46 l 1
 321 46 l 1
 406 74 l 1
 458 153 l 1
 490 308 l 1
 490 354 l 1
 423 287 423 286 422 286 c 0
 420 285 l 2
 325 254 l 1
 288 254 l 1
 194 285 l 2
 203 276 l 0
 203 276 187 291 114 364 c 0
 113 365 113 366 112 367 c 2
 80 462 l 1
 80 499 l 1
 112 593 l 2
 103 584 l 0
 103 584 118 600 191 673 c 0
 192 674 193 674 194 675 c 2
 288 707 l 1
 325 707 l 1
 420 675 l 2
 411 684 l 0
 411 684 427 669 500 596 c 0
 501 595 501 594 502 592 c 0
 533 466 l 2
 534 465 534 465 534 464 c 2
EndSplineSet
Validated: 1
EndChar

StartChar: colon
Encoding: 58 58 27
Width: 315
GlyphClass: 1
Flags: W
VStem: 114 103<47 51 425 429>
LayerCount: 2
Fore
SplineSet
219 55 m 0
 219 53 219 51 217 49 c 0
 202 34 186 19 171 4 c 0
 169 2 167 1 165 1 c 0
 163 1 163 1 155 9 c 0
 141 22 128 35 114 49 c 0
 112 51 112 53 112 55 c 0
 112 57 112 59 114 61 c 0
 129 76 145 91 160 106 c 0
 161 107 164 108 166 108 c 0
 168 108 170 107 171 106 c 0
 186 91 202 76 217 61 c 0
 219 59 219 57 219 55 c 0
219 433 m 0
 219 431 219 429 217 427 c 0
 202 412 186 397 171 382 c 0
 169 380 167 379 165 379 c 0
 163 379 163 379 155 387 c 0
 141 400 128 413 114 427 c 0
 112 429 112 431 112 433 c 0
 112 435 112 437 114 439 c 0
 129 454 145 469 160 484 c 0
 161 485 164 486 166 486 c 0
 168 486 170 485 171 484 c 0
 186 469 202 454 217 439 c 0
 219 437 219 435 219 433 c 0
165 49 m 1
 171 55 l 1
 165 61 l 1
 159 55 l 1
 165 49 l 1
165 427 m 1
 171 433 l 1
 165 439 l 1
 159 433 l 1
 165 427 l 1
EndSplineSet
Validated: 1
EndChar

StartChar: semicolon
Encoding: 59 59 28
Width: 315
GlyphClass: 1
Flags: W
VStem: 175 44<-6 8>
LayerCount: 2
Fore
SplineSet
219 433 m 0
 219 431 219 429 217 427 c 0
 209 419 170 381 170 381 c 0
 169 380 167 379 166 379 c 0
 164 379 162 380 160 382 c 0
 128 413 128 413 114 427 c 0
 112 429 112 431 112 433 c 0
 112 435 112 437 114 439 c 0
 129 454 145 469 160 484 c 0
 161 485 164 486 166 486 c 0
 168 486 170 485 171 484 c 0
 186 469 202 454 217 439 c 0
 219 437 219 435 219 433 c 0
160 55 m 1
 166 49 l 1
 172 55 l 1
 166 61 l 1
 160 55 l 1
166 1 m 0
 164 1 162 2 160 4 c 0
 128 35 128 35 114 49 c 0
 112 51 112 53 112 55 c 0
 112 57 112 59 114 61 c 0
 129 76 145 91 160 106 c 0
 162 108 164 109 166 109 c 0
 168 109 168 109 176 101 c 0
 190 88 203 75 217 61 c 0
 218 59 219 57 219 55 c 2
 219 -8 l 2
 219 -9 219 -11 218 -12 c 2
 187 -75 l 1
 171 -91 156 -106 140 -122 c 0
 138 -124 135 -125 133 -125 c 0
 131 -125 129 -124 128 -123 c 1
 114 -109 l 2
 113 -108 112 -105 112 -103 c 0
 112 -101 112 -99 114 -97 c 2
 145 -66 l 1
 175 -6 l 1
 175 8 l 1
 168 1 168 1 166 1 c 0
160 433 m 1
 166 427 l 1
 172 433 l 1
 166 439 l 1
 160 433 l 1
EndSplineSet
Validated: 1
EndChar

StartChar: less
Encoding: 60 60 29
Width: 756
GlyphClass: 1
Flags: W
LayerCount: 2
Fore
SplineSet
640 613 m 0
 641 613 642 613 643 612 c 1
 657 598 l 2
 659 596 660 591 660 590 c 0
 660 588 660 586 659 585 c 0
 644 570 644 571 642 570 c 2
 175 307 l 1
 644 43 644 43 644 43 c 1
 659 29 l 2
 660 28 660 26 660 24 c 0
 660 23 659 18 657 16 c 0
 643 2 l 2
 642 1 641 1 640 1 c 0
 639 1 636 1 634 3 c 0
 128 287 128 287 128 287 c 1
 113 301 l 2
 112 302 112 304 112 306 c 0
 112 308 112 311 114 313 c 0
 129 328 129 327 130 328 c 1
 634 611 l 2
 636 613 639 613 640 613 c 0
EndSplineSet
Validated: 1
EndChar

StartChar: equal
Encoding: 61 61 30
Width: 819
GlyphClass: 1
Flags: W
HStem: 190 44<112.001 722.999> 380 44<112.001 722.999>
LayerCount: 2
Fore
SplineSet
134 190 m 2
 132 190 129 191 128 192 c 1
 114 206 l 2
 113 207 112 210 112 212 c 0
 112 214 113 217 114 218 c 2
 128 232 l 2
 129 233 132 234 134 234 c 2
 701 234 l 2
 703 234 706 233 707 232 c 2
 721 218 l 2
 722 217 723 214 723 212 c 0
 723 210 722 207 721 206 c 2
 707 192 l 2
 706 191 703 190 701 190 c 2
 134 190 l 2
134 380 m 2
 132 380 129 381 128 382 c 2
 114 396 l 2
 113 397 112 400 112 402 c 0
 112 404 113 407 114 408 c 2
 128 422 l 2
 129 423 132 424 134 424 c 2
 701 424 l 2
 703 424 706 423 707 422 c 2
 721 408 l 2
 722 407 723 404 723 402 c 0
 723 400 722 397 721 396 c 2
 707 382 l 2
 706 381 703 380 701 380 c 2
 134 380 l 2
EndSplineSet
Validated: 1
EndChar

StartChar: greater
Encoding: 62 62 31
Width: 756
GlyphClass: 1
Flags: W
LayerCount: 2
Fore
SplineSet
112 590 m 0
 112 591 113 596 115 598 c 2
 129 612 l 2
 130 613 131 613 132 613 c 0
 133 613 136 613 138 611 c 0
 643 328 642 328 643 327 c 2
 658 313 l 2
 660 311 660 308 660 306 c 0
 660 304 660 302 659 301 c 0
 644 286 644 287 642 286 c 2
 138 3 l 2
 136 1 133 1 132 1 c 0
 131 1 130 1 129 2 c 0
 115 16 l 2
 113 18 112 23 112 24 c 0
 112 26 112 28 113 29 c 0
 128 44 128 43 130 44 c 2
 597 307 l 1
 128 571 128 571 128 571 c 2
 113 585 l 2
 112 586 112 588 112 590 c 0
EndSplineSet
Validated: 1
EndChar

StartChar: question
Encoding: 63 63 32
Width: 566
GlyphClass: 1
Flags: W
HStem: 663 44<230 352>
VStem: 80 44<506.001 557> 269 44<222.001 327> 458 44<498 557>
CounterMasks: 1 70
LayerCount: 2
Fore
SplineSet
345 55 m 0
 345 53 344 51 342 49 c 0
 327 34 312 19 297 4 c 0
 295 2 293 1 291 1 c 2
 285 4 l 1
 270 19 255 34 240 49 c 0
 238 51 237 53 237 55 c 0
 237 57 238 59 240 61 c 0
 255 76 270 91 285 106 c 0
 287 107 289 108 291 108 c 0
 293 108 295 107 297 106 c 0
 312 91 327 76 342 61 c 0
 344 59 345 57 345 55 c 0
124 528 m 2
 124 526 123 523 122 522 c 2
 108 508 l 2
 107 507 104 506 102 506 c 0
 100 506 97 507 96 508 c 2
 82 522 l 2
 81 523 80 526 80 528 c 2
 80 559 l 2
 80 560 80 562 81 563 c 2
 112 626 l 1
 128 642 145 659 161 675 c 1
 224 706 l 2
 225 707 227 707 228 707 c 2
 354 707 l 2
 355 707 357 707 358 706 c 2
 421 675 l 1
 437 659 454 642 470 626 c 1
 501 563 l 2
 502 562 502 560 502 559 c 2
 502 496 l 2
 502 495 502 493 501 492 c 2
 470 429 l 1
 454 413 437 396 421 380 c 1
 313 327 l 1
 313 244 l 2
 313 242 312 239 311 238 c 2
 297 224 l 2
 296 223 293 222 291 222 c 0
 289 222 286 223 285 224 c 2
 271 238 l 2
 270 239 269 242 269 244 c 2
 269 338 l 2
 269 340 269 343 271 345 c 0
 286 360 286 359 287 360 c 2
 412 422 l 1
 428 438 l 1
 458 498 l 1
 458 557 l 1
 428 617 l 1
 412 633 l 1
 352 663 l 1
 230 663 l 1
 170 633 l 1
 154 617 l 1
 124 557 l 1
 124 528 l 2
291 49 m 1
 297 55 l 1
 291 61 l 1
 285 55 l 1
 291 49 l 1
EndSplineSet
Validated: 1
EndChar

StartChar: at
Encoding: 64 64 33
Width: 850
GlyphClass: 1
Flags: W
HStem: 2 44<364.779 483> 159 44<357 447 566.71 666> 506 44<389 478> 663 44<387 479>
VStem: 80 44<308 400> 238 45<277 369> 742 44<340 400>
LayerCount: 2
Fore
SplineSet
669 141 m 0
 671 141 673 139 674 138 c 1
 689 124 l 2
 691 122 691 121 691 118 c 0
 691 116 690 114 689 112 c 0
 665 88 641 65 641 65 c 2
 578 34 l 1
 577 33 l 1
 483 2 l 1
 383 2 l 1
 288 33 l 1
 287 34 l 1
 224 65 l 1
 145 144 l 2
 144 145 144 145 144 146 c 2
 112 209 l 1
 112 210 l 1
 80 304 l 1
 80 404 l 1
 112 499 l 1
 112 500 l 1
 144 563 l 2
 144 564 144 564 145 565 c 0
 222 642 222 642 222 642 c 2
 223 643 223 643 224 643 c 2
 287 675 l 1
 288 675 l 1
 383 707 l 1
 483 707 l 1
 577 675 l 1
 578 675 l 1
 641 643 l 2
 642 643 642 643 643 642 c 0
 722 563 722 563 722 563 c 1
 753 500 l 1
 754 499 l 1
 785 404 l 2
 786 403 786 403 786 402 c 2
 786 338 l 2
 786 337 786 337 785 336 c 2
 754 241 l 2
 763 250 l 0
 763 250 748 234 675 161 c 0
 673 160 671 159 669 159 c 2
 606 159 l 2
 605 159 603 159 602 160 c 0
 538 191 538 191 537 192 c 2
 527 203 l 1
 523 199 519 195 515 191 c 1
 452 160 l 2
 451 159 449 159 448 159 c 2
 354 159 l 2
 353 159 351 159 350 160 c 2
 287 191 l 1
 272 206 272 205 271 207 c 0
 269 210 269 210 238 272 c 1
 238 373 l 1
 269 467 l 2
 270 468 270 469 271 470 c 0
 286 485 302 501 317 516 c 0
 318 517 318 517 319 517 c 2
 382 549 l 2
 383 550 385 550 386 550 c 2
 480 550 l 2
 481 550 483 550 484 549 c 2
 547 517 l 1
 551 513 l 1
 554 531 553 531 555 533 c 1
 570 547 l 2
 571 548 572 549 574 549 c 0
 574 549 579 549 581 547 c 2
 595 533 l 2
 596 532 596 531 596 529 c 0
 596 526 581 404 565 275 c 1
 565 224 l 1
 580 217 594 210 609 203 c 1
 666 203 l 1
 711 248 l 1
 742 340 l 1
 742 400 l 1
 711 493 l 1
 680 554 l 1
 633 601 l 1
 571 632 l 1
 479 663 l 1
 387 663 l 1
 294 632 l 1
 233 601 l 1
 186 554 l 1
 155 493 l 1
 124 400 l 1
 124 308 l 1
 155 216 l 1
 186 154 l 1
 233 107 l 1
 294 76 l 1
 387 46 l 1
 479 46 l 1
 571 76 l 1
 632 107 l 1
 642 118 653 128 663 138 c 0
 665 140 667 141 669 141 c 0
521 278 m 1
 543 450 l 1
 528 481 l 1
 478 506 l 1
 389 506 l 1
 330 477 l 1
 313 460 l 1
 283 369 l 1
 283 277 l 1
 308 227 l 1
 357 203 l 1
 447 203 l 1
 496 227 l 1
 521 278 l 1
EndSplineSet
Validated: 1
EndChar

StartChar: A
Encoding: 65 65 34
Width: 566
GlyphClass: 1
Flags: W
HStem: 222 44<155 427>
VStem: 270 43<688 706.989>
LayerCount: 2
Fore
SplineSet
565 26 m 2
 565 26 565 24 565 23 c 0
 565 22 565 20 564 19 c 0
 550 4 l 2
 549 3 546 2 541 2 c 0
 540 2 539 2 538 3 c 0
 524 17 l 2
 523 18 523 19 522 21 c 2
 445 222 l 1
 137 222 l 1
 61 21 l 2
 60 19 60 19 45 4 c 0
 44 3 42 2 40 2 c 0
 37 2 35 2 33 4 c 0
 19 18 l 2
 18 19 17 20 17 22 c 0
 17 23 17 25 18 26 c 0
 270 688 l 2
 270 689 271 690 272 691 c 2
 286 705 l 2
 287 706 289 707 291 707 c 0
 294 707 296 706 297 705 c 0
 312 690 313 690 313 688 c 0
 565 26 l 2
155 266 m 1
 427 266 l 1
 291 626 l 1
 155 266 l 1
EndSplineSet
Validated: 1
EndChar

StartChar: B
Encoding: 66 66 35
Width: 661
GlyphClass: 1
Flags: W
HStem: 2 44<156 437.982> 348 44<156 416> 663 44<156 416>
VStem: 112 44<46 348 392 663> 553 44<151 242 498 557>
LayerCount: 2
Fore
SplineSet
156 392 m 1
 416 392 l 1
 507 422 l 1
 523 438 l 1
 553 498 l 1
 553 557 l 1
 523 617 l 1
 507 633 l 1
 416 663 l 1
 156 663 l 1
 156 392 l 1
597 244 m 2
 597 150 l 2
 597 149 597 147 596 146 c 2
 565 83 l 1
 515 33 l 1
 420 2 l 1
 134 2 l 2
 132 2 129 3 128 4 c 1
 114 18 l 2
 113 19 112 22 112 24 c 0
 112 685 112 685 112 685 c 2
 112 687 113 690 114 691 c 2
 128 705 l 2
 129 706 132 707 134 707 c 2
 420 707 l 1
 515 675 l 2
 516 674 517 674 518 673 c 0
 534 657 549 642 565 626 c 1
 596 563 l 2
 597 562 597 560 597 559 c 2
 597 496 l 2
 597 495 597 493 596 492 c 2
 565 429 l 1
 517 381 517 381 516 381 c 0
 515 380 l 2
 485 370 l 1
 515 360 l 2
 516 359 517 359 518 358 c 0
 534 342 549 327 565 311 c 1
 596 248 l 2
 597 247 597 245 597 244 c 2
156 348 m 1
 156 46 l 1
 416 46 l 1
 508 76 l 1
 523 91 l 1
 553 151 l 1
 553 242 l 1
 523 302 l 1
 507 318 l 1
 416 348 l 1
 156 348 l 1
EndSplineSet
Validated: 1
EndChar

StartChar: C
Encoding: 67 67 36
Width: 661
GlyphClass: 1
Flags: W
HStem: 2 44<293 415> 663 44<293 415>
VStem: 80 44<277 432>
LayerCount: 2
Fore
SplineSet
597 528 m 0
 597 525 596 524 594 522 c 0
 580 507 l 2
 578 505 576 505 574 505 c 0
 572 505 570 506 569 507 c 0
 554 522 554 522 553 524 c 2
 522 586 l 1
 475 633 l 1
 415 663 l 1
 293 663 l 1
 233 633 l 1
 186 586 l 1
 155 524 l 1
 124 432 l 1
 124 277 l 1
 155 184 l 1
 186 123 l 1
 233 76 l 1
 293 46 l 1
 415 46 l 1
 475 76 l 1
 522 123 l 1
 553 186 553 186 554 187 c 2
 569 201 l 2
 571 203 572 203 574 203 c 0
 575 203 578 202 580 200 c 1
 594 186 l 2
 595 185 597 182 597 180 c 0
 597 179 596 178 596 177 c 1
 564 114 l 2
 564 113 564 113 563 112 c 0
 486 35 486 35 486 35 c 2
 485 34 485 34 484 34 c 2
 421 2 l 1
 287 2 l 1
 224 34 l 2
 223 34 223 34 222 35 c 0
 145 112 145 112 145 112 c 2
 144 113 144 113 144 114 c 2
 112 177 l 1
 112 178 l 1
 80 273 l 1
 80 436 l 1
 112 530 l 1
 112 531 l 1
 144 594 l 2
 144 595 144 595 145 596 c 0
 224 675 224 675 224 675 c 1
 287 706 l 2
 288 707 290 707 291 707 c 2
 417 707 l 2
 418 707 420 707 421 706 c 2
 484 675 l 1
 563 596 l 2
 564 595 564 595 564 594 c 2
 596 531 l 2
 596 530 597 529 597 528 c 0
EndSplineSet
Validated: 1
EndChar

StartChar: D
Encoding: 68 68 37
Width: 661
GlyphClass: 1
Flags: W
HStem: 2 44<156 374.982> 663 44<156 357>
VStem: 112 44<46 663> 553 44<277 432>
LayerCount: 2
Fore
SplineSet
134 707 m 2
 357 707 l 1
 452 675 l 2
 443 684 l 0
 443 684 459 669 532 596 c 0
 533 595 533 595 533 594 c 2
 565 531 l 1
 565 530 l 1
 597 436 l 1
 597 273 l 1
 565 178 l 1
 565 177 l 1
 533 114 l 2
 533 113 533 113 532 112 c 0
 454 34 455 34 454 34 c 0
 452 33 l 2
 357 2 l 1
 134 2 l 2
 132 2 129 3 128 4 c 1
 114 18 l 2
 113 19 112 22 112 24 c 0
 112 685 112 685 112 685 c 2
 112 687 113 690 114 691 c 2
 128 705 l 2
 129 706 132 707 134 707 c 2
156 663 m 1
 156 46 l 1
 353 46 l 1
 445 76 l 1
 491 123 l 1
 522 184 l 1
 553 277 l 1
 553 432 l 1
 522 524 l 1
 491 586 l 1
 445 633 l 1
 353 663 l 1
 156 663 l 1
EndSplineSet
Validated: 1
EndChar

StartChar: E
Encoding: 69 69 38
Width: 598
GlyphClass: 1
Flags: W
HStem: 2 44<156 565.999> 348 44<156 407.999> 663 44<156 565.999>
VStem: 112 44<46 348 392 663>
LayerCount: 2
Fore
SplineSet
134 707 m 2
 544 707 l 2
 546 707 549 706 550 705 c 1
 564 691 l 2
 565 690 566 687 566 685 c 0
 566 683 565 680 564 679 c 2
 550 665 l 2
 549 664 546 663 544 663 c 2
 156 663 l 1
 156 392 l 1
 386 392 l 2
 388 392 391 391 392 390 c 2
 406 376 l 2
 407 375 408 372 408 370 c 0
 408 368 407 365 406 364 c 2
 392 350 l 2
 391 349 388 348 386 348 c 2
 156 348 l 1
 156 46 l 1
 544 46 l 2
 546 46 549 45 550 44 c 2
 564 30 l 2
 565 29 566 26 566 24 c 0
 566 22 565 19 564 18 c 2
 550 4 l 2
 549 3 546 2 544 2 c 2
 134 2 l 2
 132 2 129 3 128 4 c 1
 114 18 l 2
 113 19 112 22 112 24 c 0
 112 685 112 685 112 685 c 2
 112 687 113 690 114 691 c 2
 128 705 l 2
 129 706 132 707 134 707 c 2
EndSplineSet
Validated: 1
EndChar

StartChar: F
Encoding: 70 70 39
Width: 566
GlyphClass: 1
Flags: W
HStem: 348 44<156 407.999> 663 44<156 565.999>
VStem: 112 44<2.00073 348 392 663>
LayerCount: 2
Fore
SplineSet
134 707 m 2
 544 707 l 2
 546 707 549 706 550 705 c 1
 564 691 l 2
 565 690 566 687 566 685 c 0
 566 683 565 680 564 679 c 2
 550 665 l 2
 549 664 546 663 544 663 c 2
 156 663 l 1
 156 392 l 1
 386 392 l 2
 388 392 391 391 392 390 c 2
 406 376 l 2
 407 375 408 372 408 370 c 0
 408 368 407 365 406 364 c 2
 392 350 l 2
 391 349 388 348 386 348 c 2
 156 348 l 1
 156 24 l 2
 156 22 155 19 154 18 c 2
 140 4 l 2
 139 3 136 2 134 2 c 0
 132 2 129 3 128 4 c 1
 114 18 l 2
 113 19 112 22 112 24 c 0
 112 685 112 685 112 685 c 2
 112 687 113 690 114 691 c 2
 128 705 l 2
 129 706 132 707 134 707 c 2
EndSplineSet
Validated: 1
EndChar

StartChar: G
Encoding: 71 71 40
Width: 661
GlyphClass: 1
Flags: W
HStem: 2 44<293 415> 254 44<395.001 552> 663 44<293 415>
VStem: 80 44<277 432> 552 44<183 254>
LayerCount: 2
Fore
SplineSet
417 254 m 2
 415 254 412 255 411 256 c 2
 397 270 l 2
 396 271 395 274 395 276 c 0
 395 278 396 281 397 282 c 2
 411 296 l 2
 412 297 415 298 417 298 c 2
 574 298 l 2
 576 298 579 297 580 296 c 0
 594 282 l 2
 595 281 596 278 596 276 c 2
 596 177 l 1
 564 114 l 2
 564 113 564 113 563 112 c 0
 486 35 486 35 486 35 c 2
 485 34 485 34 484 34 c 2
 421 2 l 1
 287 2 l 1
 224 34 l 2
 223 34 223 34 222 35 c 0
 145 112 145 112 145 112 c 2
 144 113 144 113 144 114 c 2
 112 177 l 1
 112 178 l 1
 80 273 l 1
 80 436 l 1
 112 530 l 1
 112 531 l 1
 144 594 l 2
 144 595 144 595 145 596 c 0
 224 675 224 675 224 675 c 1
 287 706 l 2
 288 707 290 707 291 707 c 2
 417 707 l 2
 418 707 420 707 421 706 c 2
 484 675 l 1
 563 596 l 2
 564 595 564 595 564 594 c 2
 596 531 l 1
 596 531 597 529 597 527 c 0
 597 525 596 523 595 522 c 2
 581 508 l 2
 580 507 577 506 574 506 c 0
 572 506 571 506 569 508 c 0
 554 523 554 523 553 524 c 2
 522 586 l 1
 475 633 l 1
 415 663 l 1
 293 663 l 1
 233 633 l 1
 186 586 l 1
 155 524 l 1
 124 432 l 1
 124 277 l 1
 155 184 l 1
 186 123 l 1
 233 76 l 1
 293 46 l 1
 415 46 l 1
 475 76 l 1
 522 123 l 1
 552 183 l 1
 552 254 l 1
 417 254 l 2
EndSplineSet
Validated: 1
EndChar

StartChar: H
Encoding: 72 72 41
Width: 693
GlyphClass: 1
Flags: W
HStem: 348 44<156 553>
VStem: 112 44<2.00073 348 392 706.999> 553 44<2.00073 348 392 706.999>
LayerCount: 2
Fore
SplineSet
553 685 m 2
 553 687 554 690 555 691 c 2
 569 705 l 2
 570 706 573 707 575 707 c 0
 577 707 580 706 581 705 c 2
 595 691 l 2
 596 690 597 687 597 685 c 2
 597 24 l 2
 597 22 596 19 595 18 c 2
 581 4 l 2
 580 3 577 2 575 2 c 0
 573 2 570 3 569 4 c 2
 555 18 l 2
 554 19 553 22 553 24 c 2
 553 348 l 1
 156 348 l 1
 156 24 l 2
 156 22 155 19 154 18 c 2
 140 4 l 2
 139 3 136 2 134 2 c 0
 132 2 129 3 128 4 c 1
 114 18 l 2
 113 19 112 22 112 24 c 0
 112 685 112 685 112 685 c 2
 112 687 113 690 114 691 c 2
 128 705 l 2
 129 706 132 707 134 707 c 0
 136 707 139 706 140 705 c 0
 154 691 l 2
 155 690 156 687 156 685 c 2
 156 392 l 1
 553 392 l 1
 553 685 l 2
EndSplineSet
Validated: 1
EndChar

StartChar: I
Encoding: 73 73 42
Width: 252
GlyphClass: 1
Flags: W
VStem: 112 44<2.00073 706.999>
LayerCount: 2
Fore
SplineSet
112 685 m 2
 112 687 113 690 114 691 c 2
 128 705 l 2
 129 706 132 707 134 707 c 0
 136 707 139 706 140 705 c 0
 154 691 l 2
 155 690 156 687 156 685 c 0
 156 24 156 24 156 24 c 2
 156 22 155 19 154 18 c 2
 140 4 l 2
 139 3 136 2 134 2 c 0
 132 2 129 3 128 4 c 1
 114 18 l 2
 113 19 112 22 112 24 c 0
 112 685 112 685 112 685 c 2
EndSplineSet
Validated: 1
EndChar

StartChar: J
Encoding: 74 74 43
Width: 504
GlyphClass: 1
Flags: W
HStem: 2 44<199 258>
VStem: 49 44<182 265.999> 364 44<182 706.999>
LayerCount: 2
Fore
SplineSet
364 685 m 2
 364 687 365 690 366 691 c 2
 380 705 l 2
 381 706 384 707 386 707 c 0
 388 707 391 706 392 705 c 2
 406 691 l 2
 407 690 408 687 408 685 c 2
 408 178 l 1
 376 84 l 2
 379 87 l 0
 379 87 374 81 343 49 c 0
 328 34 328 34 327 34 c 2
 264 2 l 1
 193 2 l 1
 130 34 l 2
 129 34 125 38 83 81 c 0
 82 82 82 83 81 84 c 2
 49 178 l 1
 49 244 l 2
 49 246 50 249 51 250 c 1
 65 264 l 2
 66 265 69 266 71 266 c 0
 73 266 76 265 77 264 c 2
 91 250 l 2
 92 249 93 246 93 244 c 2
 93 182 l 1
 123 92 l 1
 139 76 l 1
 199 46 l 1
 258 46 l 1
 318 76 l 1
 334 92 l 1
 364 182 l 1
 364 685 l 2
EndSplineSet
Validated: 1
EndChar

StartChar: K
Encoding: 75 75 44
Width: 661
GlyphClass: 1
Flags: W
VStem: 112 44<2.00073 241 291 706.999>
LayerCount: 2
Fore
SplineSet
574 707 m 0
 576 707 578 706 580 704 c 2
 594 690 l 2
 596 688 597 686 597 684 c 0
 597 682 596 681 595 679 c 0
 502 586 409 494 316 401 c 1
 595 28 l 2
 596 26 597 25 597 23 c 0
 597 21 595 18 594 17 c 2
 580 3 l 2
 579 2 578 1 576 1 c 0
 574 1 573 1 571 3 c 0
 556 18 556 18 555 19 c 2
 289 373 l 1
 156 241 l 1
 156 24 l 2
 156 22 155 19 154 18 c 2
 140 4 l 2
 139 3 136 2 134 2 c 0
 132 2 129 3 128 4 c 1
 114 18 l 2
 113 19 112 22 112 24 c 0
 112 685 112 685 112 685 c 2
 112 687 113 690 114 691 c 2
 128 705 l 2
 129 706 132 707 134 707 c 0
 136 707 139 706 140 705 c 0
 154 691 l 2
 155 690 156 687 156 685 c 2
 156 291 l 1
 294 429 431 567 569 705 c 0
 571 706 572 707 574 707 c 0
EndSplineSet
Validated: 1
EndChar

StartChar: L
Encoding: 76 76 45
Width: 535
GlyphClass: 1
Flags: W
HStem: 2 44<156 533.999>
VStem: 112 44<46 706.999>
LayerCount: 2
Fore
SplineSet
112 685 m 2
 112 687 113 690 114 691 c 2
 128 705 l 2
 129 706 132 707 134 707 c 0
 136 707 139 706 140 705 c 0
 154 691 l 2
 155 690 156 687 156 685 c 2
 156 46 l 1
 512 46 l 2
 514 46 517 45 518 44 c 2
 532 30 l 2
 533 29 534 26 534 24 c 0
 534 22 533 19 532 18 c 2
 518 4 l 2
 517 3 514 2 512 2 c 2
 134 2 l 2
 132 2 129 3 128 4 c 1
 114 18 l 2
 113 19 112 22 112 24 c 0
 112 685 112 685 112 685 c 2
EndSplineSet
Validated: 1
EndChar

StartChar: M
Encoding: 77 77 46
Width: 756
GlyphClass: 1
Flags: W
VStem: 112 44<2.00073 568> 365 42<1.00073 21> 616 44<2.00073 568>
CounterMasks: 1 e0
LayerCount: 2
Fore
SplineSet
638 707 m 0
 640 707 643 706 644 705 c 2
 658 691 l 2
 659 690 660 687 660 685 c 2
 660 24 l 2
 660 22 659 19 658 18 c 2
 644 4 l 2
 643 3 640 2 638 2 c 0
 636 2 633 3 632 4 c 1
 618 18 l 2
 617 19 616 22 616 24 c 2
 616 568 l 1
 407 21 l 2
 407 19 406 18 405 17 c 2
 391 3 l 2
 390 2 388 1 386 1 c 0
 384 1 382 2 381 3 c 1
 367 17 l 2
 366 18 365 19 365 21 c 2
 156 568 l 1
 156 24 l 2
 156 22 155 19 154 18 c 2
 140 4 l 2
 139 3 136 2 134 2 c 0
 132 2 129 3 128 4 c 1
 114 18 l 2
 113 19 112 22 112 24 c 0
 112 685 112 685 112 685 c 2
 112 687 113 690 114 691 c 2
 128 705 l 2
 129 706 132 707 134 707 c 0
 136 707 138 706 139 705 c 0
 154 690 154 690 155 688 c 2
 386 83 l 1
 617 688 l 2
 618 690 618 690 633 705 c 0
 634 706 636 707 638 707 c 0
EndSplineSet
Validated: 1
EndChar

StartChar: N
Encoding: 78 78 47
Width: 693
GlyphClass: 1
Flags: W
VStem: 112 44<2.00073 617> 553 44<92 706.999>
LayerCount: 2
Fore
SplineSet
112 685 m 2
 112 687 113 690 114 691 c 2
 128 705 l 2
 129 706 132 707 134 707 c 0
 136 707 137 707 139 705 c 0
 154 690 154 690 155 689 c 2
 553 92 l 1
 553 685 l 2
 553 687 554 690 555 691 c 2
 569 705 l 2
 570 706 573 707 575 707 c 0
 577 707 580 706 581 705 c 2
 595 691 l 2
 596 690 597 687 597 685 c 2
 597 24 l 2
 597 22 596 19 595 18 c 2
 581 4 l 2
 580 3 577 2 575 2 c 0
 572 2 570 3 568 5 c 2
 554 19 l 1
 156 617 l 1
 156 24 l 2
 156 22 155 19 154 18 c 2
 140 4 l 2
 139 3 136 2 134 2 c 0
 132 2 129 3 128 4 c 1
 114 18 l 2
 113 19 112 22 112 24 c 0
 112 685 112 685 112 685 c 2
EndSplineSet
Validated: 1
EndChar

StartChar: O
Encoding: 79 79 48
Width: 692
GlyphClass: 1
Flags: W
HStem: 2 44<293 415> 663 44<293 415>
VStem: 80 44<277 432> 584 44<277 432>
LayerCount: 2
Fore
SplineSet
293 663 m 1
 233 633 l 1
 186 586 l 1
 155 524 l 1
 124 432 l 1
 124 277 l 1
 155 184 l 1
 186 123 l 1
 233 76 l 1
 293 46 l 1
 415 46 l 1
 475 76 l 1
 522 123 l 1
 553 184 l 1
 584 277 l 1
 584 432 l 1
 553 524 l 1
 522 586 l 1
 475 633 l 1
 415 663 l 1
 293 663 l 1
291 707 m 2
 417 707 l 2
 418 707 420 707 421 706 c 2
 484 675 l 1
 563 596 l 2
 564 595 564 595 564 594 c 2
 596 531 l 1
 596 530 l 1
 628 436 l 1
 628 273 l 1
 596 178 l 1
 596 177 l 1
 564 114 l 2
 564 113 564 113 563 112 c 0
 486 35 486 35 486 35 c 2
 485 34 485 34 484 34 c 2
 421 2 l 1
 287 2 l 1
 224 34 l 2
 223 34 223 34 222 35 c 0
 145 112 145 112 145 112 c 2
 144 113 144 113 144 114 c 2
 112 177 l 1
 112 178 l 1
 80 273 l 1
 80 436 l 1
 112 530 l 1
 112 531 l 1
 144 594 l 2
 144 595 144 595 145 596 c 0
 224 675 224 675 224 675 c 1
 287 706 l 2
 288 707 290 707 291 707 c 2
EndSplineSet
Validated: 1
EndChar

StartChar: P
Encoding: 80 80 49
Width: 661
GlyphClass: 1
Flags: W
HStem: 316 44<156 416> 663 44<156 416>
VStem: 112 44<2.00073 316 360 663> 553 44<466 557>
LayerCount: 2
Fore
SplineSet
134 707 m 2
 420 707 l 1
 515 675 l 2
 516 674 517 674 518 673 c 0
 534 657 549 642 565 626 c 1
 596 563 l 2
 597 562 597 560 597 559 c 2
 597 464 l 2
 597 463 597 462 596 461 c 2
 565 398 l 1
 515 348 l 1
 420 317 l 2
 419 316 419 316 418 316 c 2
 156 316 l 1
 156 24 l 2
 156 22 155 19 154 18 c 2
 140 4 l 2
 139 3 136 2 134 2 c 0
 132 2 129 3 128 4 c 1
 114 18 l 2
 113 19 112 22 112 24 c 0
 112 685 112 685 112 685 c 2
 112 687 113 690 114 691 c 2
 128 705 l 2
 129 706 132 707 134 707 c 2
156 663 m 1
 156 360 l 1
 416 360 l 1
 508 391 l 1
 523 406 l 1
 553 466 l 1
 553 557 l 1
 523 617 l 1
 507 633 l 1
 416 663 l 1
 156 663 l 1
EndSplineSet
Validated: 1
EndChar

StartChar: Q
Encoding: 81 81 50
Width: 692
GlyphClass: 1
Flags: W
HStem: 2 44<293 415> 663 44<293 415>
VStem: 80 44<277 432> 584 44<277 432>
LayerCount: 2
Fore
SplineSet
291 707 m 2
 417 707 l 2
 418 707 420 707 421 706 c 2
 484 675 l 1
 563 596 l 2
 564 595 564 595 564 594 c 2
 596 531 l 1
 596 530 l 1
 628 436 l 1
 628 273 l 1
 596 178 l 1
 596 177 l 1
 564 114 l 2
 564 113 564 113 505 55 c 1
 589 -29 595 -35 595 -35 c 0
 595 -35 597 -36 597 -39 c 0
 597 -41 596 -43 594 -45 c 0
 580 -59 l 2
 578 -61 576 -62 574 -62 c 0
 573 -62 571 -61 570 -60 c 0
 549 -39 548 -39 478 31 c 1
 421 2 l 1
 287 2 l 1
 224 34 l 2
 223 34 223 34 222 35 c 0
 145 112 145 112 145 112 c 2
 144 113 144 113 144 114 c 2
 112 177 l 1
 112 178 l 1
 80 273 l 1
 80 436 l 1
 112 530 l 1
 112 531 l 1
 144 594 l 2
 144 595 144 595 145 596 c 0
 224 675 224 675 224 675 c 1
 287 706 l 2
 288 707 290 707 291 707 c 2
363 149 m 0
 363 151 364 153 366 155 c 2
 380 169 l 2
 382 171 384 172 386 172 c 0
 389 172 390 170 390 170 c 0
 390 170 380 180 480 80 c 1
 522 123 l 1
 553 184 l 1
 584 277 l 1
 584 432 l 1
 553 524 l 1
 522 586 l 1
 475 633 l 1
 415 663 l 1
 293 663 l 1
 233 633 l 1
 186 586 l 1
 155 524 l 1
 124 432 l 1
 124 277 l 1
 155 184 l 1
 186 123 l 1
 233 76 l 1
 293 46 l 1
 415 46 l 1
 447 62 l 1
 371 139 371 139 365 145 c 0
 364 146 363 148 363 149 c 0
EndSplineSet
Validated: 37
EndChar

StartChar: R
Encoding: 82 82 51
Width: 661
GlyphClass: 1
Flags: W
HStem: 348 44<156 345 392 416> 663 44<156 416>
VStem: 112 44<2.00073 348 392 663> 553 44<498 557>
LayerCount: 2
Fore
SplineSet
156 348 m 1
 156 24 l 2
 156 22 155 19 154 18 c 2
 140 4 l 2
 139 3 136 2 134 2 c 0
 132 2 129 3 128 4 c 1
 114 18 l 2
 113 19 112 22 112 24 c 0
 112 685 112 685 112 685 c 2
 112 687 113 690 114 691 c 2
 128 705 l 2
 129 706 132 707 134 707 c 2
 420 707 l 1
 515 675 l 2
 516 674 517 674 518 673 c 0
 534 657 549 642 565 626 c 1
 596 563 l 2
 597 562 597 560 597 559 c 2
 597 496 l 2
 597 495 597 493 596 492 c 2
 565 429 l 1
 517 381 517 381 516 381 c 0
 515 380 l 2
 420 348 l 1
 392 348 l 1
 596 28 l 2
 596 27 597 25 597 24 c 0
 597 21 596 19 594 17 c 2
 580 3 l 2
 579 2 578 1 576 1 c 0
 574 1 571 1 569 3 c 0
 554 18 555 18 554 19 c 2
 345 348 l 1
 156 348 l 1
156 663 m 1
 156 392 l 1
 416 392 l 1
 507 422 l 1
 523 438 l 1
 553 498 l 1
 553 557 l 1
 523 617 l 1
 507 633 l 1
 416 663 l 1
 156 663 l 1
EndSplineSet
Validated: 1
EndChar

StartChar: S
Encoding: 83 83 52
Width: 629
GlyphClass: 1
Flags: W
HStem: 2 44<239.018 405.982> 663 44<257 388>
VStem: 80 44<529 587> 521 44<121 211>
LayerCount: 2
Fore
SplineSet
565 591 m 0
 565 589 564 586 562 584 c 0
 548 570 l 2
 547 569 545 568 543 568 c 0
 541 568 539 569 537 571 c 0
 523 585 523 585 476 633 c 1
 384 663 l 1
 261 663 l 1
 169 633 l 1
 124 587 l 1
 124 529 l 1
 154 470 l 1
 170 454 l 1
 231 423 l 1
 420 360 l 1
 421 360 l 1
 484 328 l 2
 484 328 487 327 517 296 c 0
 523 290 527 285 533 279 c 1
 564 216 l 2
 565 215 565 213 565 212 c 2
 565 118 l 2
 565 116 564 114 563 112 c 0
 485 34 485 34 484 34 c 0
 483 33 l 2
 388 2 l 1
 257 2 l 1
 162 33 l 2
 171 24 l 0
 171 24 155 39 82 112 c 0
 81 114 80 116 80 118 c 0
 80 120 81 123 82 124 c 2
 96 138 l 2
 97 139 99 140 101 140 c 0
 103 140 106 140 108 138 c 0
 129 117 149 97 169 76 c 1
 261 46 l 1
 384 46 l 1
 476 76 l 1
 521 121 l 1
 521 211 l 1
 491 270 l 1
 475 286 l 1
 414 317 l 1
 225 380 l 1
 224 380 l 1
 161 412 l 2
 161 412 158 413 128 444 c 0
 122 450 118 455 112 461 c 1
 81 524 l 2
 80 525 80 527 80 528 c 2
 80 590 l 2
 80 593 81 595 82 596 c 0
 160 674 159 674 160 674 c 0
 162 675 l 2
 257 707 l 1
 388 707 l 1
 483 675 l 2
 474 684 l 0
 474 684 490 669 563 596 c 0
 564 595 565 593 565 591 c 0
EndSplineSet
Validated: 1
EndChar

StartChar: T
Encoding: 84 84 53
Width: 503
GlyphClass: 1
Flags: W
HStem: 663 44<17.0007 238 282 501.999>
VStem: 238 44<2.00073 663>
LayerCount: 2
Fore
SplineSet
39 663 m 2
 37 663 34 664 33 665 c 2
 19 679 l 2
 18 680 17 683 17 685 c 0
 17 687 18 690 19 691 c 2
 33 705 l 2
 34 706 37 707 39 707 c 2
 480 707 l 2
 482 707 485 706 486 705 c 2
 500 691 l 2
 501 690 502 687 502 685 c 0
 502 683 501 680 500 679 c 2
 486 665 l 2
 485 664 482 663 480 663 c 2
 282 663 l 1
 282 24 l 2
 282 22 281 19 280 18 c 2
 266 4 l 2
 265 3 262 2 260 2 c 0
 258 2 255 3 254 4 c 2
 240 18 l 2
 239 19 238 22 238 24 c 2
 238 663 l 1
 39 663 l 2
EndSplineSet
Validated: 1
EndChar

StartChar: U
Encoding: 85 85 54
Width: 693
GlyphClass: 1
Flags: W
HStem: 2 44<324 385>
VStem: 112 44<210 706.999> 553 44<210 706.999>
LayerCount: 2
Fore
SplineSet
112 685 m 2
 112 687 113 690 114 691 c 2
 128 705 l 2
 129 706 132 707 134 707 c 0
 136 707 139 706 140 705 c 0
 154 691 l 2
 155 690 156 687 156 685 c 0
 156 214 156 214 156 214 c 1
 186 122 l 1
 233 76 l 1
 324 46 l 1
 385 46 l 1
 476 76 l 1
 523 122 l 1
 553 214 l 1
 553 685 l 2
 553 687 554 690 555 691 c 2
 569 705 l 2
 570 706 573 707 575 707 c 0
 577 707 580 706 581 705 c 2
 595 691 l 2
 596 690 597 687 597 685 c 2
 597 210 l 1
 565 115 l 2
 574 124 l 0
 574 124 559 108 486 35 c 0
 485 34 484 34 483 33 c 2
 389 2 l 1
 320 2 l 1
 226 33 l 2
 235 24 l 0
 235 24 219 39 146 112 c 0
 145 113 145 114 144 115 c 2
 112 210 l 1
 112 685 l 2
EndSplineSet
Validated: 1
EndChar

StartChar: V
Encoding: 86 86 55
Width: 566
GlyphClass: 1
Flags: W
LayerCount: 2
Fore
SplineSet
565 685 m 0
 565 684 565 682 565 682 c 1
 313 21 l 2
 313 19 312 18 311 17 c 2
 297 3 l 2
 296 2 294 1 292 1 c 0
 290 1 287 2 286 3 c 0
 270 19 271 19 270 21 c 1
 18 682 l 2
 17 683 17 685 17 686 c 0
 17 687 17 689 18 690 c 2
 33 704 l 2
 34 705 36 706 40 706 c 0
 42 706 45 705 46 704 c 0
 61 689 61 689 61 688 c 2
 291 83 l 1
 522 688 l 2
 523 690 522 690 537 705 c 0
 538 706 540 706 542 706 c 0
 546 706 548 705 549 704 c 2
 564 690 l 2
 566 688 565 687 565 685 c 0
EndSplineSet
Validated: 1
EndChar

StartChar: W
Encoding: 87 87 56
Width: 756
GlyphClass: 1
Flags: W
VStem: 207 43<2.23438 51.9896> 522 43<2.23438 51.9896>
LayerCount: 2
Fore
SplineSet
702 707 m 0
 704 707 706 706 707 705 c 2
 721 691 l 2
 722 690 724 687 724 685 c 0
 724 684 723 685 565 22 c 0
 565 20 564 18 563 17 c 2
 549 2 l 2
 548 1 546 1 544 1 c 0
 542 1 539 2 538 3 c 0
 524 17 l 2
 523 18 522 20 522 22 c 2
 386 591 l 1
 250 22 l 2
 250 20 249 18 248 17 c 2
 234 2 l 2
 233 1 231 1 229 1 c 0
 227 1 224 2 223 3 c 1
 209 17 l 2
 208 18 207 20 207 22 c 0
 49 684 49 684 49 685 c 0
 49 687 50 689 52 691 c 0
 66 705 l 2
 68 707 70 708 72 708 c 0
 74 708 75 707 76 706 c 0
 92 690 92 690 93 687 c 2
 229 118 l 1
 364 687 l 2
 365 689 364 689 380 705 c 0
 381 706 384 707 386 707 c 0
 388 707 391 706 392 705 c 0
 408 689 407 689 408 687 c 2
 544 118 l 1
 679 687 l 2
 680 689 679 688 695 704 c 0
 697 706 700 707 702 707 c 0
EndSplineSet
Validated: 1
EndChar

StartChar: X
Encoding: 88 88 57
Width: 629
GlyphClass: 1
Flags: W
LayerCount: 2
Fore
SplineSet
544 706 m 0
 545 706 548 705 549 704 c 0
 563 690 l 2
 564 689 565 687 565 685 c 0
 565 684 565 683 564 681 c 0
 346 354 l 1
 564 28 l 2
 564 27 565 25 565 24 c 0
 565 21 564 19 562 17 c 2
 548 3 l 2
 547 2 546 1 544 1 c 0
 541 1 539 2 536 5 c 2
 522 19 l 1
 323 319 l 1
 122 18 123 18 122 17 c 2
 107 3 l 2
 105 1 104 1 102 1 c 0
 100 1 97 2 96 3 c 1
 82 17 l 2
 81 18 80 20 80 23 c 0
 80 24 80 26 81 28 c 2
 299 354 l 1
 81 681 l 2
 81 682 80 684 80 685 c 0
 80 687 81 689 83 691 c 2
 97 705 l 2
 98 706 100 707 102 707 c 0
 104 707 105 707 107 705 c 0
 122 690 122 690 123 689 c 2
 323 390 l 1
 522 689 523 690 523 690 c 2
 537 704 l 2
 539 706 541 706 544 706 c 0
EndSplineSet
Validated: 1
EndChar

StartChar: Y
Encoding: 89 89 58
Width: 566
GlyphClass: 1
Flags: W
VStem: 269 44<2.00073 367>
LayerCount: 2
Fore
SplineSet
543 708 m 0
 545 708 547 706 548 705 c 0
 562 691 l 2
 564 689 565 687 565 685 c 0
 565 683 564 682 563 680 c 2
 313 367 l 1
 313 24 l 2
 313 22 312 19 311 18 c 1
 297 4 l 2
 296 3 293 2 291 2 c 0
 289 2 286 3 285 4 c 0
 271 18 l 2
 270 19 269 22 269 24 c 2
 269 367 l 1
 19 680 l 2
 18 682 17 684 17 686 c 0
 17 688 18 689 19 690 c 0
 33 704 l 2
 34 705 36 706 38 706 c 0
 41 706 43 706 45 704 c 2
 59 690 l 1
 291 401 l 1
 524 692 524 691 524 691 c 0
 538 706 l 2
 539 707 541 708 543 708 c 0
EndSplineSet
Validated: 33
EndChar

StartChar: Z
Encoding: 90 90 59
Width: 629
GlyphClass: 1
Flags: W
HStem: 2 44<141 564.999> 663 44<80.0007 504>
LayerCount: 2
Fore
SplineSet
102 2 m 2
 100 2 97 3 96 4 c 1
 82 18 l 2
 81 19 80 22 80 24 c 0
 80 25 80 27 81 28 c 2
 504 663 l 1
 102 663 l 2
 100 663 97 664 96 665 c 2
 82 679 l 2
 81 680 80 683 80 685 c 0
 80 687 81 690 82 691 c 2
 96 705 l 2
 97 706 100 707 102 707 c 2
 543 707 l 2
 545 707 548 706 549 705 c 0
 563 691 l 2
 564 690 565 687 565 685 c 0
 565 684 565 682 564 681 c 2
 141 46 l 1
 543 46 l 2
 545 46 548 45 549 44 c 2
 563 30 l 2
 564 29 565 26 565 24 c 0
 565 22 564 19 563 18 c 2
 549 4 l 2
 548 3 545 2 543 2 c 0
 102 2 102 2 102 2 c 2
EndSplineSet
Validated: 1
EndChar

StartChar: bracketleft
Encoding: 91 91 60
Width: 440
GlyphClass: 1
Flags: W
HStem: -219 44<188 375.999> 789 44<188 375.999>
VStem: 142 46<-175 789>
LayerCount: 2
Fore
SplineSet
164 -219 m 2
 162 -219 159 -218 158 -217 c 2
 144 -203 l 2
 143 -202 142 -199 142 -197 c 2
 142 811 l 2
 142 813 143 816 144 817 c 2
 158 831 l 2
 159 832 162 833 164 833 c 2
 354 833 l 2
 356 833 359 832 360 831 c 0
 374 817 l 2
 375 816 376 813 376 811 c 0
 376 809 375 806 374 805 c 2
 360 791 l 2
 359 790 356 789 354 789 c 2
 188 789 l 1
 188 -175 l 1
 354 -175 l 2
 356 -175 359 -176 360 -177 c 2
 374 -191 l 2
 375 -192 376 -195 376 -197 c 0
 376 -199 375 -202 374 -203 c 2
 360 -217 l 2
 359 -218 356 -219 354 -219 c 2
 164 -219 l 2
EndSplineSet
Validated: 1
EndChar

StartChar: backslash
Encoding: 92 92 61
Width: 441
GlyphClass: 1
Flags: W
LayerCount: 2
Fore
SplineSet
-14 684 m 0
 -14 687 -13 689 -11 691 c 1
 3 705 l 2
 4 706 6 707 8 707 c 0
 10 707 11 707 13 705 c 0
 28 690 28 690 29 689 c 1
 470 -67 l 2
 471 -69 471 -71 471 -72 c 0
 471 -74 470 -76 469 -77 c 2
 455 -91 l 2
 453 -93 449 -93 449 -93 c 2
 447 -93 446 -93 444 -91 c 0
 429 -76 429 -76 428 -75 c 2
 -13 681 l 2
 -13 682 -14 683 -14 684 c 0
EndSplineSet
Validated: 1
EndChar

StartChar: bracketright
Encoding: 93 93 62
Width: 440
GlyphClass: 1
Flags: W
HStem: -219 44<80.0007 269> 789 44<80.0007 269>
VStem: 269 45<-175 789>
LayerCount: 2
Fore
SplineSet
102 -219 m 2
 100 -219 97 -218 96 -217 c 2
 82 -203 l 2
 81 -202 80 -199 80 -197 c 0
 80 -195 81 -192 82 -191 c 2
 96 -177 l 2
 97 -176 100 -175 102 -175 c 2
 269 -175 l 1
 269 789 l 1
 102 789 l 2
 100 789 97 790 96 791 c 2
 82 805 l 2
 81 806 80 809 80 811 c 0
 80 813 81 816 82 817 c 2
 96 831 l 2
 97 832 100 833 102 833 c 2
 292 833 l 2
 294 833 297 832 298 831 c 2
 312 817 l 2
 313 816 314 813 314 811 c 2
 314 -197 l 2
 314 -199 313 -202 312 -203 c 2
 298 -217 l 2
 297 -218 294 -219 292 -219 c 2
 102 -219 l 2
EndSplineSet
Validated: 1
EndChar

StartChar: asciicircum
Encoding: 94 94 63
Width: 315
GlyphClass: 1
Flags: W
HStem: 285 265
LayerCount: 2
Fore
SplineSet
166 550 m 0
 168 550 170 549 171 548 c 0
 186 533 186 533 187 531 c 2
 218 469 l 1
 280 376 l 1
 301 355 322 334 343 313 c 0
 344 311 345 310 345 308 c 0
 345 306 344 303 343 302 c 2
 328 288 l 2
 326 286 324 285 322 285 c 0
 320 285 319 286 317 287 c 2
 240 364 l 2
 240 365 240 365 239 366 c 2
 176 460 l 1
 176 461 l 1
 166 482 l 1
 155 461 l 1
 155 460 l 1
 92 366 l 2
 91 365 91 365 91 364 c 2
 14 287 l 2
 13 286 11 285 9 285 c 0
 6 285 3 286 1 288 c 1
 -13 302 l 2
 -14 303 -15 305 -15 307 c 0
 -15 309 -14 311 -12 313 c 0
 9 334 30 355 51 376 c 1
 113 469 l 1
 144 531 l 2
 145 532 145 532 160 547 c 0
 162 549 164 550 166 550 c 0
EndSplineSet
Validated: 1
EndChar

StartChar: underscore
Encoding: 95 95 64
Width: 504
GlyphClass: 1
Flags: W
HStem: -62 44<-13.9993 533.999>
LayerCount: 2
Fore
SplineSet
8 -62 m 2
 6 -62 3 -61 2 -60 c 0
 -12 -46 l 2
 -13 -45 -14 -42 -14 -40 c 0
 -14 -38 -13 -35 -12 -34 c 2
 2 -20 l 2
 3 -19 6 -18 8 -18 c 0
 512 -18 512 -18 512 -18 c 2
 514 -18 517 -19 518 -20 c 1
 532 -34 l 2
 533 -35 534 -38 534 -40 c 0
 534 -42 533 -45 532 -46 c 2
 518 -60 l 2
 517 -61 514 -62 512 -62 c 2
 8 -62 l 2
EndSplineSet
Validated: 1
EndChar

StartChar: grave
Encoding: 96 96 65
Width: 252
GlyphClass: 1
Flags: W
HStem: 381 167
VStem: 50 169
LayerCount: 2
Fore
SplineSet
219 402 m 0
 219 399 218 396 217 395 c 2
 203 381 l 2
 202 380 201 380 199 380 c 0
 198 380 198 380 197 380 c 0
 195 380 193 380 192 381 c 0
 64 478 64 477 64 477 c 0
 50 492 l 2
 49 493 48 495 48 496 c 0
 48 498 49 500 51 502 c 0
 64 515 98 548 98 548 c 0
 99 549 101 550 102 550 c 2
 108 548 l 1
 123 533 122 533 123 532 c 1
 217 406 l 2
 218 405 219 403 219 402 c 0
EndSplineSet
Validated: 33
EndChar

StartChar: a
Encoding: 97 97 66
Width: 598
GlyphClass: 1
Flags: W
HStem: 2 44<261 352> 442 44<261 352>
VStem: 80 44<210 278> 458 44<2.00073 70 121 367 418 485.999>
LayerCount: 2
Fore
SplineSet
458 464 m 2
 458 466 459 469 460 470 c 2
 474 484 l 2
 475 485 478 486 480 486 c 0
 482 486 485 485 486 484 c 2
 500 470 l 2
 501 469 502 466 502 464 c 0
 502 24 502 24 502 24 c 2
 502 22 501 19 500 18 c 2
 486 4 l 2
 485 3 482 2 480 2 c 0
 478 2 475 3 474 4 c 2
 460 18 l 2
 459 19 458 22 458 24 c 2
 458 70 l 1
 446 58 435 47 423 35 c 0
 422 34 422 34 421 34 c 2
 358 2 l 1
 256 2 l 1
 193 34 l 2
 192 34 192 34 191 35 c 0
 113 113 113 113 113 114 c 0
 112 115 l 2
 80 210 l 1
 80 278 l 1
 112 373 l 2
 103 364 l 0
 103 364 118 380 191 453 c 0
 192 454 192 454 193 454 c 2
 256 486 l 1
 358 486 l 1
 421 454 l 2
 422 454 426 451 458 418 c 1
 458 464 l 2
458 121 m 1
 458 367 l 1
 412 412 l 1
 352 442 l 1
 261 442 l 1
 201 412 l 1
 154 366 l 1
 124 274 l 1
 124 214 l 1
 154 122 l 1
 201 76 l 1
 261 46 l 1
 352 46 l 1
 412 76 l 1
 458 121 l 1
EndSplineSet
Validated: 1
EndChar

StartChar: b
Encoding: 98 98 67
Width: 598
GlyphClass: 1
Flags: W
HStem: 2 44<262 353> 442 44<262 353>
VStem: 112 44<2.00073 70 121 367 418 706.999> 490 44<210 278>
LayerCount: 2
Fore
SplineSet
112 685 m 2
 112 687 113 690 114 691 c 2
 128 705 l 2
 129 706 132 707 134 707 c 0
 136 707 139 706 140 705 c 0
 154 691 l 2
 155 690 156 687 156 685 c 2
 156 418 l 1
 168 430 179 441 191 453 c 0
 192 454 192 454 193 454 c 2
 256 486 l 1
 358 486 l 1
 421 454 l 2
 422 454 422 454 423 453 c 0
 501 375 501 375 501 374 c 0
 502 373 l 2
 534 278 l 1
 534 210 l 1
 502 115 l 2
 511 124 l 0
 511 124 496 108 423 35 c 0
 422 34 422 34 421 34 c 2
 358 2 l 1
 256 2 l 1
 193 34 l 2
 192 34 188 37 156 70 c 1
 156 24 l 2
 156 22 155 19 154 18 c 2
 140 4 l 2
 139 3 136 2 134 2 c 0
 132 2 129 3 128 4 c 1
 114 18 l 2
 113 19 112 22 112 24 c 0
 112 685 112 685 112 685 c 2
156 367 m 1
 156 121 l 1
 202 76 l 1
 262 46 l 1
 353 46 l 1
 413 76 l 1
 460 122 l 1
 490 214 l 1
 490 274 l 1
 460 366 l 1
 413 412 l 1
 353 442 l 1
 262 442 l 1
 202 412 l 1
 156 367 l 1
EndSplineSet
Validated: 1
EndChar

StartChar: c
Encoding: 99 99 68
Width: 566
GlyphClass: 1
Flags: W
HStem: 2 44<261 352> 442 44<261 352>
VStem: 80 44<210 278>
LayerCount: 2
Fore
SplineSet
502 371 m 0
 502 369 501 367 499 365 c 2
 485 351 l 2
 483 349 481 348 479 348 c 0
 477 348 476 349 474 350 c 2
 412 412 l 1
 352 442 l 1
 261 442 l 1
 201 412 l 1
 154 366 l 1
 124 274 l 1
 124 214 l 1
 154 122 l 1
 201 76 l 1
 261 46 l 1
 352 46 l 1
 412 76 l 1
 474 138 l 2
 476 140 478 141 480 141 c 0
 482 141 484 139 485 138 c 2
 500 124 l 2
 502 122 502 121 502 118 c 0
 502 116 502 114 500 112 c 0
 423 35 423 35 423 35 c 2
 422 34 422 34 421 34 c 2
 358 2 l 1
 256 2 l 1
 193 34 l 2
 192 34 192 34 191 35 c 0
 113 113 113 113 113 114 c 0
 112 115 l 2
 80 210 l 1
 80 278 l 1
 112 373 l 2
 103 364 l 0
 103 364 118 380 191 453 c 0
 192 454 192 454 193 454 c 2
 256 486 l 1
 358 486 l 1
 421 454 l 2
 422 454 422 454 423 453 c 0
 500 376 500 376 500 376 c 2
 501 374 502 373 502 371 c 0
EndSplineSet
Validated: 1
EndChar

StartChar: d
Encoding: 100 100 69
Width: 598
GlyphClass: 1
Flags: W
HStem: 2 44<261 352> 442 44<261 352>
VStem: 80 44<210 278> 458 44<2.00073 70 121 367 418 706.999>
LayerCount: 2
Fore
SplineSet
458 685 m 2
 458 687 459 690 460 691 c 2
 474 705 l 2
 475 706 478 707 480 707 c 0
 482 707 485 706 486 705 c 2
 500 691 l 2
 501 690 502 687 502 685 c 2
 502 24 l 2
 502 22 501 19 500 18 c 2
 486 4 l 2
 485 3 482 2 480 2 c 0
 478 2 475 3 474 4 c 2
 460 18 l 2
 459 19 458 22 458 24 c 2
 458 70 l 1
 446 58 435 47 423 35 c 0
 422 34 422 34 421 34 c 2
 358 2 l 1
 256 2 l 1
 193 34 l 2
 192 34 192 34 191 35 c 0
 113 113 113 113 113 114 c 0
 112 115 l 2
 80 210 l 1
 80 278 l 1
 112 373 l 2
 103 364 l 0
 103 364 118 380 191 453 c 0
 192 454 192 454 193 454 c 2
 256 486 l 1
 358 486 l 1
 421 454 l 2
 422 454 426 451 458 418 c 1
 458 685 l 2
458 121 m 1
 458 367 l 1
 412 412 l 1
 352 442 l 1
 261 442 l 1
 201 412 l 1
 154 366 l 1
 124 274 l 1
 124 214 l 1
 154 122 l 1
 201 76 l 1
 261 46 l 1
 352 46 l 1
 412 76 l 1
 458 121 l 1
EndSplineSet
Validated: 1
EndChar

StartChar: e
Encoding: 101 101 70
Width: 566
GlyphClass: 1
Flags: W
HStem: 2 44<261 352> 254 44<132 458> 442 44<261 352>
VStem: 80 44<210 254> 458 44<298 337>
LayerCount: 2
Fore
SplineSet
479 140 m 0
 481 140 483 139 485 137 c 2
 499 123 l 2
 501 121 502 119 502 117 c 0
 502 115 501 114 500 112 c 2
 423 35 l 2
 422 34 422 34 421 34 c 2
 358 2 l 1
 256 2 l 1
 193 34 l 2
 192 34 192 34 191 35 c 0
 113 113 113 113 113 114 c 0
 112 115 l 2
 80 210 l 1
 80 278 l 1
 112 373 l 2
 103 364 l 0
 103 364 118 380 191 453 c 0
 192 454 192 454 193 454 c 2
 256 486 l 1
 358 486 l 1
 421 454 l 2
 421 454 424 453 454 422 c 0
 460 416 464 411 470 405 c 1
 501 342 l 2
 502 341 502 339 502 338 c 2
 502 276 l 2
 502 274 501 271 500 270 c 2
 486 256 l 2
 485 255 482 254 480 254 c 0
 124 254 124 254 124 254 c 1
 124 214 l 1
 154 122 l 1
 201 76 l 1
 261 46 l 1
 352 46 l 1
 412 76 l 1
 474 138 l 2
 476 139 477 140 479 140 c 0
458 298 m 1
 458 337 l 1
 428 396 l 1
 412 412 l 1
 352 442 l 1
 261 442 l 1
 201 412 l 1
 154 366 l 1
 132 298 l 1
 458 298 l 1
EndSplineSet
Validated: 1
EndChar

StartChar: f
Encoding: 102 102 71
Width: 378
GlyphClass: 1
Flags: W
HStem: 442 44<49.0007 144 188 313.999> 663 44<262 344.999>
VStem: 144 44<2.00073 442 486 558>
LayerCount: 2
Fore
SplineSet
71 442 m 2
 69 442 66 443 65 444 c 2
 51 458 l 2
 50 459 49 462 49 464 c 0
 49 466 50 469 51 470 c 2
 65 484 l 2
 66 485 69 486 71 486 c 2
 144 486 l 1
 144 562 l 1
 175 656 l 2
 178 661 192 675 193 675 c 1
 256 706 l 2
 257 707 259 707 260 707 c 2
 323 707 l 2
 325 707 328 706 329 705 c 1
 343 691 l 2
 344 690 345 687 345 685 c 0
 345 683 344 680 343 679 c 2
 329 665 l 2
 328 664 325 663 323 663 c 2
 262 663 l 1
 215 640 l 1
 188 558 l 1
 188 486 l 1
 292 486 l 2
 294 486 297 485 298 484 c 1
 312 470 l 2
 313 469 314 466 314 464 c 0
 314 462 313 459 312 458 c 2
 298 444 l 2
 297 443 294 442 292 442 c 2
 188 442 l 1
 188 24 l 2
 188 22 187 19 186 18 c 2
 172 4 l 2
 171 3 168 2 166 2 c 0
 164 2 161 3 160 4 c 1
 146 18 l 2
 145 19 144 22 144 24 c 2
 144 442 l 1
 71 442 l 2
EndSplineSet
Validated: 1
EndChar

StartChar: g
Encoding: 103 103 72
Width: 598
GlyphClass: 1
Flags: W
HStem: -219 44<261 352> 2 44<261 352> 442 44<261 352>
VStem: 80 44<210 278> 458 44<-38 70 121 367 418 485.999>
LayerCount: 2
Fore
SplineSet
458 464 m 2
 458 466 459 469 460 470 c 2
 474 484 l 2
 475 485 478 486 480 486 c 0
 482 486 485 485 486 484 c 2
 500 470 l 2
 501 469 502 466 502 464 c 0
 502 -42 502 -42 502 -42 c 1
 470 -137 l 2
 469 -138 469 -139 468 -140 c 0
 452 -156 437 -171 421 -187 c 1
 358 -218 l 2
 357 -219 355 -219 354 -219 c 2
 260 -219 l 2
 259 -219 257 -219 256 -218 c 2
 193 -187 l 2
 191 -186 191 -186 176 -171 c 0
 175 -170 174 -168 174 -166 c 0
 174 -164 174 -162 176 -160 c 0
 191 -146 l 2
 193 -144 194 -143 197 -143 c 0
 198 -143 199 -144 200 -144 c 0
 261 -175 l 1
 352 -175 l 1
 412 -145 l 1
 428 -129 l 1
 458 -38 l 1
 458 70 l 1
 446 58 435 47 423 35 c 0
 422 34 422 34 421 34 c 2
 358 2 l 1
 256 2 l 1
 193 34 l 2
 192 34 192 34 191 35 c 0
 113 113 113 113 113 114 c 0
 112 115 l 2
 80 210 l 1
 80 278 l 1
 112 373 l 2
 103 364 l 0
 103 364 118 380 191 453 c 0
 192 454 192 454 193 454 c 2
 256 486 l 1
 358 486 l 1
 421 454 l 2
 422 454 426 451 458 418 c 1
 458 464 l 2
458 121 m 1
 458 367 l 1
 412 412 l 1
 352 442 l 1
 261 442 l 1
 201 412 l 1
 154 366 l 1
 124 274 l 1
 124 214 l 1
 154 122 l 1
 201 76 l 1
 261 46 l 1
 352 46 l 1
 412 76 l 1
 458 121 l 1
EndSplineSet
Validated: 1
EndChar

StartChar: h
Encoding: 104 104 73
Width: 598
GlyphClass: 1
Flags: W
HStem: 442 44<293 384>
VStem: 112 44<2.00073 335 386 706.999> 458 44<2.00073 337>
LayerCount: 2
Fore
SplineSet
112 685 m 2
 112 687 113 690 114 691 c 2
 128 705 l 2
 129 706 132 707 134 707 c 0
 136 707 139 706 140 705 c 0
 154 691 l 2
 155 690 156 687 156 685 c 2
 156 386 l 1
 223 453 l 2
 224 454 224 454 225 454 c 2
 288 486 l 1
 390 486 l 1
 455 453 454 454 455 453 c 0
 470 438 470 438 471 436 c 2
 502 341 l 1
 502 24 l 2
 502 22 501 19 500 18 c 2
 486 4 l 2
 485 3 482 2 480 2 c 0
 478 2 475 3 474 4 c 2
 460 18 l 2
 459 19 458 22 458 24 c 2
 458 337 l 1
 431 419 l 1
 384 442 l 1
 293 442 l 1
 233 412 l 1
 156 335 l 1
 156 24 l 2
 156 22 155 19 154 18 c 2
 140 4 l 2
 139 3 136 2 134 2 c 0
 132 2 129 3 128 4 c 1
 114 18 l 2
 113 19 112 22 112 24 c 0
 112 685 112 685 112 685 c 2
EndSplineSet
Validated: 1
EndChar

StartChar: i
Encoding: 105 105 74
Width: 251
GlyphClass: 1
Flags: W
VStem: 111 44<2.00073 485.999>
LayerCount: 2
Fore
SplineSet
111 464 m 2
 111 466 112 469 113 470 c 1
 127 484 l 2
 128 485 131 486 133 486 c 0
 135 486 138 485 139 484 c 2
 153 470 l 2
 154 469 155 466 155 464 c 2
 155 24 l 2
 155 22 154 19 153 18 c 2
 139 4 l 2
 138 3 135 2 133 2 c 0
 131 2 128 3 127 4 c 1
 113 18 l 2
 112 19 111 22 111 24 c 2
 111 464 l 2
139 685 m 1
 133 691 l 1
 127 685 l 1
 133 679 l 1
 139 685 l 1
80 685 m 0
 80 687 81 689 82 691 c 0
 90 699 129 737 129 737 c 0
 130 738 132 739 133 739 c 0
 135 739 137 738 139 736 c 0
 171 705 171 705 185 691 c 0
 187 689 187 687 187 685 c 0
 187 683 187 681 185 679 c 0
 170 664 154 649 139 634 c 0
 137 632 135 631 133 631 c 0
 131 631 131 631 123 639 c 0
 109 652 96 665 82 679 c 0
 81 681 80 683 80 685 c 0
EndSplineSet
Validated: 1
EndChar

StartChar: j
Encoding: 106 106 75
Width: 314
GlyphClass: 1
Flags: W
HStem: -219 44<17.0007 100>
VStem: 174 44<-70 485.999>
LayerCount: 2
Fore
SplineSet
174 464 m 2
 174 466 175 469 176 470 c 2
 190 484 l 2
 191 485 194 486 196 486 c 0
 198 486 201 485 202 484 c 2
 216 470 l 2
 217 469 218 466 218 464 c 2
 218 -74 l 1
 187 -168 l 2
 184 -173 170 -187 169 -187 c 1
 106 -218 l 2
 105 -219 103 -219 102 -219 c 2
 39 -219 l 2
 37 -219 34 -218 33 -217 c 2
 19 -203 l 2
 18 -202 17 -199 17 -197 c 0
 17 -195 18 -192 19 -191 c 2
 33 -177 l 2
 34 -176 37 -175 39 -175 c 2
 100 -175 l 1
 147 -152 l 1
 174 -70 l 1
 174 464 l 2
197 739 m 0
 199 739 199 739 207 731 c 0
 221 718 234 705 248 691 c 0
 250 689 250 687 250 685 c 0
 250 683 250 681 248 679 c 0
 233 664 217 649 202 634 c 0
 200 632 198 631 196 631 c 0
 194 631 194 631 186 639 c 0
 172 652 159 665 145 679 c 0
 144 681 143 683 143 685 c 0
 143 687 144 689 145 691 c 0
 160 706 176 721 191 736 c 0
 193 738 195 739 197 739 c 0
202 685 m 1
 196 691 l 1
 190 685 l 1
 196 679 l 1
 202 685 l 1
EndSplineSet
Validated: 1
EndChar

StartChar: k
Encoding: 107 107 76
Width: 536
GlyphClass: 1
Flags: W
VStem: 112 44<2.00073 146 197 706.999>
LayerCount: 2
Fore
SplineSet
449 487 m 0
 451 487 453 486 454 485 c 2
 468 471 l 2
 470 469 471 466 471 464 c 0
 471 462 470 460 469 459 c 0
 285 275 285 275 285 275 c 1
 501 29 l 2
 502 28 503 26 503 24 c 0
 503 22 502 20 500 18 c 2
 486 4 l 2
 485 3 482 2 480 2 c 0
 478 2 476 2 474 4 c 2
 460 18 l 1
 259 249 l 1
 156 146 l 1
 156 24 l 2
 156 22 155 19 154 18 c 2
 140 4 l 2
 139 3 136 2 134 2 c 0
 132 2 129 3 128 4 c 1
 114 18 l 2
 113 19 112 22 112 24 c 0
 112 685 112 685 112 685 c 2
 112 687 113 690 114 691 c 2
 128 705 l 2
 129 706 132 707 134 707 c 0
 136 707 139 706 140 705 c 0
 154 691 l 2
 155 690 156 687 156 685 c 2
 156 197 l 1
 443 484 l 2
 445 486 447 487 449 487 c 0
EndSplineSet
Validated: 1
EndChar

StartChar: l
Encoding: 108 108 77
Width: 252
GlyphClass: 1
Flags: W
VStem: 112 44<2.00073 706.999>
LayerCount: 2
Fore
SplineSet
112 685 m 2
 112 687 113 690 114 691 c 2
 128 705 l 2
 129 706 132 707 134 707 c 0
 136 707 139 706 140 705 c 0
 154 691 l 2
 155 690 156 687 156 685 c 0
 156 24 156 24 156 24 c 2
 156 22 155 19 154 18 c 2
 140 4 l 2
 139 3 136 2 134 2 c 0
 132 2 129 3 128 4 c 1
 114 18 l 2
 113 19 112 22 112 24 c 0
 112 685 112 685 112 685 c 2
EndSplineSet
Validated: 1
EndChar

StartChar: m
Encoding: 109 109 78
Width: 945
GlyphClass: 1
Flags: W
HStem: 442 44<293 384 640 731>
VStem: 112 44<2.00073 335 386 485.999> 458 44<2.00073 335> 805 44<2.00073 337>
LayerCount: 2
Fore
SplineSet
112 464 m 2
 112 466 113 469 114 470 c 1
 128 484 l 2
 129 485 132 486 134 486 c 0
 136 486 139 485 140 484 c 1
 154 470 l 2
 155 469 156 466 156 464 c 2
 156 386 l 1
 223 453 l 2
 224 454 224 454 225 454 c 2
 288 486 l 1
 390 486 l 1
 455 453 454 454 455 453 c 0
 470 438 470 438 471 436 c 2
 491 375 l 1
 517 401 543 427 569 453 c 0
 570 454 570 454 571 454 c 2
 634 486 l 1
 736 486 l 1
 801 453 800 454 801 453 c 0
 816 438 816 438 817 436 c 2
 849 341 l 1
 849 24 l 2
 849 22 848 19 847 18 c 2
 833 4 l 2
 832 3 829 2 827 2 c 0
 825 2 822 3 821 4 c 0
 807 18 l 2
 806 19 805 22 805 24 c 2
 805 337 l 1
 778 419 l 1
 731 442 l 1
 640 442 l 1
 580 412 l 1
 502 335 l 1
 502 24 l 2
 502 22 501 19 500 18 c 2
 486 4 l 2
 485 3 482 2 480 2 c 0
 478 2 475 3 474 4 c 2
 460 18 l 2
 459 19 458 22 458 24 c 2
 458 337 l 1
 431 419 l 1
 384 442 l 1
 293 442 l 1
 233 412 l 1
 156 335 l 1
 156 24 l 2
 156 22 155 19 154 18 c 2
 140 4 l 2
 139 3 136 2 134 2 c 0
 132 2 129 3 128 4 c 1
 114 18 l 2
 113 19 112 22 112 24 c 0
 112 464 112 464 112 464 c 2
EndSplineSet
Validated: 1
EndChar

StartChar: n
Encoding: 110 110 79
Width: 598
GlyphClass: 1
Flags: W
HStem: 442 44<293 384>
VStem: 112 44<2.00073 335 386 485.999> 458 44<2.00073 337>
LayerCount: 2
Fore
SplineSet
112 464 m 2
 112 466 113 469 114 470 c 1
 128 484 l 2
 129 485 132 486 134 486 c 0
 136 486 139 485 140 484 c 1
 154 470 l 2
 155 469 156 466 156 464 c 2
 156 386 l 1
 223 453 l 2
 224 454 224 454 225 454 c 2
 288 486 l 1
 390 486 l 1
 455 453 454 454 455 453 c 0
 470 438 470 438 471 436 c 2
 502 341 l 1
 502 24 l 2
 502 22 501 19 500 18 c 2
 486 4 l 2
 485 3 482 2 480 2 c 0
 478 2 475 3 474 4 c 2
 460 18 l 2
 459 19 458 22 458 24 c 2
 458 337 l 1
 431 419 l 1
 384 442 l 1
 293 442 l 1
 233 412 l 1
 156 335 l 1
 156 24 l 2
 156 22 155 19 154 18 c 2
 140 4 l 2
 139 3 136 2 134 2 c 0
 132 2 129 3 128 4 c 1
 114 18 l 2
 113 19 112 22 112 24 c 0
 112 464 112 464 112 464 c 2
EndSplineSet
Validated: 1
EndChar

StartChar: o
Encoding: 111 111 80
Width: 598
GlyphClass: 1
Flags: W
HStem: 2 44<261 352> 442 44<261 352>
VStem: 80 44<210 278> 490 44<214 274>
LayerCount: 2
Fore
SplineSet
261 442 m 1
 201 412 l 1
 154 366 l 1
 124 274 l 1
 124 214 l 1
 154 122 l 1
 201 76 l 1
 261 46 l 1
 352 46 l 1
 412 76 l 1
 459 122 l 1
 490 214 l 1
 490 274 l 1
 459 366 l 1
 412 412 l 1
 352 442 l 1
 261 442 l 1
534 276 m 2
 534 212 l 2
 534 211 534 211 533 210 c 2
 502 115 l 2
 511 124 l 0
 511 124 496 108 423 35 c 0
 422 34 422 34 421 34 c 2
 358 2 l 1
 256 2 l 1
 193 34 l 2
 192 34 192 34 191 35 c 0
 113 113 113 113 113 114 c 0
 112 115 l 2
 80 210 l 1
 80 278 l 1
 112 373 l 2
 103 364 l 0
 103 364 118 380 191 453 c 0
 192 454 192 454 193 454 c 2
 256 486 l 1
 358 486 l 1
 421 454 l 2
 422 454 422 454 423 453 c 0
 501 375 501 375 501 374 c 0
 502 373 l 2
 533 278 l 2
 534 277 534 277 534 276 c 2
EndSplineSet
Validated: 1
EndChar

StartChar: p
Encoding: 112 112 81
Width: 598
GlyphClass: 1
Flags: W
HStem: 2 44<262 353> 442 44<262 353>
VStem: 112 44<-218.999 70 121 367 418 485.999> 490 44<210 278>
LayerCount: 2
Fore
SplineSet
112 464 m 2
 112 466 113 469 114 470 c 1
 128 484 l 2
 129 485 132 486 134 486 c 0
 136 486 139 485 140 484 c 1
 154 470 l 2
 155 469 156 466 156 464 c 2
 156 418 l 1
 168 430 179 441 191 453 c 0
 192 454 192 454 193 454 c 2
 256 486 l 1
 358 486 l 1
 421 454 l 2
 422 454 422 454 423 453 c 0
 501 375 501 375 501 374 c 0
 502 373 l 2
 534 278 l 1
 534 210 l 1
 502 115 l 2
 511 124 l 0
 511 124 496 108 423 35 c 0
 422 34 422 34 421 34 c 2
 358 2 l 1
 256 2 l 1
 193 34 l 2
 192 34 188 37 156 70 c 1
 156 -197 l 2
 156 -199 155 -202 154 -203 c 2
 140 -217 l 2
 139 -218 136 -219 134 -219 c 0
 132 -219 129 -218 128 -217 c 2
 114 -203 l 2
 113 -202 112 -199 112 -197 c 2
 112 464 l 2
156 367 m 1
 156 121 l 1
 202 76 l 1
 262 46 l 1
 353 46 l 1
 413 76 l 1
 460 122 l 1
 490 214 l 1
 490 274 l 1
 460 366 l 1
 413 412 l 1
 353 442 l 1
 262 442 l 1
 202 412 l 1
 156 367 l 1
EndSplineSet
Validated: 1
EndChar

StartChar: q
Encoding: 113 113 82
Width: 598
GlyphClass: 1
Flags: W
HStem: 2 44<261 352> 442 44<261 352>
VStem: 80 44<210 278> 458 44<-218.999 70 121 367 418 485.999>
LayerCount: 2
Fore
SplineSet
458 464 m 2
 458 466 459 469 460 470 c 2
 474 484 l 2
 475 485 478 486 480 486 c 0
 482 486 485 485 486 484 c 2
 500 470 l 2
 501 469 502 466 502 464 c 0
 502 -197 502 -197 502 -197 c 2
 502 -199 501 -202 500 -203 c 2
 486 -217 l 2
 485 -218 482 -219 480 -219 c 0
 478 -219 475 -218 474 -217 c 2
 460 -203 l 2
 459 -202 458 -199 458 -197 c 2
 458 70 l 1
 446 58 435 47 423 35 c 0
 422 34 422 34 421 34 c 2
 358 2 l 1
 256 2 l 1
 193 34 l 2
 192 34 192 34 191 35 c 0
 113 113 113 113 113 114 c 0
 112 115 l 2
 80 210 l 1
 80 278 l 1
 112 373 l 2
 103 364 l 0
 103 364 118 380 191 453 c 0
 192 454 192 454 193 454 c 2
 256 486 l 1
 358 486 l 1
 421 454 l 2
 422 454 426 451 458 418 c 1
 458 464 l 2
458 121 m 1
 458 367 l 1
 412 412 l 1
 352 442 l 1
 261 442 l 1
 201 412 l 1
 154 366 l 1
 124 274 l 1
 124 214 l 1
 154 122 l 1
 201 76 l 1
 261 46 l 1
 352 46 l 1
 412 76 l 1
 458 121 l 1
EndSplineSet
Validated: 1
EndChar

StartChar: r
Encoding: 114 114 83
Width: 409
GlyphClass: 1
Flags: W
HStem: 442 44<293 407.999>
VStem: 112 44<2.00073 295.982 386 485.999>
LayerCount: 2
Fore
SplineSet
112 464 m 2
 112 466 113 469 114 470 c 1
 128 484 l 2
 129 485 132 486 134 486 c 0
 136 486 139 485 140 484 c 1
 154 470 l 2
 155 469 156 466 156 464 c 2
 156 386 l 1
 223 453 l 2
 224 454 224 454 225 454 c 2
 288 486 l 1
 386 486 l 2
 388 486 391 485 392 484 c 2
 406 470 l 2
 407 469 408 466 408 464 c 0
 408 462 407 459 406 458 c 2
 392 444 l 2
 391 443 388 442 386 442 c 2
 293 442 l 1
 233 412 l 1
 186 366 l 1
 156 274 l 1
 156 24 l 2
 156 22 155 19 154 18 c 2
 140 4 l 2
 139 3 136 2 134 2 c 0
 132 2 129 3 128 4 c 1
 114 18 l 2
 113 19 112 22 112 24 c 0
 112 464 112 464 112 464 c 2
EndSplineSet
Validated: 1
EndChar

StartChar: s
Encoding: 115 115 84
Width: 535
GlyphClass: 1
Flags: W
HStem: 2 44<229 321> 442 44<229 321>
VStem: 427 44<120 148>
LayerCount: 2
Fore
SplineSet
471 370 m 0
 471 367 469 365 468 364 c 0
 454 350 l 2
 452 348 450 348 448 348 c 0
 446 348 445 348 443 350 c 0
 428 365 428 365 427 366 c 2
 403 415 l 1
 321 442 l 1
 229 442 l 1
 147 415 l 1
 125 370 l 1
 149 322 l 1
 199 297 l 1
 356 266 l 2
 357 266 357 266 358 265 c 2
 421 234 l 1
 436 219 436 220 437 218 c 0
 439 215 439 215 470 153 c 0
 471 152 471 151 471 150 c 2
 471 118 l 2
 471 117 471 115 470 114 c 0
 437 49 438 50 437 49 c 0
 422 34 422 34 420 33 c 2
 325 2 l 1
 226 2 l 1
 131 33 l 2
 126 36 112 50 112 51 c 0
 81 114 l 2
 80 116 80 118 80 119 c 0
 80 121 81 123 82 124 c 0
 96 138 l 2
 98 140 102 140 102 140 c 2
 104 140 105 140 107 138 c 0
 122 123 122 123 123 122 c 2
 147 73 l 1
 229 46 l 1
 321 46 l 1
 403 73 l 1
 427 120 l 1
 427 148 l 1
 402 197 l 1
 351 222 l 1
 195 254 l 1
 193 254 l 1
 128 287 128 287 126 289 c 2
 112 303 l 1
 81 366 l 2
 81 368 80 369 80 370 c 0
 80 371 81 372 81 374 c 0
 112 438 112 438 113 439 c 0
 128 454 128 454 131 455 c 2
 226 486 l 1
 325 486 l 1
 420 455 l 2
 422 454 437 440 438 437 c 2
 470 374 l 2
 470 373 471 371 471 370 c 0
EndSplineSet
Validated: 1
EndChar

StartChar: t
Encoding: 116 116 85
Width: 378
GlyphClass: 1
Flags: W
HStem: 2 44<262 344.999> 442 44<49.0007 144 188 313.999>
VStem: 144 44<151 442 486 706.999>
LayerCount: 2
Fore
SplineSet
71 442 m 2
 69 442 66 443 65 444 c 2
 51 458 l 2
 50 459 49 462 49 464 c 0
 49 466 50 469 51 470 c 2
 65 484 l 2
 66 485 69 486 71 486 c 2
 144 486 l 1
 144 685 l 2
 144 687 145 690 146 691 c 2
 160 705 l 2
 161 706 164 707 166 707 c 0
 168 707 171 706 172 705 c 2
 186 691 l 2
 187 690 188 687 188 685 c 2
 188 486 l 1
 292 486 l 2
 294 486 297 485 298 484 c 1
 312 470 l 2
 313 469 314 466 314 464 c 0
 314 462 313 459 312 458 c 2
 298 444 l 2
 297 443 294 442 292 442 c 2
 188 442 l 1
 188 151 l 1
 215 69 l 1
 262 46 l 1
 323 46 l 2
 325 46 328 45 329 44 c 2
 343 30 l 2
 344 29 345 26 345 24 c 0
 345 22 344 19 343 18 c 2
 329 4 l 2
 328 3 325 2 323 2 c 0
 256 2 256 2 256 2 c 1
 191 35 192 34 191 35 c 0
 176 50 176 50 175 52 c 2
 144 147 l 1
 144 442 l 1
 71 442 l 2
EndSplineSet
Validated: 1
EndChar

StartChar: u
Encoding: 117 117 86
Width: 598
GlyphClass: 1
Flags: W
HStem: 2 44<230 321>
VStem: 112 44<151 485.999> 458 44<2.00073 101 153 485.999>
LayerCount: 2
Fore
SplineSet
458 464 m 2
 458 466 459 469 460 470 c 2
 474 484 l 2
 475 485 478 486 480 486 c 0
 482 486 485 485 486 484 c 2
 500 470 l 2
 501 469 502 466 502 464 c 0
 502 24 502 24 502 24 c 2
 502 22 501 19 500 18 c 2
 486 4 l 2
 485 3 482 2 480 2 c 0
 478 2 475 3 474 4 c 2
 460 18 l 2
 459 19 458 22 458 24 c 2
 458 101 l 1
 436 79 414 57 392 35 c 0
 391 34 391 34 390 34 c 2
 327 2 l 1
 225 2 l 1
 160 35 161 34 160 35 c 0
 145 50 145 50 144 52 c 2
 112 147 l 1
 112 464 l 2
 112 466 113 469 114 470 c 1
 128 484 l 2
 129 485 132 486 134 486 c 0
 136 486 139 485 140 484 c 1
 154 470 l 2
 155 469 156 466 156 464 c 0
 156 151 156 151 156 151 c 1
 183 69 l 1
 230 46 l 1
 321 46 l 1
 381 76 l 1
 458 153 l 1
 458 464 l 2
EndSplineSet
Validated: 1
EndChar

StartChar: v
Encoding: 118 118 87
Width: 504
GlyphClass: 1
Flags: W
LayerCount: 2
Fore
SplineSet
448 486 m 0
 451 486 454 485 455 484 c 0
 469 470 l 2
 470 469 471 467 471 465 c 0
 471 464 470 462 470 461 c 1
 281 20 l 2
 281 19 280 18 279 17 c 2
 265 3 l 2
 264 2 262 1 260 1 c 0
 258 1 256 2 255 3 c 0
 240 18 240 18 239 20 c 0
 50 461 l 2
 50 462 49 464 49 465 c 0
 49 467 50 469 51 470 c 0
 65 484 l 2
 66 485 69 486 72 486 c 0
 74 486 76 486 77 485 c 0
 92 470 91 470 92 468 c 2
 260 77 l 1
 429 470 428 469 429 470 c 1
 443 485 l 2
 444 486 446 486 448 486 c 0
EndSplineSet
Validated: 1
EndChar

StartChar: w
Encoding: 119 119 88
Width: 692
GlyphClass: 1
Flags: W
LayerCount: 2
Fore
SplineSet
605 486 m 0
 608 486 610 485 612 483 c 2
 626 469 l 2
 627 468 629 466 629 464 c 0
 629 463 628 463 502 21 c 0
 501 19 502 19 486 3 c 0
 485 2 482 1 480 1 c 0
 478 1 475 2 474 3 c 0
 458 19 459 19 458 21 c 2
 354 385 l 1
 250 21 l 2
 249 19 250 19 234 3 c 0
 233 2 230 1 228 1 c 0
 226 1 223 2 222 3 c 0
 206 19 207 19 206 21 c 0
 80 463 79 463 79 464 c 0
 79 466 81 468 82 469 c 1
 96 483 l 2
 98 485 100 486 103 486 c 0
 105 486 107 485 108 484 c 0
 123 469 123 469 124 467 c 2
 228 103 l 1
 332 467 l 2
 333 469 332 469 348 485 c 0
 349 486 352 487 354 487 c 0
 356 487 359 486 360 485 c 0
 376 469 375 469 376 467 c 2
 480 103 l 1
 584 467 l 2
 585 469 585 469 600 484 c 0
 601 485 603 486 605 486 c 0
EndSplineSet
Validated: 1
EndChar

StartChar: x
Encoding: 120 120 89
Width: 535
GlyphClass: 1
Flags: W
LayerCount: 2
Fore
SplineSet
449 486 m 0
 451 486 453 486 454 485 c 2
 468 470 l 2
 469 469 470 467 470 465 c 0
 470 463 470 462 469 460 c 2
 299 244 l 1
 469 28 l 2
 470 27 471 25 471 23 c 0
 471 21 470 19 469 18 c 2
 455 4 l 2
 454 3 452 2 450 2 c 0
 447 2 445 2 442 5 c 2
 428 19 l 1
 275 213 l 1
 122 18 121 18 121 18 c 2
 107 4 l 2
 105 2 103 2 101 2 c 0
 99 2 97 3 96 4 c 0
 82 18 l 2
 81 19 80 20 80 22 c 0
 80 24 81 26 82 28 c 2
 251 244 l 1
 82 460 l 2
 81 461 80 463 80 465 c 0
 80 467 81 469 83 471 c 2
 97 485 l 2
 98 486 99 487 101 487 c 0
 103 487 104 487 106 485 c 0
 121 470 121 470 122 469 c 2
 275 275 l 1
 429 470 l 1
 443 484 l 2
 444 485 447 486 449 486 c 0
EndSplineSet
Validated: 1
EndChar

StartChar: y
Encoding: 121 121 90
Width: 504
GlyphClass: 1
Flags: W
HStem: -219 44<17.0007 69>
LayerCount: 2
Fore
SplineSet
448 487 m 0
 450 487 452 486 454 484 c 1
 468 470 l 2
 469 469 471 466 471 464 c 0
 471 463 470 462 470 461 c 1
 281 20 l 1
 218 -106 l 1
 137 -187 l 1
 74 -218 l 2
 73 -219 71 -219 70 -219 c 2
 39 -219 l 2
 37 -219 34 -218 33 -217 c 2
 19 -203 l 2
 18 -202 17 -199 17 -197 c 0
 17 -195 18 -192 19 -191 c 2
 33 -177 l 2
 34 -176 37 -175 39 -175 c 2
 69 -175 l 1
 129 -145 l 1
 176 -98 l 1
 237 24 l 1
 49 461 l 2
 49 462 48 463 48 464 c 0
 48 466 50 469 51 470 c 0
 65 484 l 2
 67 486 69 487 71 487 c 0
 73 487 75 486 76 485 c 0
 91 470 91 470 92 468 c 2
 260 77 l 1
 427 468 l 2
 428 470 428 470 443 485 c 0
 444 486 446 487 448 487 c 0
EndSplineSet
Validated: 1
EndChar

StartChar: z
Encoding: 122 122 91
Width: 534
GlyphClass: 1
Flags: W
HStem: 2 44<143 469.999> 442 44<80.0007 407>
LayerCount: 2
Fore
SplineSet
102 2 m 2
 100 2 97 3 96 4 c 1
 82 18 l 2
 81 19 80 22 80 24 c 0
 80 25 81 27 82 28 c 2
 407 442 l 1
 102 442 l 2
 100 442 97 443 96 444 c 2
 82 458 l 2
 81 459 80 462 80 464 c 0
 80 466 81 469 82 470 c 2
 96 484 l 2
 97 485 100 486 102 486 c 2
 448 486 l 2
 450 486 453 485 454 484 c 2
 468 470 l 2
 469 469 470 466 470 464 c 0
 470 463 470 461 469 460 c 2
 143 46 l 1
 448 46 l 2
 450 46 453 45 454 44 c 2
 468 30 l 2
 469 29 470 26 470 24 c 0
 470 22 469 19 468 18 c 2
 454 4 l 2
 453 3 450 2 448 2 c 0
 102 2 102 2 102 2 c 2
EndSplineSet
Validated: 1
EndChar

StartChar: braceleft
Encoding: 123 123 92
Width: 440
GlyphClass: 1
Flags: W
HStem: 797 42<291 308.999>
VStem: 135 43<-71 -8 581.594 621.999 622 685> 231 42<153 206 408 461>
LayerCount: 2
Fore
SplineSet
273 151 m 2
 273 150 274 150 274 149 c 0
 274 148 242 87 241 86 c 0
 228 73 228 73 211 57 c 0
 211 56 l 0
 179 -7 178 -8 178 -8 c 1
 178 -71 l 1
 178 -71 211 -134 211 -135 c 0
 211 -135 218 -142 219 -143 c 0
 222 -146 225 -149 229 -153 c 0
 292 -184 292 -184 293 -185 c 2
 307 -199 l 2
 308 -200 309 -202 309 -204 c 0
 309 -206 308 -208 307 -209 c 2
 293 -223 l 2
 292 -224 290 -225 288 -225 c 0
 287 -225 287 -226 286 -226 c 0
 285 -226 222 -194 220 -192 c 0
 203 -176 200 -173 175 -148 c 0
 172 -145 170 -143 169 -140 c 2
 138 -79 l 2
 136 -77 135 -75 135 -73 c 0
 135 -72 136 -71 136 -71 c 1
 136 -8 l 1
 136 -8 135 -7 135 -6 c 0
 135 -4 136 -2 138 0 c 0
 168 60 168 60 169 63 c 0
 169 64 169 64 184 79 c 0
 185 80 186 80 186 80 c 1
 202 96 l 1
 231 153 l 1
 231 206 l 1
 188 249 l 1
 124 281 124 281 123 282 c 2
 109 296 l 2
 105 300 105 304 105 307 c 0
 105 309 105 314 109 318 c 0
 125 334 124 334 127 335 c 1
 188 365 l 1
 231 408 l 1
 231 461 l 1
 202 518 l 1
 192 528 182 538 172 548 c 0
 170 550 170 550 169 553 c 2
 138 614 l 2
 136 616 135 618 135 620 c 0
 135 621 136 622 136 622 c 1
 136 685 l 1
 136 685 135 686 135 687 c 0
 135 689 136 691 138 693 c 0
 168 753 168 753 169 756 c 0
 172 761 209 795 220 806 c 0
 221 807 285 840 286 840 c 0
 288 840 288 839 288 839 c 0
 290 839 292 838 293 837 c 0
 307 823 l 2
 308 822 309 820 309 818 c 0
 309 816 308 813 307 812 c 0
 292 797 292 797 291 797 c 0
 229 767 l 1
 211 749 l 2
 211 748 178 685 178 685 c 1
 178 622 l 2
 178 621 208 565 211 559 c 0
 236 534 243 526 243 526 c 0
 273 465 274 465 274 465 c 0
 274 464 273 464 273 463 c 2
 273 405 l 2
 273 403 272 401 271 400 c 0
 195 324 195 324 195 324 c 1
 162 307 l 1
 192 292 196 290 197 289 c 0
 198 288 193 292 271 214 c 0
 272 213 273 211 273 209 c 2
 273 151 l 2
EndSplineSet
Validated: 1
EndChar

StartChar: bar
Encoding: 124 124 93
Width: 252
GlyphClass: 1
Flags: W
VStem: 112 44<-218.999 832.999>
LayerCount: 2
Fore
SplineSet
112 811 m 2
 112 813 113 816 114 817 c 2
 128 831 l 2
 129 832 132 833 134 833 c 0
 136 833 139 832 140 831 c 1
 154 817 l 2
 155 816 156 813 156 811 c 2
 156 -197 l 2
 156 -199 155 -202 154 -203 c 2
 140 -217 l 2
 139 -218 136 -219 134 -219 c 0
 132 -219 129 -218 128 -217 c 2
 114 -203 l 2
 113 -202 112 -199 112 -197 c 2
 112 811 l 2
EndSplineSet
Validated: 1
EndChar

StartChar: braceright
Encoding: 125 125 94
Width: 440
GlyphClass: 1
Flags: W
VStem: 167 42<153 206 408 461> 262 43<-71 -8 581.746 621.999 622 685>
LayerCount: 2
Fore
SplineSet
152 839 m 0
 153 839 153 840 154 840 c 0
 155 840 218 808 220 806 c 0
 221 805 269 761 271 756 c 0
 272 753 272 753 302 693 c 0
 304 691 305 689 305 687 c 0
 305 686 304 685 304 685 c 1
 304 622 l 1
 304 622 305 621 305 620 c 0
 305 618 304 616 302 614 c 2
 271 553 l 2
 270 550 270 550 268 548 c 0
 258 538 248 528 238 518 c 1
 209 461 l 1
 209 408 l 1
 252 365 l 1
 316 333 316 333 317 332 c 1
 331 318 l 2
 335 314 335 309 335 307 c 0
 335 304 335 300 331 296 c 2
 317 282 l 2
 316 281 316 281 252 249 c 1
 209 206 l 1
 209 153 l 1
 238 96 l 1
 254 80 l 2
 255 80 270 65 271 63 c 0
 272 60 272 60 302 0 c 0
 304 -2 305 -4 305 -6 c 0
 305 -7 304 -8 304 -8 c 1
 304 -71 l 1
 304 -71 305 -72 305 -73 c 0
 305 -75 304 -77 302 -79 c 2
 271 -140 l 2
 270 -143 270 -143 251 -162 c 0
 247 -166 238 -175 220 -192 c 0
 219 -193 155 -226 154 -226 c 0
 152 -226 152 -225 152 -225 c 2
 150 -225 148 -224 147 -223 c 2
 133 -209 l 2
 132 -208 131 -206 131 -204 c 0
 131 -202 132 -200 133 -199 c 2
 147 -185 l 2
 148 -184 148 -184 211 -153 c 0
 219 -145 221 -144 226 -138 c 0
 227 -137 228 -136 229 -135 c 0
 229 -134 262 -71 262 -71 c 1
 262 -8 l 1
 262 -8 261 -7 229 56 c 0
 229 57 l 0
 212 73 212 73 199 86 c 0
 198 87 166 148 166 149 c 0
 166 150 167 150 167 151 c 2
 167 209 l 2
 167 211 168 213 169 214 c 0
 242 287 242 288 243 289 c 0
 244 290 248 292 278 307 c 1
 245 324 l 1
 169 400 l 2
 168 401 167 403 167 405 c 2
 167 463 l 2
 167 464 166 464 166 465 c 0
 166 466 197 527 197 527 c 0
 201 532 229 559 229 559 c 0
 232 566 262 621 262 622 c 2
 262 685 l 1
 262 685 229 748 229 749 c 2
 211 767 l 1
 148 797 149 797 148 798 c 2
 133 812 l 2
 132 813 131 816 131 818 c 0
 131 820 132 822 133 823 c 2
 147 837 l 2
 148 838 150 839 152 839 c 0
EndSplineSet
Validated: 1
EndChar

StartChar: asciitilde
Encoding: 126 126 95
Width: 755
GlyphClass: 1
Flags: W
HStem: 220 46<513 573> 378 46<198 258>
VStem: 80 44<190.001 278> 647 44<340 423.999>
LayerCount: 2
Fore
SplineSet
102 190 m 0
 100 190 97 191 96 192 c 1
 82 206 l 2
 81 207 80 210 80 212 c 0
 80 278 80 278 80 278 c 1
 112 373 l 2
 113 375 127 390 130 391 c 2
 193 423 l 2
 194 424 195 424 196 424 c 2
 260 424 l 2
 261 424 262 424 263 423 c 2
 326 391 l 2
 327 391 327 391 330 388 c 2
 453 296 l 1
 513 266 l 1
 573 266 l 1
 623 290 l 1
 647 340 l 1
 647 402 l 2
 647 404 648 407 649 408 c 2
 663 422 l 2
 664 423 667 424 669 424 c 0
 671 424 674 423 675 422 c 2
 689 408 l 2
 690 407 691 404 691 402 c 2
 691 336 l 1
 658 270 659 270 658 269 c 0
 643 254 643 254 641 253 c 0
 578 221 l 2
 577 220 575 220 574 220 c 2
 512 220 l 2
 511 220 509 220 508 221 c 2
 445 253 l 2
 444 253 444 253 441 256 c 2
 318 348 l 1
 258 378 l 1
 198 378 l 1
 150 354 l 1
 124 274 l 1
 124 212 l 2
 124 210 123 207 122 206 c 2
 108 192 l 2
 107 191 104 190 102 190 c 0
EndSplineSet
Validated: 1
EndChar

StartChar: uni007F
Encoding: 127 127 96
Width: 440
GlyphClass: 1
Flags: W
HStem: 411 44<198 258> 663 44<198 258>
VStem: 80 44<529 589> 332 44<529 589>
LayerCount: 2
Fore
SplineSet
196 707 m 2
 260 707 l 2
 261 707 262 707 263 706 c 2
 326 675 l 1
 332 669 338 663 344 657 c 1
 375 594 l 2
 376 593 376 591 376 590 c 2
 376 528 l 2
 376 527 376 525 375 524 c 2
 344 461 l 1
 338 455 332 449 326 443 c 1
 263 412 l 2
 262 411 261 411 260 411 c 2
 196 411 l 2
 195 411 194 411 193 412 c 2
 130 443 l 1
 124 449 118 455 112 461 c 1
 81 524 l 2
 80 525 80 527 80 528 c 2
 80 590 l 2
 80 591 80 593 81 594 c 2
 112 657 l 1
 118 663 124 669 130 675 c 1
 193 706 l 2
 194 707 195 707 196 707 c 2
308 639 m 1
 258 663 l 1
 198 663 l 1
 148 639 l 1
 124 589 l 1
 124 529 l 1
 148 479 l 1
 198 455 l 1
 258 455 l 1
 308 479 l 1
 332 529 l 1
 332 589 l 1
 308 639 l 1
EndSplineSet
Validated: 1
EndChar

StartChar: bullet
Encoding: 8226 8226 97
Width: 251
GlyphClass: 2
Flags: W
HStem: 253 107<132 135>
VStem: 80 107<305 309>
LayerCount: 2
Fore
SplineSet
187 307 m 0
 187 305 187 303 185 301 c 0
 170 286 154 271 139 256 c 0
 137 254 135 253 133 253 c 0
 131 253 131 253 123 261 c 0
 109 274 96 287 82 301 c 0
 80 303 80 305 80 307 c 0
 80 309 80 311 82 313 c 0
 97 328 113 343 128 358 c 0
 129 359 132 360 134 360 c 0
 136 360 138 359 139 358 c 0
 154 343 170 328 185 313 c 0
 187 311 187 309 187 307 c 0
133 301 m 1
 139 307 l 1
 133 313 l 1
 127 307 l 1
 133 301 l 1
EndSplineSet
Validated: 1
EndChar

StartChar: notequal
Encoding: 8800 8800 98
Width: 566
GlyphClass: 2
Flags: W
HStem: 222 44<80.0007 195 282 501.999> 348 44<80.0007 300 387 501.999>
LayerCount: 2
Fore
SplineSet
102 222 m 2
 100 222 97 223 96 224 c 2
 82 238 l 2
 81 239 80 242 80 244 c 0
 80 246 81 249 82 250 c 2
 96 264 l 2
 97 265 100 266 102 266 c 2
 233 266 l 1
 300 348 l 1
 102 348 l 2
 100 348 97 349 96 350 c 2
 82 364 l 2
 81 365 80 368 80 370 c 0
 80 372 81 375 82 376 c 2
 96 390 l 2
 97 391 100 392 102 392 c 2
 338 392 l 1
 428 501 l 2
 428 501 428 501 443 516 c 0
 444 517 447 518 449 518 c 0
 451 518 453 517 454 516 c 2
 468 502 l 2
 469 501 470 500 470 497 c 0
 470 495 470 493 469 491 c 2
 387 392 l 1
 480 392 l 2
 482 392 485 391 486 390 c 2
 500 376 l 2
 501 375 502 372 502 370 c 0
 502 368 501 365 500 364 c 2
 486 350 l 2
 485 349 482 348 480 348 c 2
 349 348 l 1
 282 266 l 1
 480 266 l 2
 482 266 485 265 486 264 c 2
 500 250 l 2
 501 249 502 246 502 244 c 0
 502 242 501 239 500 238 c 2
 486 224 l 2
 485 223 482 222 480 222 c 2
 244 222 l 1
 154 113 l 2
 154 113 154 113 139 98 c 0
 138 97 135 96 133 96 c 0
 131 96 129 97 128 98 c 1
 114 112 l 2
 113 113 112 114 112 117 c 0
 112 119 112 121 113 123 c 2
 195 222 l 1
 102 222 l 2
EndSplineSet
Validated: 1
EndChar

StartChar: infinity
Encoding: 8734 8734 99
Width: 630
GlyphClass: 2
Flags: W
HStem: 190 44<167 195 451 479> 411 44<167 195 451 479>
VStem: 49 44<309 337> 553 44<309 337>
LayerCount: 2
Fore
SplineSet
299 323 m 1
 271 365 l 1
 255 381 l 1
 195 411 l 1
 167 411 l 1
 117 387 l 1
 93 337 l 1
 93 309 l 1
 118 259 l 1
 167 234 l 1
 195 234 l 1
 255 265 l 1
 271 281 l 1
 299 323 l 1
553 309 m 1
 553 337 l 1
 529 387 l 1
 479 411 l 1
 451 411 l 1
 391 381 l 1
 375 365 l 1
 347 323 l 1
 375 281 l 1
 391 265 l 1
 451 234 l 1
 479 234 l 1
 528 259 l 1
 553 309 l 1
197 190 m 2
 166 190 l 2
 165 190 163 190 162 191 c 0
 97 224 97 224 95 226 c 2
 81 240 l 1
 50 303 l 2
 49 304 49 306 49 307 c 2
 49 338 l 2
 49 339 49 341 50 342 c 2
 81 405 l 1
 87 411 93 417 99 423 c 1
 162 454 l 2
 163 455 165 455 166 455 c 2
 197 455 l 2
 198 455 200 455 201 454 c 2
 264 423 l 1
 280 407 295 392 311 376 c 0
 312 375 312 375 312 374 c 2
 323 358 l 1
 334 374 l 2
 334 375 334 375 382 423 c 1
 445 454 l 2
 446 455 448 455 449 455 c 2
 480 455 l 2
 481 455 483 455 484 454 c 2
 547 423 l 1
 553 417 559 411 565 405 c 1
 596 342 l 2
 597 341 597 339 597 338 c 2
 597 307 l 2
 597 306 597 304 596 303 c 2
 565 240 l 1
 550 225 551 225 549 224 c 0
 546 222 546 222 484 191 c 0
 483 190 481 190 480 190 c 2
 449 190 l 2
 448 190 446 190 445 191 c 2
 382 223 l 2
 381 223 381 223 349 256 c 0
 349 256 348 256 334 270 c 0
 334 271 l 2
 323 287 l 1
 312 271 l 2
 312 270 l 0
 298 256 297 256 297 256 c 0
 287 245 277 235 266 224 c 0
 265 223 265 223 264 223 c 2
 201 191 l 2
 200 190 198 190 197 190 c 2
EndSplineSet
Validated: 1
EndChar

StartChar: plusminus
Encoding: 177 177 100
Width: 756
GlyphClass: 2
Flags: W
HStem: 2 44<112.001 364 408 659.999> 285 44<112.001 364 408 659.999>
VStem: 364 44<46 285 329 580.999>
LayerCount: 2
Fore
SplineSet
134 2 m 2
 132 2 129 3 128 4 c 1
 114 18 l 2
 113 19 112 22 112 24 c 0
 112 26 113 29 114 30 c 2
 128 44 l 2
 129 45 132 46 134 46 c 2
 364 46 l 1
 364 285 l 1
 134 285 l 2
 132 285 129 286 128 287 c 0
 114 301 l 2
 113 302 112 305 112 307 c 0
 112 309 113 312 114 313 c 2
 128 327 l 2
 129 328 132 329 134 329 c 2
 364 329 l 1
 364 559 l 2
 364 561 365 564 366 565 c 2
 380 579 l 2
 381 580 384 581 386 581 c 0
 388 581 391 580 392 579 c 2
 406 565 l 2
 407 564 408 561 408 559 c 2
 408 329 l 1
 638 329 l 2
 640 329 643 328 644 327 c 2
 658 313 l 2
 659 312 660 309 660 307 c 0
 660 305 659 302 658 301 c 2
 644 287 l 2
 643 286 640 285 638 285 c 2
 408 285 l 1
 408 46 l 1
 638 46 l 2
 640 46 643 45 644 44 c 1
 658 30 l 2
 659 29 660 26 660 24 c 0
 660 22 659 19 658 18 c 2
 644 4 l 2
 643 3 640 2 638 2 c 0
 134 2 134 2 134 2 c 2
EndSplineSet
Validated: 1
EndChar

StartChar: lessequal
Encoding: 8804 8804 101
Width: 503
GlyphClass: 2
Flags: W
HStem: 222 44<80.0007 383>
LayerCount: 2
Fore
SplineSet
102 222 m 2
 100 222 97 223 96 224 c 2
 82 238 l 2
 81 239 80 242 80 244 c 0
 80 246 81 249 82 250 c 2
 96 264 l 2
 97 265 100 266 102 266 c 2
 383 266 l 1
 99 380 l 2
 97 380 97 381 82 396 c 0
 81 397 80 399 80 402 c 0
 80 404 81 406 82 407 c 0
 97 422 97 422 99 423 c 0
 414 549 l 2
 415 549 417 550 418 550 c 0
 420 550 421 549 422 548 c 0
 437 534 l 2
 439 532 439 528 439 526 c 0
 439 524 438 523 437 522 c 0
 422 507 422 507 420 506 c 2
 159 402 l 1
 421 297 421 297 422 296 c 1
 436 282 l 2
 437 281 438 278 438 276 c 0
 438 273 438 271 436 269 c 2
 427 260 l 1
 437 250 l 2
 438 249 439 246 439 244 c 0
 439 242 438 239 437 238 c 2
 423 224 l 2
 422 223 419 222 417 222 c 2
 102 222 l 2
EndSplineSet
Validated: 1
EndChar

StartChar: greaterequal
Encoding: 8805 8805 102
Width: 503
GlyphClass: 2
Flags: W
HStem: 222 44<136 438.999> 380 43<420 438.989>
LayerCount: 2
Fore
SplineSet
102 222 m 2
 100 222 97 223 96 224 c 2
 82 238 l 2
 81 239 80 242 80 244 c 0
 80 246 81 249 82 250 c 2
 92 260 l 1
 80 272 80 272 80 276 c 0
 80 278 81 280 82 281 c 0
 97 296 97 296 99 297 c 2
 360 402 l 1
 99 506 l 2
 97 507 97 507 82 522 c 0
 81 523 80 524 80 526 c 0
 80 528 80 532 82 534 c 2
 97 548 l 2
 98 549 99 550 101 550 c 0
 102 550 104 549 105 549 c 1
 420 423 l 2
 421 423 422 422 423 421 c 2
 437 407 l 2
 438 406 439 404 439 402 c 0
 439 399 438 397 437 396 c 0
 422 381 422 380 420 380 c 2
 136 266 l 1
 417 266 l 2
 419 266 422 265 423 264 c 1
 437 250 l 2
 438 249 439 246 439 244 c 0
 439 242 438 239 437 238 c 2
 423 224 l 2
 422 223 419 222 417 222 c 2
 102 222 l 2
EndSplineSet
Validated: 1
EndChar

StartChar: partialdiff
Encoding: 8706 8706 103
Width: 566
GlyphClass: 2
Flags: W
HStem: 2 44<230 289> 442 44<261 321> 663 44<293 352>
VStem: 80 44<182 278> 426 44<192.018 241.262> 458 44<356 526>
LayerCount: 2
Fore
SplineSet
426 214 m 1xf8
 426 306 l 1
 396 397 l 1
 381 412 l 1
 321 442 l 1
 261 442 l 1
 201 412 l 1
 154 366 l 1
 124 274 l 1
 124 182 l 1
 154 92 l 1
 170 76 l 1
 230 46 l 1
 289 46 l 1
 349 76 l 1
 396 122 l 1
 426 214 l 1xf8
165 568 m 0
 163 568 161 569 160 570 c 1
 146 584 l 2
 144 586 143 589 143 591 c 0
 143 593 144 595 145 596 c 0
 224 675 224 675 224 675 c 1
 287 706 l 2
 288 707 290 707 291 707 c 2
 354 707 l 2
 355 707 357 707 358 706 c 2
 421 675 l 1
 469 627 469 627 469 626 c 0
 470 625 l 2xf8
 502 530 l 1
 502 368 l 1xf4
 470 211 l 1
 470 210 l 1xf8
 439 115 l 2
 448 124 l 0
 448 124 433 108 360 35 c 0
 359 34 359 34 358 34 c 2
 295 2 l 1
 224 2 l 1
 161 34 l 2
 160 34 156 38 114 81 c 0
 113 82 113 83 112 84 c 2
 80 178 l 1
 80 278 l 1
 112 373 l 2
 103 364 l 0
 103 364 118 380 191 453 c 0
 192 454 192 454 193 454 c 2
 256 486 l 1
 326 486 l 1
 389 454 l 2
 390 454 390 454 437 407 c 0
 438 406 438 405 439 404 c 2
 455 356 l 1
 458 371 l 1
 458 526 l 1xf4
 428 617 l 1
 412 633 l 1
 352 663 l 1
 293 663 l 1
 233 633 l 1
 171 571 l 2
 169 569 167 568 165 568 c 0
EndSplineSet
Validated: 1
EndChar

StartChar: summation
Encoding: 8721 8721 104
Width: 661
GlyphClass: 2
Flags: W
HStem: -30 46<113 526> 600 44<144 522>
VStem: 554 43<117.184 171.974 442.026 492.912>
LayerCount: 2
Fore
SplineSet
544 644 m 2
 546 644 548 643 549 642 c 2
 563 628 l 2
 564 627 565 626 565 624 c 0
 597 465 597 465 597 464 c 0
 597 462 596 460 595 459 c 2
 581 445 l 2
 579 443 577 442 575 442 c 0
 573 442 571 443 570 444 c 0
 555 459 554 460 554 462 c 2
 522 600 l 1
 144 600 l 1
 343 343 l 2
 345 341 345 340 345 338 c 0
 345 336 345 336 343 334 c 2
 113 16 l 1
 526 16 l 1
 554 152 l 2
 554 154 555 155 570 170 c 0
 571 171 573 172 575 172 c 0
 577 172 579 171 581 169 c 2
 595 155 l 2
 596 154 597 152 597 150 c 0
 597 149 597 149 565 -10 c 0
 565 -12 564 -13 563 -14 c 2
 549 -28 l 2
 548 -29 546 -30 544 -30 c 2
 71 -30 l 2
 69 -30 66 -29 65 -28 c 2
 51 -14 l 2
 50 -13 49 -10 49 -8 c 0
 49 -6 50 -4 51 -3 c 2
 299 338 l 1
 85 614 l 1
 85 630 l 1
 99 644 l 1
 544 644 l 2
EndSplineSet
Validated: 1
EndChar

StartChar: product
Encoding: 8719 8719 105
Width: 756
GlyphClass: 2
Flags: W
HStem: -30 44<49.0007 154 202 313.999 458.001 567 617 722.999> 600 44<49.0007 154 202 567 617 722.999>
VStem: 154 48<14 600> 567 50<14 600>
LayerCount: 2
Fore
SplineSet
480 -30 m 2
 478 -30 475 -29 474 -28 c 1
 460 -14 l 2
 459 -13 458 -10 458 -8 c 0
 458 -6 459 -3 460 -2 c 2
 474 12 l 2
 475 13 478 14 480 14 c 2
 567 14 l 1
 567 600 l 1
 202 600 l 1
 202 14 l 1
 292 14 l 2
 294 14 297 13 298 12 c 2
 312 -2 l 2
 313 -3 314 -6 314 -8 c 0
 314 -10 313 -13 312 -14 c 1
 298 -28 l 2
 297 -29 294 -30 292 -30 c 2
 71 -30 l 2
 69 -30 66 -29 65 -28 c 2
 51 -14 l 2
 50 -13 49 -10 49 -8 c 0
 49 -6 50 -3 51 -2 c 2
 65 12 l 2
 66 13 69 14 71 14 c 2
 154 14 l 1
 154 600 l 1
 71 600 l 2
 69 600 66 601 65 602 c 2
 51 616 l 2
 50 617 49 620 49 622 c 0
 49 624 50 627 51 628 c 2
 65 642 l 2
 66 643 69 644 71 644 c 2
 701 644 l 2
 703 644 706 643 707 642 c 2
 721 628 l 2
 722 627 723 624 723 622 c 0
 723 620 722 617 721 616 c 2
 707 602 l 2
 706 601 703 600 701 600 c 2
 617 600 l 1
 617 14 l 1
 701 14 l 2
 703 14 706 13 707 12 c 2
 721 -2 l 2
 722 -3 723 -6 723 -8 c 0
 723 -10 722 -13 721 -14 c 2
 707 -28 l 2
 706 -29 703 -30 701 -30 c 0
 480 -30 480 -30 480 -30 c 2
EndSplineSet
Validated: 1
EndChar

StartChar: integral
Encoding: 8747 8747 106
Width: 756
GlyphClass: 2
Flags: W
HStem: -219 44<119 164> 694 21G<668 670> 789 44<608 653>
VStem: 49 44<-149 -137> 679 44<751 763>
LayerCount: 2
Fore
SplineSet
616 748 m 0
 616 750 616 752 618 754 c 0
 630 766 641 777 653 789 c 1
 608 789 l 1
 549 759 l 1
 533 743 l 1
 488 674 l 1
 451 557 l 1
 378 180 l 1
 378 179 l 1
 356 53 l 1
 356 52 l 1
 334 -42 l 1
 333 -43 l 1
 296 -126 l 1
 275 -147 253 -167 232 -187 c 1
 169 -218 l 2
 168 -219 167 -219 166 -219 c 2
 102 -219 l 2
 100 -219 98 -218 97 -217 c 0
 82 -202 66 -186 51 -171 c 0
 50 -170 49 -168 49 -166 c 2
 49 -134 l 2
 49 -132 50 -130 51 -128 c 0
 59 -120 98 -82 98 -82 c 0
 99 -81 101 -80 102 -80 c 0
 104 -80 106 -81 108 -83 c 0
 123 -98 139 -113 154 -128 c 0
 156 -130 156 -132 156 -134 c 0
 156 -136 156 -138 154 -140 c 0
 142 -152 131 -163 119 -175 c 1
 164 -175 l 1
 223 -145 l 1
 239 -129 l 1
 270 -68 l 1
 301 57 l 1
 364 434 l 1
 364 435 l 1
 396 561 l 1
 396 562 l 1
 427 656 l 1
 428 657 l 1
 459 720 l 1
 540 801 l 1
 603 832 l 2
 604 833 605 833 606 833 c 2
 670 833 l 2
 672 833 674 832 675 831 c 0
 690 816 706 800 721 785 c 0
 722 784 723 782 723 780 c 2
 723 748 l 2
 723 746 722 744 721 742 c 0
 706 727 690 712 675 697 c 0
 673 695 671 694 669 694 c 0
 667 694 667 694 659 702 c 0
 645 715 632 728 618 742 c 0
 616 744 616 746 616 748 c 0
93 -137 m 1
 93 -149 l 1
 93 -149 94 -149 109 -134 c 1
 102 -128 l 1
 93 -137 l 1
679 751 m 1
 679 763 l 1
 679 763 678 763 663 748 c 1
 670 742 l 1
 679 751 l 1
EndSplineSet
Validated: 1
EndChar

StartChar: radical
Encoding: 8730 8730 107
Width: 630
GlyphClass: 2
Flags: W
HStem: 380 44<49.0007 127>
LayerCount: 2
Fore
SplineSet
638 707 m 0
 640 707 640 707 657 690 c 0
 658 689 660 686 660 684 c 0
 660 683 659 682 659 681 c 2
 376 114 l 2
 375 113 375 113 360 98 c 0
 359 97 358 96 356 96 c 0
 353 96 350 97 348 99 c 2
 334 113 l 1
 127 380 l 1
 71 380 l 2
 69 380 66 381 65 382 c 2
 51 396 l 2
 50 397 49 400 49 402 c 0
 49 404 50 407 51 408 c 2
 65 422 l 2
 66 423 69 424 71 424 c 2
 136 424 l 2
 137 424 139 423 140 422 c 0
 155 407 155 407 156 406 c 2
 350 154 l 1
 617 689 l 2
 618 690 618 690 633 705 c 0
 635 707 636 707 638 707 c 0
EndSplineSet
Validated: 1
EndChar

StartChar: divide
Encoding: 247 247 108
Width: 566
GlyphClass: 2
Flags: W
HStem: 285 44<80.0007 501.999>
LayerCount: 2
Fore
SplineSet
345 149 m 0
 345 147 345 147 337 139 c 0
 324 125 311 112 297 98 c 0
 295 96 293 96 291 96 c 2
 285 98 l 1
 270 113 255 129 240 144 c 0
 238 146 237 148 237 150 c 0
 237 152 237 152 245 160 c 0
 258 174 271 187 285 201 c 0
 287 202 289 203 291 203 c 0
 293 203 295 202 297 201 c 0
 312 186 327 170 342 155 c 0
 344 153 345 151 345 149 c 0
102 285 m 2
 100 285 97 286 96 287 c 1
 82 301 l 2
 81 302 80 305 80 307 c 0
 80 309 81 312 82 313 c 2
 96 327 l 2
 97 328 100 329 102 329 c 2
 480 329 l 2
 482 329 485 328 486 327 c 2
 500 313 l 2
 501 312 502 309 502 307 c 0
 502 305 501 302 500 301 c 2
 486 287 l 2
 485 286 482 285 480 285 c 2
 102 285 l 2
345 464 m 0
 345 462 345 462 337 454 c 0
 324 440 311 427 297 413 c 0
 295 411 293 411 291 411 c 2
 285 413 l 1
 270 428 255 444 240 459 c 0
 238 461 237 463 237 465 c 0
 237 467 237 467 245 475 c 0
 258 489 271 502 285 516 c 0
 287 517 289 518 291 518 c 0
 293 518 295 517 297 516 c 0
 312 501 327 485 342 470 c 0
 344 468 345 466 345 464 c 0
291 144 m 1
 297 150 l 1
 291 156 l 1
 285 150 l 1
 291 144 l 1
297 464 m 1
 291 470 l 1
 285 464 l 1
 291 458 l 1
 297 464 l 1
EndSplineSet
Validated: 1
EndChar

StartChar: propersubset
Encoding: 8834 8834 111
Width: 503
GlyphClass: 2
Flags: W
HStem: 128 44<230 438.999> 442 44<230 438.999>
VStem: 80 44<277 337>
LayerCount: 2
Fore
SplineSet
417 486 m 2
 419 486 422 485 423 484 c 2
 437 470 l 2
 438 469 439 466 439 464 c 0
 439 462 438 459 437 458 c 2
 423 444 l 2
 422 443 419 442 417 442 c 2
 230 442 l 1
 170 412 l 1
 154 396 l 1
 124 337 l 1
 124 277 l 1
 154 218 l 1
 170 202 l 1
 230 172 l 1
 417 172 l 2
 419 172 422 171 423 170 c 2
 437 156 l 2
 438 155 439 152 439 150 c 0
 439 148 438 145 437 144 c 0
 423 130 l 2
 422 129 419 128 417 128 c 0
 224 128 224 128 224 128 c 1
 161 160 l 2
 161 160 158 161 128 192 c 0
 122 198 118 203 112 209 c 1
 81 272 l 2
 80 273 80 275 80 276 c 2
 80 338 l 2
 80 339 80 341 81 342 c 2
 112 405 l 1
 150 444 160 454 161 454 c 1
 224 486 l 1
 417 486 l 2
EndSplineSet
Validated: 1
EndChar

StartChar: propersuperset
Encoding: 8835 8835 112
Width: 503
GlyphClass: 2
Flags: W
HStem: 128 44<80.0007 289> 442 44<80.0007 289>
VStem: 395 44<277 337>
LayerCount: 2
Fore
SplineSet
102 442 m 2
 100 442 97 443 96 444 c 2
 82 458 l 2
 81 459 80 462 80 464 c 0
 80 466 81 469 82 470 c 2
 96 484 l 2
 97 485 100 486 102 486 c 2
 295 486 l 1
 358 454 l 2
 358 454 361 453 391 422 c 0
 397 416 401 411 407 405 c 1
 438 342 l 2
 439 341 439 339 439 338 c 2
 439 276 l 2
 439 275 439 273 438 272 c 2
 407 209 l 1
 369 170 359 160 358 160 c 2
 295 128 l 1
 102 128 l 2
 100 128 97 129 96 130 c 2
 82 144 l 2
 81 145 80 148 80 150 c 0
 80 152 81 155 82 156 c 2
 96 170 l 2
 97 171 100 172 102 172 c 2
 289 172 l 1
 349 202 l 1
 365 218 l 1
 395 277 l 1
 395 337 l 1
 365 396 l 1
 349 412 l 1
 289 442 l 1
 102 442 l 2
EndSplineSet
Validated: 1
EndChar

StartChar: union
Encoding: 8746 8746 113
Width: 503
GlyphClass: 2
Flags: W
HStem: 128 44<230 289>
VStem: 80 44<277 485.999> 395 44<277 485.999>
LayerCount: 2
Fore
SplineSet
80 464 m 2
 80 466 81 469 82 470 c 2
 96 484 l 2
 97 485 100 486 102 486 c 0
 104 486 107 485 108 484 c 2
 122 470 l 2
 123 469 124 466 124 464 c 2
 124 277 l 1
 154 218 l 1
 170 202 l 1
 230 172 l 1
 289 172 l 1
 349 202 l 1
 365 218 l 1
 395 277 l 1
 395 464 l 2
 395 466 396 469 397 470 c 2
 411 484 l 2
 412 485 415 486 417 486 c 0
 419 486 422 485 423 484 c 2
 437 470 l 2
 438 469 439 466 439 464 c 2
 439 276 l 2
 439 275 439 273 438 272 c 2
 407 209 l 1
 369 170 359 160 358 160 c 2
 295 128 l 1
 224 128 l 1
 161 160 l 2
 161 160 158 161 128 192 c 0
 122 198 118 203 112 209 c 1
 81 272 l 2
 80 273 80 275 80 276 c 2
 80 464 l 2
EndSplineSet
Validated: 1
EndChar

StartChar: intersection
Encoding: 8745 8745 114
Width: 503
GlyphClass: 2
Flags: W
HStem: 442 44<230 289>
VStem: 80 44<128.001 337> 395 44<128.001 337>
LayerCount: 2
Fore
SplineSet
124 150 m 2
 124 148 123 145 122 144 c 2
 108 130 l 2
 107 129 104 128 102 128 c 0
 100 128 97 129 96 130 c 2
 82 144 l 2
 81 145 80 148 80 150 c 2
 80 338 l 2
 80 339 80 341 81 342 c 2
 112 405 l 1
 150 444 160 454 161 454 c 1
 224 486 l 1
 295 486 l 1
 358 454 l 2
 358 454 361 453 391 422 c 0
 397 416 401 411 407 405 c 1
 438 342 l 2
 439 341 439 339 439 338 c 2
 439 150 l 2
 439 148 438 145 437 144 c 0
 423 130 l 2
 422 129 419 128 417 128 c 0
 415 128 412 129 411 130 c 2
 397 144 l 2
 396 145 395 148 395 150 c 2
 395 337 l 1
 365 396 l 1
 349 412 l 1
 289 442 l 1
 230 442 l 1
 170 412 l 1
 154 396 l 1
 124 337 l 1
 124 150 l 2
EndSplineSet
Validated: 1
EndChar

StartChar: element
Encoding: 8712 8712 115
Width: 503
GlyphClass: 2
Flags: W
HStem: 128 44<230 438.999> 285 44<124 375.999> 442 44<230 438.999>
VStem: 80 44<277 285 329 337>
CounterMasks: 1 e0
LayerCount: 2
Fore
SplineSet
417 486 m 2
 419 486 422 485 423 484 c 2
 437 470 l 2
 438 469 439 466 439 464 c 0
 439 462 438 459 437 458 c 2
 423 444 l 2
 422 443 419 442 417 442 c 2
 230 442 l 1
 170 412 l 1
 154 396 l 1
 124 337 l 1
 124 329 l 1
 354 329 l 2
 356 329 359 328 360 327 c 2
 374 313 l 2
 375 312 376 309 376 307 c 0
 376 305 375 302 374 301 c 2
 360 287 l 2
 359 286 356 285 354 285 c 2
 124 285 l 1
 124 277 l 1
 154 218 l 1
 170 202 l 1
 230 172 l 1
 417 172 l 2
 419 172 422 171 423 170 c 2
 437 156 l 2
 438 155 439 152 439 150 c 0
 439 148 438 145 437 144 c 0
 423 130 l 2
 422 129 419 128 417 128 c 0
 224 128 224 128 224 128 c 1
 161 160 l 2
 161 160 158 161 128 192 c 0
 122 198 118 203 112 209 c 1
 81 272 l 2
 80 273 80 275 80 276 c 2
 80 338 l 2
 80 339 80 341 81 342 c 2
 112 405 l 1
 150 444 160 454 161 454 c 1
 224 486 l 1
 417 486 l 2
EndSplineSet
Validated: 1
EndChar

StartChar: equivalence
Encoding: 8801 8801 116
Width: 566
GlyphClass: 2
Flags: W
HStem: 159 44<80.0007 501.999> 285 44<80.0007 501.999> 411 44<80.0007 501.999>
CounterMasks: 1 e0
LayerCount: 2
Fore
SplineSet
102 159 m 2
 100 159 97 160 96 161 c 2
 82 175 l 2
 81 176 80 179 80 181 c 0
 80 183 81 186 82 187 c 2
 96 201 l 2
 97 202 100 203 102 203 c 2
 480 203 l 2
 482 203 485 202 486 201 c 2
 500 187 l 2
 501 186 502 183 502 181 c 0
 502 179 501 176 500 175 c 2
 486 161 l 2
 485 160 482 159 480 159 c 2
 102 159 l 2
102 285 m 2
 100 285 97 286 96 287 c 1
 82 301 l 2
 81 302 80 305 80 307 c 0
 80 309 81 312 82 313 c 2
 96 327 l 2
 97 328 100 329 102 329 c 2
 480 329 l 2
 482 329 485 328 486 327 c 2
 500 313 l 2
 501 312 502 309 502 307 c 0
 502 305 501 302 500 301 c 2
 486 287 l 2
 485 286 482 285 480 285 c 2
 102 285 l 2
102 411 m 2
 100 411 97 412 96 413 c 1
 82 427 l 2
 81 428 80 431 80 433 c 0
 80 435 81 438 82 439 c 2
 96 453 l 2
 97 454 100 455 102 455 c 2
 480 455 l 2
 482 455 485 454 486 453 c 2
 500 439 l 2
 501 438 502 435 502 433 c 0
 502 431 501 428 500 427 c 2
 486 413 l 2
 485 412 482 411 480 411 c 2
 102 411 l 2
EndSplineSet
Validated: 1
EndChar

StartChar: multiply
Encoding: 215 215 117
Width: 503
GlyphClass: 2
Flags: W
LayerCount: 2
Fore
SplineSet
417 487 m 0
 419 487 421 486 423 484 c 0
 438 470 l 2
 439 469 440 467 440 465 c 0
 440 463 439 461 437 459 c 2
 285 307 l 1
 437 155 l 2
 439 153 439 152 439 150 c 0
 439 148 438 145 437 144 c 1
 423 130 l 2
 422 129 419 128 417 128 c 0
 415 128 413 128 411 130 c 0
 397 144 397 144 260 282 c 1
 108 130 l 2
 106 128 103 127 101 127 c 0
 99 127 97 128 96 129 c 1
 82 143 l 2
 81 144 80 147 80 149 c 0
 80 151 80 153 82 155 c 2
 234 307 l 1
 82 459 l 2
 80 461 80 462 80 464 c 0
 80 466 81 469 82 470 c 2
 96 484 l 2
 97 485 100 486 102 486 c 0
 104 486 106 486 108 484 c 2
 260 332 l 1
 310 383 361 433 411 484 c 0
 413 486 415 487 417 487 c 0
EndSplineSet
Validated: 1
EndChar

StartChar: proportional
Encoding: 8733 8733 118
Width: 598
GlyphClass: 2
Flags: W
HStem: 190 44<198 226 482 564.999> 411 44<198 226 482 564.999>
VStem: 80 44<309 337>
LayerCount: 2
Fore
SplineSet
330 323 m 1
 302 365 l 1
 286 381 l 1
 226 411 l 1
 198 411 l 1
 148 387 l 1
 124 337 l 1
 124 309 l 1
 149 259 l 1
 198 234 l 1
 226 234 l 1
 286 265 l 1
 302 281 l 1
 330 323 l 1
228 190 m 2
 196 190 l 2
 195 190 194 190 193 191 c 0
 128 224 128 224 126 226 c 2
 112 240 l 1
 81 303 l 2
 80 304 80 306 80 307 c 2
 80 338 l 2
 80 339 80 341 81 342 c 2
 112 405 l 1
 118 411 124 417 130 423 c 1
 193 454 l 2
 194 455 195 455 196 455 c 2
 228 455 l 2
 229 455 231 455 232 454 c 2
 295 423 l 1
 311 407 326 392 342 376 c 0
 343 375 343 375 343 374 c 2
 354 358 l 1
 365 374 l 2
 365 375 365 375 413 423 c 1
 476 454 l 2
 477 455 479 455 480 455 c 2
 543 455 l 2
 545 455 548 454 549 453 c 2
 563 439 l 2
 564 438 565 435 565 433 c 0
 565 431 564 428 563 427 c 2
 549 413 l 2
 548 412 545 411 543 411 c 2
 482 411 l 1
 422 381 l 1
 406 365 l 1
 378 323 l 1
 406 281 l 1
 422 265 l 1
 482 234 l 1
 543 234 l 2
 545 234 548 233 549 232 c 2
 563 218 l 2
 564 217 565 214 565 212 c 0
 565 210 564 207 563 206 c 2
 549 192 l 2
 548 191 545 190 543 190 c 2
 480 190 l 2
 479 190 477 190 476 191 c 2
 413 223 l 2
 412 223 412 223 380 256 c 0
 380 256 379 256 365 270 c 0
 365 271 l 2
 354 287 l 1
 343 271 l 2
 343 270 l 0
 329 256 328 256 328 256 c 0
 318 245 308 235 297 224 c 0
 296 223 296 223 295 223 c 2
 232 191 l 2
 231 190 229 190 228 190 c 2
EndSplineSet
Validated: 1
EndChar

StartChar: arrowright
Encoding: 8594 8594 119
Width: 566
GlyphClass: 2
Flags: W
HStem: 285 44<80.0007 401>
LayerCount: 2
Fore
SplineSet
102 285 m 2
 100 285 97 286 96 287 c 1
 82 301 l 2
 81 302 80 305 80 307 c 0
 80 309 81 312 82 313 c 2
 96 327 l 2
 97 328 100 329 102 329 c 2
 401 329 l 1
 334 396 l 2
 333 397 332 399 332 401 c 0
 332 403 333 406 335 408 c 2
 349 422 l 2
 350 423 352 424 354 424 c 0
 356 424 358 423 360 421 c 0
 370 411 381 400 391 390 c 1
 485 327 485 327 486 326 c 2
 500 312 l 2
 502 310 503 309 503 307 c 0
 503 304 502 304 485 287 c 0
 484 286 484 286 391 224 c 1
 360 193 l 2
 358 191 356 190 354 190 c 0
 352 190 350 191 349 192 c 2
 335 206 l 2
 333 208 332 211 332 213 c 0
 332 215 333 217 334 218 c 0
 401 285 401 285 401 285 c 1
 102 285 l 2
EndSplineSet
Validated: 1
EndChar

StartChar: arrowleft
Encoding: 8592 8592 120
Width: 566
GlyphClass: 2
Flags: W
HStem: 285 44<181 501.999>
LayerCount: 2
Fore
SplineSet
229 424 m 0
 231 424 233 423 234 422 c 2
 248 408 l 2
 249 407 250 404 250 402 c 0
 250 400 250 398 248 396 c 2
 181 329 l 1
 480 329 l 2
 482 329 485 328 486 327 c 2
 500 313 l 2
 501 312 502 309 502 307 c 0
 502 305 501 302 500 301 c 2
 486 287 l 2
 485 286 482 285 480 285 c 2
 181 285 l 1
 248 218 l 2
 250 216 250 215 250 213 c 0
 250 211 249 208 248 207 c 2
 234 193 l 2
 233 192 230 191 228 191 c 0
 226 191 224 191 222 193 c 0
 212 203 201 214 191 224 c 1
 97 286 l 1
 83 300 l 2
 81 302 80 304 80 307 c 0
 80 310 81 312 83 314 c 2
 97 328 l 1
 191 390 l 1
 222 421 l 2
 224 423 227 424 229 424 c 0
EndSplineSet
Validated: 1
EndChar

StartChar: arrowdown
Encoding: 8595 8595 121
Width: 315
GlyphClass: 2
Flags: W
VStem: 144 44<197 517.999>
LayerCount: 2
Fore
SplineSet
49 244 m 0
 49 246 50 249 51 250 c 2
 65 264 l 2
 66 265 68 266 70 266 c 0
 72 266 75 266 77 264 c 2
 144 197 l 1
 144 496 l 2
 144 498 145 501 146 502 c 2
 160 516 l 2
 161 517 164 518 166 518 c 0
 168 518 171 517 172 516 c 0
 186 502 l 2
 187 501 188 498 188 496 c 2
 188 197 l 1
 194 203 253 263 254 264 c 0
 256 266 258 267 260 267 c 0
 262 267 264 265 265 264 c 2
 280 250 l 2
 282 248 282 247 282 244 c 0
 282 242 281 240 280 238 c 0
 270 228 259 217 249 207 c 1
 186 114 l 2
 185 112 186 112 171 97 c 0
 170 96 168 96 166 96 c 0
 164 96 161 97 160 98 c 0
 145 113 145 113 145 114 c 2
 82 207 l 1
 51 238 l 2
 50 240 49 242 49 244 c 0
EndSplineSet
Validated: 1
EndChar

StartChar: angleleft
Encoding: 9001 9001 122
Width: 314
GlyphClass: 2
Flags: W
VStem: 80 170
LayerCount: 2
Fore
SplineSet
226 644 m 0
 228 644 232 644 234 642 c 2
 248 627 l 2
 249 626 250 625 250 623 c 0
 250 622 249 620 249 619 c 2
 125 307 l 1
 249 -5 l 2
 249 -6 250 -8 250 -9 c 0
 250 -11 249 -12 248 -13 c 1
 234 -28 l 2
 232 -30 228 -30 226 -30 c 0
 225 -30 224 -30 223 -29 c 0
 209 -15 l 2
 208 -14 208 -13 207 -11 c 0
 80 306 80 306 80 307 c 0
 80 308 80 308 207 625 c 0
 208 627 208 628 209 629 c 2
 223 643 l 2
 224 644 225 644 226 644 c 0
EndSplineSet
Validated: 1
EndChar

StartChar: angleright
Encoding: 9002 9002 123
Width: 314
GlyphClass: 2
Flags: W
VStem: 80 170
LayerCount: 2
Fore
SplineSet
80 623 m 0
 80 625 81 626 82 627 c 2
 96 642 l 2
 98 644 103 644 104 644 c 0
 105 644 106 644 107 643 c 2
 121 629 l 2
 122 628 122 627 123 625 c 0
 250 308 250 308 250 307 c 0
 250 306 250 306 123 -11 c 0
 122 -13 122 -14 121 -15 c 2
 107 -29 l 2
 106 -30 105 -30 104 -30 c 0
 102 -30 98 -30 96 -28 c 2
 82 -13 l 2
 81 -12 80 -11 80 -9 c 0
 80 -8 81 -6 81 -5 c 1
 205 307 l 1
 81 619 l 2
 81 620 80 622 80 623 c 0
EndSplineSet
Validated: 1
EndChar

StartChar: gradient
Encoding: 8711 8711 124
Width: 566
GlyphClass: 2
Flags: W
HStem: 663 44<71 511>
VStem: 270 42<1.00073 21>
LayerCount: 2
Fore
SplineSet
543 707 m 2
 545 707 548 706 549 705 c 0
 563 691 l 2
 564 690 565 687 565 685 c 0
 565 684 565 683 564 682 c 2
 312 21 l 2
 312 19 311 18 310 17 c 2
 296 3 l 2
 295 2 293 1 291 1 c 0
 289 1 287 2 286 3 c 0
 272 17 l 2
 271 18 270 19 270 21 c 2
 18 682 l 2
 17 683 17 684 17 685 c 0
 17 687 18 690 19 691 c 2
 33 705 l 2
 34 706 37 707 39 707 c 2
 543 707 l 2
291 83 m 1
 511 663 l 1
 71 663 l 1
 291 83 l 1
EndSplineSet
Validated: 1
EndChar

StartChar: angle
Encoding: 8736 8736 125
Width: 755
GlyphClass: 2
Flags: W
HStem: 2 44<142 690.999>
LayerCount: 2
Fore
SplineSet
668 833 m 0
 670 833 672 833 674 831 c 2
 688 816 l 2
 689 815 691 813 691 811 c 0
 691 809 690 808 689 806 c 2
 142 46 l 1
 669 46 l 2
 671 46 674 45 675 44 c 1
 689 30 l 2
 690 29 691 26 691 24 c 0
 691 22 690 19 689 18 c 2
 675 4 l 2
 674 3 671 2 669 2 c 0
 102 2 102 2 102 2 c 2
 100 2 98 3 97 4 c 1
 83 18 l 2
 81 20 80 22 80 24 c 0
 80 25 81 27 81 28 c 0
 648 816 649 817 649 817 c 2
 663 831 l 2
 665 833 666 833 668 833 c 0
EndSplineSet
Validated: 1
EndChar

StartChar: therefore
Encoding: 8756 8756 126
Width: 818
GlyphClass: 2
Flags: W
LayerCount: 2
Fore
SplineSet
754 55 m 0
 754 53 754 51 752 49 c 0
 737 34 721 19 706 4 c 0
 704 2 702 1 700 1 c 0
 698 1 698 1 690 9 c 0
 676 22 663 35 649 49 c 0
 647 51 647 53 647 55 c 0
 647 57 647 59 649 61 c 0
 664 76 680 91 695 106 c 0
 696 107 699 108 701 108 c 0
 703 108 705 107 706 106 c 0
 721 91 737 76 752 61 c 0
 754 59 754 57 754 55 c 0
187 55 m 0
 187 53 187 51 185 49 c 0
 170 34 154 19 139 4 c 0
 137 2 135 1 133 1 c 0
 131 1 131 1 123 9 c 0
 109 22 96 35 82 49 c 0
 80 51 80 53 80 55 c 0
 80 57 80 59 82 61 c 0
 97 76 113 91 128 106 c 0
 129 107 132 108 134 108 c 0
 136 108 138 107 139 106 c 0
 154 91 170 76 185 61 c 0
 187 59 187 57 187 55 c 0
471 559 m 0
 471 557 470 555 468 553 c 0
 453 538 438 523 423 508 c 0
 421 506 419 505 417 505 c 2
 411 508 l 1
 396 523 381 538 366 553 c 0
 364 555 363 557 363 559 c 0
 363 561 364 563 366 565 c 0
 381 580 396 595 411 610 c 0
 413 611 415 612 417 612 c 0
 419 612 421 611 423 610 c 0
 438 595 453 580 468 565 c 0
 470 563 471 561 471 559 c 0
700 49 m 1
 706 55 l 1
 700 61 l 1
 694 55 l 1
 700 49 l 1
133 49 m 1
 139 55 l 1
 133 61 l 1
 127 55 l 1
 133 49 l 1
417 553 m 1
 423 559 l 1
 417 565 l 1
 411 559 l 1
 417 553 l 1
EndSplineSet
Validated: 1
EndChar

StartChar: perpendicular
Encoding: 8869 8869 127
Width: 755
GlyphClass: 2
Flags: W
HStem: 2 44<80.0007 364 408 690.999>
VStem: 364 44<46 832.999>
LayerCount: 2
Fore
SplineSet
102 2 m 2
 100 2 97 3 96 4 c 1
 82 18 l 2
 81 19 80 22 80 24 c 0
 80 26 81 29 82 30 c 2
 96 44 l 2
 97 45 100 46 102 46 c 2
 364 46 l 1
 364 811 l 2
 364 813 365 816 366 817 c 2
 380 831 l 2
 381 832 384 833 386 833 c 0
 388 833 391 832 392 831 c 2
 406 817 l 2
 407 816 408 813 408 811 c 2
 408 46 l 1
 669 46 l 2
 671 46 674 45 675 44 c 1
 689 30 l 2
 690 29 691 26 691 24 c 0
 691 22 690 19 689 18 c 2
 675 4 l 2
 674 3 671 2 669 2 c 0
 102 2 102 2 102 2 c 2
EndSplineSet
Validated: 1
EndChar

StartChar: existential
Encoding: 8707 8707 128
Width: 598
GlyphClass: 2
Flags: W
HStem: 2 44<49.0007 458> 348 44<206.001 458> 663 44<49.0007 458>
VStem: 458 44<46 348 392 663>
LayerCount: 2
Fore
SplineSet
71 2 m 2
 69 2 66 3 65 4 c 1
 51 18 l 2
 50 19 49 22 49 24 c 0
 49 26 50 29 51 30 c 1
 65 44 l 2
 66 45 69 46 71 46 c 2
 458 46 l 1
 458 348 l 1
 228 348 l 2
 226 348 223 349 222 350 c 2
 208 364 l 2
 207 365 206 368 206 370 c 0
 206 372 207 375 208 376 c 2
 222 390 l 2
 223 391 226 392 228 392 c 2
 458 392 l 1
 458 663 l 1
 71 663 l 2
 69 663 66 664 65 665 c 1
 51 679 l 2
 50 680 49 683 49 685 c 0
 49 687 50 690 51 691 c 2
 65 705 l 2
 66 706 69 707 71 707 c 2
 480 707 l 2
 482 707 485 706 486 705 c 2
 500 691 l 2
 501 690 502 687 502 685 c 2
 502 24 l 2
 502 22 501 19 500 18 c 2
 486 4 l 2
 485 3 482 2 480 2 c 0
 71 2 71 2 71 2 c 2
EndSplineSet
Validated: 1
EndChar

StartChar: Alpha
Encoding: 913 913 129
Width: 566
Flags: W
HStem: 222 44<155 427>
LayerCount: 2
Fore
SplineSet
292 707 m 0
 294 707 296 706 297 705 c 0
 312 690 312 690 313 688 c 2
 565 26 l 1
 565 26 565 24 565 23 c 0
 565 21 566 20 564 18 c 2
 549 4 l 2
 548 3 546 2 542 2 c 0
 540 2 539 3 538 4 c 0
 523 19 523 19 522 21 c 2
 445 222 l 1
 137 222 l 1
 61 21 l 2
 60 19 60 19 45 4 c 0
 44 3 42 2 40 2 c 0
 37 2 35 2 33 4 c 0
 19 18 l 2
 18 19 17 20 17 22 c 0
 17 23 17 25 18 26 c 0
 270 688 l 2
 270 690 271 690 286 705 c 0
 287 706 289 707 292 707 c 0
155 266 m 1
 427 266 l 1
 291 626 l 1
 155 266 l 1
EndSplineSet
Validated: 1
EndChar

StartChar: Beta
Encoding: 914 914 130
Width: 661
Flags: W
HStem: 2 44<156 437.982> 348 44<156 416> 663 44<156 416>
VStem: 112 44<46 348 392 663> 553 44<151 242 498 557>
LayerCount: 2
Fore
SplineSet
156 392 m 1
 416 392 l 1
 507 422 l 1
 523 438 l 1
 553 498 l 1
 553 557 l 1
 523 617 l 1
 507 633 l 1
 416 663 l 1
 156 663 l 1
 156 392 l 1
597 244 m 2
 597 150 l 2
 597 149 597 147 596 146 c 2
 565 83 l 1
 515 33 l 1
 420 2 l 1
 134 2 l 2
 132 2 129 3 128 4 c 1
 114 18 l 2
 113 19 112 22 112 24 c 0
 112 685 112 685 112 685 c 2
 112 687 113 690 114 691 c 2
 128 705 l 2
 129 706 132 707 134 707 c 2
 420 707 l 1
 515 675 l 2
 516 674 517 674 518 673 c 0
 534 657 549 642 565 626 c 1
 596 563 l 2
 597 562 597 560 597 559 c 2
 597 496 l 2
 597 495 597 493 596 492 c 2
 565 429 l 1
 517 381 517 381 516 381 c 0
 515 380 l 2
 485 370 l 1
 515 360 l 2
 516 359 517 359 518 358 c 0
 534 342 549 327 565 311 c 1
 596 248 l 2
 597 247 597 245 597 244 c 2
156 348 m 1
 156 46 l 1
 416 46 l 1
 508 76 l 1
 523 91 l 1
 553 151 l 1
 553 242 l 1
 523 302 l 1
 507 318 l 1
 416 348 l 1
 156 348 l 1
EndSplineSet
Validated: 1
EndChar

StartChar: Chi
Encoding: 935 935 131
Width: 629
Flags: W
LayerCount: 2
Fore
SplineSet
80 24 m 0
 80 25 81 27 81 28 c 2
 299 354 l 1
 81 681 l 2
 81 682 80 684 80 685 c 0
 80 687 81 689 83 691 c 2
 97 705 l 2
 98 706 100 707 102 707 c 0
 104 707 105 707 107 705 c 0
 122 690 122 690 123 689 c 2
 323 390 l 1
 522 689 523 690 523 690 c 2
 537 704 l 2
 539 706 541 706 544 706 c 0
 545 706 548 705 549 704 c 0
 563 690 l 2
 564 689 565 687 565 685 c 0
 565 684 565 683 564 681 c 0
 346 354 l 1
 564 28 l 2
 564 27 565 25 565 24 c 0
 565 22 565 20 563 18 c 2
 548 3 l 2
 547 2 546 2 544 2 c 0
 541 2 539 2 536 5 c 2
 522 19 l 1
 323 319 l 1
 123 18 123 19 122 18 c 2
 108 4 l 2
 106 2 104 2 102 2 c 0
 100 2 98 3 97 4 c 1
 83 18 l 2
 81 20 80 22 80 24 c 0
EndSplineSet
Validated: 1
EndChar

StartChar: uni0394
Encoding: 916 916 132
Width: 566
Flags: W
HStem: 2 44<71 511>
LayerCount: 2
Fore
SplineSet
39 2 m 2
 37 2 34 3 33 4 c 1
 19 18 l 2
 18 19 17 22 17 24 c 0
 17 25 17 25 18 26 c 2
 270 688 l 2
 271 690 271 690 286 705 c 0
 287 706 289 707 291 707 c 0
 293 707 295 706 296 705 c 0
 311 690 311 690 312 688 c 2
 564 26 l 2
 565 25 565 25 565 24 c 0
 565 22 564 19 563 18 c 2
 549 4 l 2
 548 3 545 2 543 2 c 0
 39 2 39 2 39 2 c 2
71 46 m 1
 511 46 l 1
 291 626 l 1
 71 46 l 1
EndSplineSet
Validated: 1
EndChar

StartChar: Epsilon
Encoding: 917 917 133
Width: 598
Flags: W
HStem: 2 44<156 565.999> 348 44<156 407.999> 663 44<156 565.999>
VStem: 112 44<46 348 392 663>
LayerCount: 2
Fore
SplineSet
134 707 m 2
 544 707 l 2
 546 707 549 706 550 705 c 1
 564 691 l 2
 565 690 566 687 566 685 c 0
 566 683 565 680 564 679 c 2
 550 665 l 2
 549 664 546 663 544 663 c 2
 156 663 l 1
 156 392 l 1
 386 392 l 2
 388 392 391 391 392 390 c 2
 406 376 l 2
 407 375 408 372 408 370 c 0
 408 368 407 365 406 364 c 2
 392 350 l 2
 391 349 388 348 386 348 c 2
 156 348 l 1
 156 46 l 1
 544 46 l 2
 546 46 549 45 550 44 c 2
 564 30 l 2
 565 29 566 26 566 24 c 0
 566 22 565 19 564 18 c 2
 550 4 l 2
 549 3 546 2 544 2 c 2
 134 2 l 2
 132 2 129 3 128 4 c 1
 114 18 l 2
 113 19 112 22 112 24 c 0
 112 685 112 685 112 685 c 2
 112 687 113 690 114 691 c 2
 128 705 l 2
 129 706 132 707 134 707 c 2
EndSplineSet
Validated: 1
EndChar

StartChar: Phi
Encoding: 934 934 134
Width: 629
Flags: W
HStem: 159 44<261 300 344 384> 506 44<261 300 344 384>
VStem: 80 44<309 400> 300 44<2.00073 159 203 506 550 706.999> 521 44<309 400>
LayerCount: 2
Fore
SplineSet
260 550 m 2
 300 550 l 1
 300 685 l 2
 300 687 301 690 302 691 c 2
 316 705 l 2
 317 706 320 707 322 707 c 0
 324 707 327 706 328 705 c 0
 342 691 l 2
 343 690 344 687 344 685 c 2
 344 550 l 1
 386 550 l 2
 387 550 387 550 388 549 c 2
 483 518 l 2
 484 517 485 517 486 516 c 0
 502 500 517 484 533 468 c 1
 564 405 l 2
 565 404 565 403 565 402 c 2
 565 307 l 2
 565 306 565 304 564 303 c 2
 533 240 l 1
 485 192 485 192 484 192 c 0
 483 191 l 2
 388 159 l 1
 344 159 l 1
 344 24 l 2
 344 22 343 19 342 18 c 2
 328 4 l 2
 327 3 324 2 322 2 c 0
 320 2 317 3 316 4 c 1
 302 18 l 2
 301 19 300 22 300 24 c 2
 300 159 l 1
 257 159 l 1
 162 191 l 2
 161 192 160 192 159 193 c 0
 143 209 128 224 112 240 c 1
 81 303 l 2
 80 304 80 306 80 307 c 2
 80 402 l 2
 80 403 80 404 81 405 c 2
 112 468 l 1
 162 518 l 1
 257 549 l 2
 258 550 259 550 260 550 c 2
300 203 m 1
 300 506 l 1
 261 506 l 1
 169 475 l 1
 154 460 l 1
 124 400 l 1
 124 309 l 1
 154 249 l 1
 170 233 l 1
 261 203 l 1
 300 203 l 1
344 506 m 1
 344 203 l 1
 384 203 l 1
 475 233 l 1
 491 249 l 1
 521 309 l 1
 521 400 l 1
 491 460 l 1
 476 475 l 1
 384 506 l 1
 344 506 l 1
EndSplineSet
Validated: 1
EndChar

StartChar: Gamma
Encoding: 915 915 135
Width: 535
Flags: W
HStem: 663 44<156 533.999>
VStem: 112 44<2.00073 663>
LayerCount: 2
Fore
SplineSet
134 707 m 2
 512 707 l 2
 514 707 517 706 518 705 c 2
 532 691 l 2
 533 690 534 687 534 685 c 0
 534 683 533 680 532 679 c 2
 518 665 l 2
 517 664 514 663 512 663 c 2
 156 663 l 1
 156 24 l 2
 156 22 155 19 154 18 c 2
 140 4 l 2
 139 3 136 2 134 2 c 0
 132 2 129 3 128 4 c 1
 114 18 l 2
 113 19 112 22 112 24 c 0
 112 685 112 685 112 685 c 2
 112 687 113 690 114 691 c 2
 128 705 l 2
 129 706 132 707 134 707 c 2
EndSplineSet
Validated: 1
EndChar

StartChar: Eta
Encoding: 919 919 136
Width: 693
Flags: W
HStem: 348 44<156 553>
VStem: 112 44<2.00073 348 392 706.999> 553 44<2.00073 348 392 706.999>
LayerCount: 2
Fore
SplineSet
575 707 m 0
 577 707 580 706 581 705 c 2
 595 691 l 2
 596 690 597 687 597 685 c 2
 597 24 l 2
 597 22 596 19 595 18 c 2
 581 4 l 2
 580 3 577 2 575 2 c 0
 573 2 570 3 569 4 c 2
 555 18 l 2
 554 19 553 22 553 24 c 2
 553 348 l 1
 156 348 l 1
 156 24 l 2
 156 22 155 19 154 18 c 2
 140 4 l 2
 139 3 136 2 134 2 c 0
 132 2 129 3 128 4 c 1
 114 18 l 2
 113 19 112 22 112 24 c 0
 112 685 112 685 112 685 c 2
 112 687 113 690 114 691 c 2
 128 705 l 2
 129 706 132 707 134 707 c 0
 136 707 139 706 140 705 c 0
 154 691 l 2
 155 690 156 687 156 685 c 2
 156 392 l 1
 553 392 l 1
 553 685 l 2
 553 687 554 690 555 691 c 2
 569 705 l 2
 570 706 573 707 575 707 c 0
EndSplineSet
Validated: 1
EndChar

StartChar: Iota
Encoding: 921 921 137
Width: 252
Flags: W
VStem: 112 44<2.00073 706.999>
LayerCount: 2
Fore
SplineSet
134 707 m 0
 136 707 139 706 140 705 c 0
 154 691 l 2
 155 690 156 687 156 685 c 0
 156 24 156 24 156 24 c 2
 156 22 155 19 154 18 c 2
 140 4 l 2
 139 3 136 2 134 2 c 0
 132 2 129 3 128 4 c 1
 114 18 l 2
 113 19 112 22 112 24 c 0
 112 685 112 685 112 685 c 2
 112 687 113 690 114 691 c 2
 128 705 l 2
 129 706 132 707 134 707 c 0
EndSplineSet
Validated: 1
EndChar

StartChar: theta1
Encoding: 977 977 138
Width: 661
Flags: W
HStem: 2 44<263 321> 442 44<137 193> 663 44<398 447>
VStem: 175 44<120 248.071> 206 44<339.762 429> 332 44<560 620> 521 44<428.225 558>
LayerCount: 2
Fore
SplineSet
398 663 m 1xe6
 376 620 l 1
 376 560 l 1
 407 468 l 1
 469 375 l 1
 498 347 l 1
 521 465 l 1
 521 558 l 1
 494 640 l 1
 447 663 l 1
 398 663 l 1xe6
332 622 m 2
 332 623 332 625 333 626 c 0
 364 690 364 689 365 690 c 2
 379 705 l 2
 381 707 384 707 386 707 c 2
 449 707 l 2
 450 707 451 707 452 706 c 0
 516 675 516 675 517 674 c 0
 532 659 532 659 533 656 c 2
 565 562 l 1
 565 463 l 1
 535 315 l 1
 611 264 611 265 612 264 c 1
 626 250 l 2
 628 248 629 246 629 244 c 0
 629 242 627 240 626 239 c 2
 612 224 l 2
 611 223 609 222 606 222 c 0
 605 222 604 222 602 223 c 2
 524 276 l 1
 502 210 l 1
 501 209 l 1
 470 146 l 2
 469 145 407 52 403 48 c 2
 389 34 l 1
 326 2 l 1
 260 2 l 2
 257 2 255 3 254 4 c 0
 239 19 223 34 208 49 c 0
 207 50 207 50 207 51 c 2
 175 114 l 1
 175 214 l 1xf6
 206 371 l 1
 206 429 l 1
 193 442 l 1
 137 442 l 1
 91 397 l 1
 60 334 60 334 59 333 c 2
 45 319 l 2
 44 318 41 317 39 317 c 0
 37 317 35 317 33 319 c 1
 18 334 l 2
 17 335 17 336 17 338 c 0
 17 339 17 341 18 342 c 2
 49 405 l 1
 128 484 l 2
 129 485 131 486 134 486 c 2
 197 486 l 2
 199 486 201 485 202 484 c 0
 217 469 233 454 248 439 c 0
 249 437 250 435 250 433 c 2
 250 368 l 1xee
 219 212 l 1
 219 120 l 1xf6
 249 60 l 1
 263 46 l 1
 321 46 l 1
 373 72 l 1
 428 154 l 1
 459 216 l 1
 488 305 l 1
 429 364 l 2
 428 365 428 365 428 366 c 2
 365 460 l 2
 364 461 364 461 364 462 c 2
 332 556 l 1
 332 622 l 2
EndSplineSet
Validated: 1
EndChar

StartChar: Kappa
Encoding: 922 922 139
Width: 661
Flags: W
VStem: 112 44<2.00073 241 291 706.999>
LayerCount: 2
Fore
SplineSet
574 707 m 0
 576 707 578 706 580 704 c 2
 594 690 l 2
 596 688 597 686 597 684 c 0
 597 682 596 681 595 679 c 0
 502 586 409 494 316 401 c 1
 595 28 l 2
 596 26 597 24 597 22 c 0
 597 20 596 19 595 18 c 1
 581 4 l 2
 580 3 578 2 576 2 c 0
 574 2 572 2 570 4 c 0
 555 19 556 18 555 19 c 2
 289 373 l 1
 156 241 l 1
 156 24 l 2
 156 22 155 19 154 18 c 2
 140 4 l 2
 139 3 136 2 134 2 c 0
 132 2 129 3 128 4 c 1
 114 18 l 2
 113 19 112 22 112 24 c 0
 112 685 112 685 112 685 c 2
 112 687 113 690 114 691 c 2
 128 705 l 2
 129 706 132 707 134 707 c 0
 136 707 139 706 140 705 c 0
 154 691 l 2
 155 690 156 687 156 685 c 2
 156 291 l 1
 294 429 431 567 569 705 c 0
 571 706 572 707 574 707 c 0
EndSplineSet
Validated: 1
EndChar

StartChar: Lambda
Encoding: 923 923 140
Width: 566
Flags: W
LayerCount: 2
Fore
SplineSet
292 707 m 0
 294 707 296 706 297 705 c 0
 312 690 312 690 313 688 c 2
 565 26 l 1
 565 26 565 24 565 23 c 0
 565 21 566 20 564 18 c 2
 549 4 l 2
 548 3 546 2 542 2 c 0
 540 2 539 3 538 4 c 0
 523 19 523 19 522 21 c 2
 291 626 l 1
 61 21 l 2
 60 19 60 19 45 4 c 0
 44 3 42 2 40 2 c 0
 37 2 35 2 33 4 c 0
 19 18 l 2
 18 19 17 20 17 22 c 0
 17 23 17 25 18 26 c 0
 270 688 l 2
 270 690 271 690 286 705 c 0
 287 706 289 707 292 707 c 0
EndSplineSet
Validated: 1
EndChar

StartChar: Mu
Encoding: 924 924 141
Width: 756
Flags: W
VStem: 112 44<2.00073 568> 365 42<1.00073 21> 616 44<2.00073 568>
CounterMasks: 1 e0
LayerCount: 2
Fore
SplineSet
638 707 m 0
 640 707 643 706 644 705 c 2
 658 691 l 2
 659 690 660 687 660 685 c 2
 660 24 l 2
 660 22 659 19 658 18 c 2
 644 4 l 2
 643 3 640 2 638 2 c 0
 636 2 633 3 632 4 c 1
 618 18 l 2
 617 19 616 22 616 24 c 2
 616 568 l 1
 407 21 l 2
 407 19 406 18 405 17 c 2
 391 3 l 2
 390 2 388 1 386 1 c 0
 384 1 382 2 381 3 c 1
 367 17 l 2
 366 18 365 19 365 21 c 2
 156 568 l 1
 156 24 l 2
 156 22 155 19 154 18 c 2
 140 4 l 2
 139 3 136 2 134 2 c 0
 132 2 129 3 128 4 c 1
 114 18 l 2
 113 19 112 22 112 24 c 0
 112 685 112 685 112 685 c 2
 112 687 113 690 114 691 c 2
 128 705 l 2
 129 706 132 707 134 707 c 0
 136 707 138 706 139 705 c 0
 154 690 154 690 155 688 c 2
 386 83 l 1
 617 688 l 2
 618 690 618 690 633 705 c 0
 634 706 636 707 638 707 c 0
EndSplineSet
Validated: 1
EndChar

StartChar: Nu
Encoding: 925 925 142
Width: 693
Flags: W
VStem: 112 44<2.00073 617> 553 44<92 706.999>
LayerCount: 2
Fore
SplineSet
112 685 m 2
 112 687 113 690 114 691 c 2
 128 705 l 2
 129 706 132 707 134 707 c 0
 136 707 137 707 139 705 c 0
 154 690 154 690 155 689 c 2
 553 92 l 1
 553 685 l 2
 553 687 554 690 555 691 c 2
 569 705 l 2
 570 706 573 707 575 707 c 0
 577 707 580 706 581 705 c 2
 595 691 l 2
 596 690 597 687 597 685 c 2
 597 24 l 2
 597 22 596 19 595 18 c 2
 581 4 l 2
 580 3 577 2 575 2 c 0
 572 2 570 3 568 5 c 2
 554 19 l 1
 156 617 l 1
 156 24 l 2
 156 22 155 19 154 18 c 2
 140 4 l 2
 139 3 136 2 134 2 c 0
 132 2 129 3 128 4 c 1
 114 18 l 2
 113 19 112 22 112 24 c 0
 112 685 112 685 112 685 c 2
EndSplineSet
Validated: 1
EndChar

StartChar: Omicron
Encoding: 927 927 143
Width: 692
Flags: W
HStem: 2 44<293 415> 663 44<293 415>
VStem: 80 44<277 432> 584 44<277 432>
LayerCount: 2
Fore
SplineSet
293 663 m 1
 233 633 l 1
 186 586 l 1
 155 524 l 1
 124 432 l 1
 124 277 l 1
 155 184 l 1
 186 123 l 1
 233 76 l 1
 293 46 l 1
 415 46 l 1
 475 76 l 1
 522 123 l 1
 553 184 l 1
 584 277 l 1
 584 432 l 1
 553 524 l 1
 522 586 l 1
 475 633 l 1
 415 663 l 1
 293 663 l 1
291 707 m 2
 417 707 l 2
 418 707 420 707 421 706 c 2
 484 675 l 1
 563 596 l 2
 564 595 564 595 564 594 c 2
 596 531 l 1
 596 530 l 1
 628 436 l 1
 628 273 l 1
 596 178 l 1
 596 177 l 1
 564 114 l 2
 564 113 564 113 563 112 c 0
 486 35 486 35 486 35 c 2
 485 34 485 34 484 34 c 2
 421 2 l 1
 287 2 l 1
 224 34 l 2
 223 34 223 34 222 35 c 0
 145 112 145 112 145 112 c 2
 144 113 144 113 144 114 c 2
 112 177 l 1
 112 178 l 1
 80 273 l 1
 80 436 l 1
 112 530 l 1
 112 531 l 1
 144 594 l 2
 144 595 144 595 145 596 c 0
 224 675 224 675 224 675 c 1
 287 706 l 2
 288 707 290 707 291 707 c 2
EndSplineSet
Validated: 1
EndChar

StartChar: Pi
Encoding: 928 928 144
Width: 693
Flags: W
HStem: 663 44<156 553>
VStem: 112 44<2.00073 663> 553 44<2.00073 663>
LayerCount: 2
Fore
SplineSet
156 24 m 2
 156 22 155 19 154 18 c 2
 140 4 l 2
 139 3 136 2 134 2 c 0
 132 2 129 3 128 4 c 1
 114 18 l 2
 113 19 112 22 112 24 c 0
 112 685 112 685 112 685 c 2
 112 687 113 690 114 691 c 2
 128 705 l 2
 129 706 132 707 134 707 c 2
 575 707 l 2
 577 707 580 706 581 705 c 2
 595 691 l 2
 596 690 597 687 597 685 c 2
 597 24 l 2
 597 22 596 19 595 18 c 2
 581 4 l 2
 580 3 577 2 575 2 c 0
 573 2 570 3 569 4 c 2
 555 18 l 2
 554 19 553 22 553 24 c 2
 553 663 l 1
 156 663 l 1
 156 24 l 2
EndSplineSet
Validated: 1
EndChar

StartChar: Theta
Encoding: 920 920 145
Width: 692
Flags: W
HStem: 2 44<293 415> 348 44<238.001 469.999> 663 44<293 415>
VStem: 80 44<277 432> 584 44<277 432>
LayerCount: 2
Fore
SplineSet
238 370 m 0
 238 372 239 375 240 376 c 2
 254 390 l 2
 255 391 258 392 260 392 c 2
 448 392 l 2
 450 392 453 391 454 390 c 1
 468 376 l 2
 469 375 470 372 470 370 c 0
 470 368 469 365 468 364 c 2
 454 350 l 2
 453 349 450 348 448 348 c 2
 260 348 l 2
 258 348 255 349 254 350 c 2
 240 364 l 2
 239 365 238 368 238 370 c 0
293 663 m 1
 233 633 l 1
 186 586 l 1
 155 524 l 1
 124 432 l 1
 124 277 l 1
 155 184 l 1
 186 123 l 1
 233 76 l 1
 293 46 l 1
 415 46 l 1
 475 76 l 1
 522 123 l 1
 553 184 l 1
 584 277 l 1
 584 432 l 1
 553 524 l 1
 522 586 l 1
 475 633 l 1
 415 663 l 1
 293 663 l 1
291 707 m 2
 417 707 l 2
 418 707 420 707 421 706 c 2
 484 675 l 1
 563 596 l 2
 564 595 564 595 564 594 c 2
 596 531 l 1
 596 530 l 1
 628 436 l 1
 628 273 l 1
 596 178 l 1
 596 177 l 1
 564 114 l 2
 564 113 564 113 563 112 c 0
 486 35 486 35 486 35 c 2
 485 34 485 34 484 34 c 2
 421 2 l 1
 287 2 l 1
 224 34 l 2
 223 34 223 34 222 35 c 0
 145 112 145 112 145 112 c 2
 144 113 144 113 144 114 c 2
 112 177 l 1
 112 178 l 1
 80 273 l 1
 80 436 l 1
 112 530 l 1
 112 531 l 1
 144 594 l 2
 144 595 144 595 145 596 c 0
 224 675 224 675 224 675 c 1
 287 706 l 2
 288 707 290 707 291 707 c 2
EndSplineSet
Validated: 1
EndChar

StartChar: Rho
Encoding: 929 929 146
Width: 661
Flags: W
HStem: 316 44<156 416> 663 44<156 416>
VStem: 112 44<2.00073 316 360 663> 553 44<466 557>
LayerCount: 2
Fore
SplineSet
134 707 m 2
 420 707 l 1
 515 675 l 2
 516 674 517 674 518 673 c 0
 534 657 549 642 565 626 c 1
 596 563 l 2
 597 562 597 560 597 559 c 2
 597 464 l 2
 597 463 597 462 596 461 c 2
 565 398 l 1
 515 348 l 1
 420 317 l 2
 419 316 419 316 418 316 c 2
 156 316 l 1
 156 24 l 2
 156 22 155 19 154 18 c 2
 140 4 l 2
 139 3 136 2 134 2 c 0
 132 2 129 3 128 4 c 1
 114 18 l 2
 113 19 112 22 112 24 c 0
 112 685 112 685 112 685 c 2
 112 687 113 690 114 691 c 2
 128 705 l 2
 129 706 132 707 134 707 c 2
156 663 m 1
 156 360 l 1
 416 360 l 1
 508 391 l 1
 523 406 l 1
 553 466 l 1
 553 557 l 1
 523 617 l 1
 507 633 l 1
 416 663 l 1
 156 663 l 1
EndSplineSet
Validated: 1
EndChar

StartChar: Sigma
Encoding: 931 931 147
Width: 567
Flags: W
HStem: 2 44<109 533.999> 663 44<110 533.999>
LayerCount: 2
Fore
SplineSet
49 685 m 0
 49 687 50 690 51 691 c 2
 65 705 l 2
 66 706 69 707 71 707 c 2
 512 707 l 2
 514 707 517 706 518 705 c 2
 532 691 l 2
 533 690 534 687 534 685 c 0
 534 683 533 680 532 679 c 2
 518 665 l 2
 517 664 514 663 512 663 c 2
 110 663 l 1
 312 375 l 2
 313 373 314 372 314 370 c 0
 314 368 313 368 312 366 c 2
 109 46 l 1
 512 46 l 2
 514 46 517 45 518 44 c 2
 532 30 l 2
 533 29 534 26 534 24 c 0
 534 22 533 19 532 18 c 2
 518 4 l 2
 517 3 514 2 512 2 c 2
 71 2 l 2
 69 2 66 3 65 4 c 1
 51 18 l 2
 50 19 49 22 49 24 c 0
 49 25 49 27 50 28 c 2
 268 370 l 1
 50 680 l 2
 49 681 49 683 49 685 c 0
EndSplineSet
Validated: 1
EndChar

StartChar: Tau
Encoding: 932 932 148
Width: 503
Flags: W
HStem: 663 44<17.0007 238 282 501.999>
VStem: 238 44<2.00073 663>
LayerCount: 2
Fore
SplineSet
17 685 m 0
 17 687 18 690 19 691 c 2
 33 705 l 2
 34 706 37 707 39 707 c 2
 480 707 l 2
 482 707 485 706 486 705 c 2
 500 691 l 2
 501 690 502 687 502 685 c 0
 502 683 501 680 500 679 c 2
 486 665 l 2
 485 664 482 663 480 663 c 2
 282 663 l 1
 282 24 l 2
 282 22 281 19 280 18 c 2
 266 4 l 2
 265 3 262 2 260 2 c 0
 258 2 255 3 254 4 c 2
 240 18 l 2
 239 19 238 22 238 24 c 2
 238 663 l 1
 39 663 l 2
 37 663 34 664 33 665 c 2
 19 679 l 2
 18 680 17 683 17 685 c 0
EndSplineSet
Validated: 1
EndChar

StartChar: Upsilon
Encoding: 933 933 149
Width: 567
Flags: W
HStem: 663 44<137 194 389 446>
VStem: 49 44<506.001 589> 270 44<2.00073 491.776> 490 44<506.001 589>
LayerCount: 2
Fore
SplineSet
512 506 m 0
 510 506 507 507 506 508 c 1
 492 522 l 2
 491 523 490 526 490 528 c 2
 490 589 l 1
 460 649 l 1
 446 663 l 1
 389 663 l 1
 375 649 l 1
 345 588 l 1
 314 464 l 1
 314 24 l 2
 314 22 313 19 312 18 c 2
 298 4 l 2
 297 3 294 2 292 2 c 0
 290 2 287 3 286 4 c 1
 272 18 l 2
 271 19 270 22 270 24 c 2
 270 464 l 1
 238 588 l 1
 208 649 l 1
 194 663 l 1
 137 663 l 1
 123 649 l 1
 93 589 l 1
 93 528 l 2
 93 526 92 523 91 522 c 2
 77 508 l 2
 76 507 73 506 71 506 c 0
 69 506 66 507 65 508 c 2
 51 522 l 2
 50 523 49 526 49 528 c 2
 49 590 l 2
 49 591 49 593 50 594 c 2
 81 657 l 1
 86 662 99 676 128 705 c 0
 130 706 132 707 134 707 c 2
 197 707 l 2
 199 707 201 706 203 705 c 0
 219 689 234 673 250 657 c 1
 281 594 l 2
 282 593 282 593 282 592 c 2
 292 554 l 1
 301 592 l 2
 301 593 301 593 302 594 c 2
 333 657 l 2
 333 657 356 681 380 705 c 0
 382 706 384 707 386 707 c 2
 449 707 l 2
 451 707 453 706 455 705 c 0
 471 689 486 673 502 657 c 1
 533 594 l 2
 534 593 534 591 534 590 c 2
 534 528 l 2
 534 526 533 523 532 522 c 2
 518 508 l 2
 517 507 514 506 512 506 c 0
EndSplineSet
Validated: 1
EndChar

StartChar: sigma1
Encoding: 962 962 150
Width: 566
Flags: W
HStem: -124 44<238.001 319> 442 44<261 352>
VStem: 100 46<276 336> 332 44<-67 -10>
LayerCount: 2
Fore
SplineSet
354 486 m 2
 355 486 355 487 356 487 c 0
 357 487 365 482 425 452 c 0
 426 451 427 451 428 450 c 0
 455 424 465 408 493 380 c 0
 493 380 503 370 503 369 c 0
 503 367 503 367 487 351 c 0
 485 349 482 348 479 348 c 0
 477 348 476 349 474 350 c 2
 412 412 l 1
 352 442 l 1
 261 442 l 1
 191 411 l 1
 176 396 l 1
 146 336 l 1
 146 276 l 1
 175 218 l 1
 328 75 l 2
 333 70 339 64 344 59 c 1
 375 -4 l 2
 376 -5 376 -7 376 -8 c 2
 376 -71 l 2
 376 -73 375 -75 374 -77 c 0
 359 -92 343 -107 328 -122 c 0
 327 -123 325 -124 322 -124 c 2
 260 -124 l 2
 258 -124 255 -123 254 -122 c 2
 240 -108 l 2
 239 -107 238 -104 238 -102 c 0
 238 -100 239 -97 240 -96 c 2
 254 -82 l 2
 255 -81 258 -80 260 -80 c 2
 319 -80 l 1
 332 -67 l 1
 332 -10 l 1
 303 48 l 1
 212 133 l 2
 211 133 l 2
 197 147 l 2
 197 148 l 2
 132 213 l 1
 101 276 l 2
 100 277 100 279 100 280 c 2
 100 342 l 2
 100 343 100 345 101 346 c 2
 132 409 l 1
 182 459 l 1
 257 486 l 1
 354 486 l 2
EndSplineSet
Validated: 1
EndChar

StartChar: uni03A9
Encoding: 937 937 151
Width: 629
Flags: W
HStem: 2 44<80.0007 196 449 564.999> 663 44<292 353>
VStem: 80 44<342.328 495> 521 44<342.328 495>
LayerCount: 2
Fore
SplineSet
80 24 m 0
 80 26 81 29 82 30 c 2
 96 44 l 2
 97 45 100 46 102 46 c 2
 196 46 l 1
 112 241 l 1
 112 242 l 1
 80 368 l 1
 80 499 l 1
 112 593 l 2
 103 584 l 0
 103 584 118 600 191 673 c 0
 192 674 193 674 194 675 c 2
 288 707 l 1
 357 707 l 1
 451 675 l 2
 442 684 l 0
 442 684 458 669 531 596 c 0
 532 595 532 594 533 593 c 2
 565 499 l 1
 565 368 l 1
 533 242 l 1
 533 241 l 1
 449 46 l 1
 543 46 l 2
 545 46 548 45 549 44 c 2
 563 30 l 2
 564 29 565 26 565 24 c 0
 565 22 564 19 563 18 c 2
 549 4 l 2
 548 3 545 2 543 2 c 0
 417 2 417 2 417 2 c 1
 417 2 413 2 411 4 c 1
 397 18 l 2
 396 19 395 21 395 23 c 0
 395 24 395 25 396 27 c 2
 490 247 l 1
 521 371 l 1
 521 495 l 1
 491 586 l 1
 444 633 l 1
 353 663 l 1
 292 663 l 1
 201 633 l 1
 154 586 l 1
 124 495 l 1
 124 371 l 1
 155 247 l 1
 249 27 l 2
 249 26 250 25 250 24 c 0
 250 22 249 20 248 19 c 0
 231 2 231 2 228 2 c 2
 102 2 l 2
 100 2 97 3 96 4 c 1
 82 18 l 2
 81 19 80 22 80 24 c 0
EndSplineSet
Validated: 1
EndChar

StartChar: Psi
Encoding: 936 936 152
Width: 693
Flags: W
HStem: 190 44<324 332 376 385> 474 44<49.0007 99 610 659.999>
VStem: 332 44<2.00073 190 234 706.999>
LayerCount: 2
Fore
SplineSet
49 496 m 0
 49 498 50 501 51 502 c 2
 65 516 l 2
 66 517 69 518 71 518 c 2
 102 518 l 2
 105 518 107 517 108 516 c 0
 123 501 139 485 154 470 c 1
 154 470 154 470 156 466 c 2
 187 341 l 1
 218 280 l 1
 233 265 l 1
 324 234 l 1
 332 234 l 1
 332 685 l 2
 332 687 333 690 334 691 c 2
 348 705 l 2
 349 706 352 707 354 707 c 0
 356 707 359 706 360 705 c 2
 374 691 l 2
 375 690 376 687 376 685 c 2
 376 234 l 1
 385 234 l 1
 476 265 l 1
 491 280 l 1
 522 341 l 1
 554 469 554 469 555 470 c 0
 570 485 586 501 601 516 c 0
 602 517 604 518 606 518 c 2
 638 518 l 2
 640 518 643 517 644 516 c 1
 658 502 l 2
 659 501 660 498 660 496 c 0
 660 494 659 491 658 490 c 2
 644 476 l 2
 643 475 640 474 638 474 c 2
 610 474 l 1
 596 460 l 1
 565 337 l 1
 565 335 l 1
 533 272 l 2
 533 271 533 271 486 224 c 0
 485 223 484 223 483 222 c 2
 389 191 l 2
 388 190 387 190 386 190 c 2
 376 190 l 1
 376 24 l 2
 376 22 375 19 374 18 c 1
 360 4 l 2
 359 3 356 2 354 2 c 0
 352 2 349 3 348 4 c 0
 334 18 l 2
 333 19 332 22 332 24 c 2
 332 190 l 1
 323 190 l 2
 322 190 321 190 320 191 c 2
 226 222 l 2
 225 223 224 223 223 224 c 0
 208 239 192 255 177 270 c 0
 176 271 176 271 176 272 c 2
 144 335 l 1
 144 337 l 1
 113 460 l 1
 99 474 l 1
 71 474 l 2
 69 474 66 475 65 476 c 2
 51 490 l 2
 50 491 49 494 49 496 c 0
EndSplineSet
Validated: 1
EndChar

StartChar: epsilon
Encoding: 949 949 153
Width: 503
Flags: W
HStem: 2 44<198 289> 254 43<294 312.989> 442 44<230 321>
VStem: 80 44<120 178> 143 44<372 421>
LayerCount: 2
Fore
SplineSet
313 275 m 0
 313 273 312 271 311 270 c 2
 297 256 l 2
 296 255 295 254 293 254 c 2
 169 223 l 1
 124 178 l 1
 124 120 l 1
 148 70 l 1
 198 46 l 1
 289 46 l 1
 349 76 l 1
 411 138 l 2
 413 140 415 141 417 141 c 0
 419 141 421 139 422 138 c 1
 437 124 l 2
 439 122 439 121 439 118 c 0
 439 116 439 114 437 112 c 0
 360 35 360 35 360 35 c 2
 359 34 359 34 358 34 c 2
 295 2 l 1
 193 2 l 1
 128 35 128 35 126 37 c 2
 112 51 l 1
 81 114 l 2
 80 115 80 117 80 118 c 2
 80 181 l 2
 80 183 81 185 82 187 c 2
 159 264 l 1
 163 266 l 1
 213 279 l 1
 192 286 192 285 190 287 c 0
 175 302 175 302 175 303 c 2
 144 366 l 2
 143 367 143 369 143 370 c 2
 143 433 l 2
 143 435 144 438 145 439 c 0
 160 454 160 454 161 454 c 2
 224 486 l 1
 326 486 l 1
 389 454 l 2
 390 454 390 454 437 407 c 0
 438 406 439 404 439 402 c 0
 439 400 438 397 436 395 c 2
 422 381 l 2
 421 380 419 379 417 379 c 0
 415 379 413 380 411 382 c 0
 401 392 391 402 381 412 c 1
 321 442 l 1
 230 442 l 1
 187 421 l 1
 187 372 l 1
 211 325 l 1
 294 297 l 2
 296 297 296 296 311 281 c 0
 312 280 313 278 313 275 c 0
EndSplineSet
Validated: 1
EndChar

StartChar: Xi
Encoding: 926 926 154
Width: 567
Flags: W
HStem: 2 44<49.0007 533.999> 348 44<175.001 407.999> 663 44<49.0007 533.999>
LayerCount: 2
Fore
SplineSet
49 24 m 0
 49 26 50 29 51 30 c 1
 65 44 l 2
 66 45 69 46 71 46 c 2
 512 46 l 2
 514 46 517 45 518 44 c 2
 532 30 l 2
 533 29 534 26 534 24 c 0
 534 22 533 19 532 18 c 2
 518 4 l 2
 517 3 514 2 512 2 c 2
 71 2 l 2
 69 2 66 3 65 4 c 1
 51 18 l 2
 50 19 49 22 49 24 c 0
175 370 m 0
 175 372 176 375 177 376 c 2
 191 390 l 2
 192 391 195 392 197 392 c 2
 386 392 l 2
 388 392 391 391 392 390 c 2
 406 376 l 2
 407 375 408 372 408 370 c 0
 408 368 407 365 406 364 c 2
 392 350 l 2
 391 349 388 348 386 348 c 2
 197 348 l 2
 195 348 192 349 191 350 c 2
 177 364 l 2
 176 365 175 368 175 370 c 0
49 685 m 0
 49 687 50 690 51 691 c 2
 65 705 l 2
 66 706 69 707 71 707 c 2
 512 707 l 2
 514 707 517 706 518 705 c 2
 532 691 l 2
 533 690 534 687 534 685 c 0
 534 683 533 680 532 679 c 2
 518 665 l 2
 517 664 514 663 512 663 c 2
 71 663 l 2
 69 663 66 664 65 665 c 1
 51 679 l 2
 50 680 49 683 49 685 c 0
EndSplineSet
Validated: 1
EndChar

StartChar: alpha
Encoding: 945 945 155
Width: 661
Flags: W
HStem: 2 44<198 258 546 595.999> 442 44<293 351>
VStem: 80 44<120 211>
LayerCount: 2
Fore
SplineSet
596 465 m 0
 596 464 596 462 596 462 c 1
 565 367 l 1
 564 366 l 1
 501 240 l 1
 480 208 l 1
 502 121 l 1
 532 60 l 1
 546 46 l 1
 574 46 l 2
 576 46 579 45 580 44 c 2
 594 30 l 2
 595 29 596 26 596 24 c 0
 596 22 595 19 594 18 c 2
 580 4 l 2
 579 3 576 2 574 2 c 0
 543 2 543 2 543 2 c 2
 541 2 539 3 537 4 c 0
 521 20 506 35 490 51 c 1
 459 114 l 2
 458 115 458 115 458 116 c 2
 447 159 l 1
 438 145 l 1
 328 35 l 2
 327 34 327 34 326 34 c 2
 263 2 l 1
 193 2 l 1
 128 35 128 35 126 37 c 2
 112 51 l 1
 81 114 l 2
 80 115 80 117 80 118 c 2
 80 215 l 1
 112 310 l 1
 112 311 l 1
 144 374 l 2
 144 375 144 375 145 376 c 0
 222 453 222 453 222 453 c 2
 223 454 223 454 224 454 c 2
 287 486 l 1
 354 486 l 2
 356 486 358 485 360 484 c 0
 376 468 391 453 407 437 c 1
 438 374 l 2
 439 373 439 373 439 372 c 2
 466 264 l 1
 492 311 521 372 522 373 c 0
 554 470 554 470 555 471 c 2
 569 485 l 2
 570 486 571 486 572 486 c 0
 577 486 580 485 581 484 c 2
 595 469 l 2
 596 468 596 466 596 465 c 0
434 211 m 1
 395 367 l 1
 365 428 l 1
 351 442 l 1
 293 442 l 1
 233 412 l 1
 186 365 l 1
 155 304 l 1
 124 211 l 1
 124 120 l 1
 148 70 l 1
 198 46 l 1
 258 46 l 1
 318 76 l 1
 397 155 l 1
 434 211 l 1
EndSplineSet
Validated: 1
EndChar

StartChar: beta
Encoding: 946 946 156
Width: 598
Flags: W
HStem: 2 44<262 321> 380 44<370 384> 663 44<388 446>
VStem: 49 44<-218.999 -198> 427 44<151 242> 490 44<529 619>
LayerCount: 2
Fore
SplineSet
270 402 m 0
 270 404 271 407 272 408 c 2
 286 422 l 2
 287 423 290 424 292 424 c 2
 384 424 l 1
 444 454 l 1
 460 470 l 1
 490 529 l 1
 490 619 l 1
 446 663 l 1
 388 663 l 1
 328 633 l 1
 281 586 l 1
 218 461 l 1
 187 368 l 1
 156 242 l 1
 148 194 l 1
 156 186 155 186 156 184 c 2
 187 91 l 1
 202 76 l 1
 262 46 l 1
 321 46 l 1
 381 76 l 1
 397 92 l 1
 427 151 l 1
 427 242 l 1
 397 302 l 1
 350 349 l 1
 287 380 288 380 287 381 c 2
 272 395 l 2
 270 397 270 400 270 402 c 0
386 707 m 2
 449 707 l 2
 451 707 453 706 455 705 c 2
 532 628 l 2
 533 626 534 624 534 622 c 2
 534 528 l 2
 534 527 534 525 533 524 c 2
 502 461 l 1
 464 422 454 412 453 412 c 2
 390 380 l 1
 370 380 l 1
 439 311 l 1
 470 248 l 2
 471 247 471 245 471 244 c 2
 471 150 l 2
 471 149 471 147 470 146 c 2
 439 83 l 1
 401 44 391 34 390 34 c 2
 327 2 l 1
 256 2 l 1
 193 34 l 2
 192 34 188 38 146 81 c 0
 144 83 144 83 134 113 c 1
 124 54 l 1
 93 -198 l 2
 93 -200 92 -202 91 -203 c 2
 77 -217 l 2
 76 -218 73 -219 71 -219 c 0
 69 -219 67 -219 65 -217 c 2
 51 -202 l 2
 50 -201 49 -200 49 -198 c 0
 49 -198 49 -197 81 56 c 1
 112 245 l 1
 112 246 l 1
 144 372 l 1
 144 373 l 1
 175 467 l 1
 176 468 l 1
 240 596 l 1
 319 675 l 1
 382 706 l 2
 383 707 385 707 386 707 c 2
EndSplineSet
Validated: 1
EndChar

StartChar: chi
Encoding: 967 967 157
Width: 566
Flags: W
HStem: -219 44<452 533.999> 442 44<49.0007 130>
LayerCount: 2
Fore
SplineSet
543 486 m 0
 545 486 548 486 550 484 c 2
 564 470 l 2
 565 469 565 468 565 466 c 0
 565 465 565 463 564 461 c 2
 533 398 l 1
 511 367 490 335 469 303 c 0
 469 302 469 302 461 294 c 2
 314 132 l 1
 407 -130 l 1
 452 -175 l 1
 512 -175 l 2
 514 -175 517 -176 518 -177 c 2
 532 -191 l 2
 533 -192 534 -195 534 -197 c 0
 534 -199 533 -202 532 -203 c 2
 518 -217 l 2
 517 -218 514 -219 512 -219 c 2
 449 -219 l 2
 446 -219 444 -218 443 -217 c 0
 365 -139 365 -139 365 -138 c 0
 364 -137 l 2
 282 96 l 1
 154 -44 l 1
 91 -138 l 1
 59 -202 60 -202 59 -203 c 2
 45 -217 l 2
 44 -218 41 -219 39 -219 c 0
 37 -219 35 -219 33 -217 c 1
 19 -202 l 2
 18 -201 17 -199 17 -197 c 0
 17 -195 17 -196 49 -130 c 1
 52 -127 l 1
 113 -35 l 1
 165 22 216 79 268 136 c 1
 176 397 l 1
 130 442 l 1
 71 442 l 2
 69 442 66 443 65 444 c 2
 51 458 l 2
 50 459 49 462 49 464 c 0
 49 466 50 469 51 470 c 2
 65 484 l 2
 66 485 69 486 71 486 c 2
 134 486 l 2
 136 486 138 485 139 484 c 0
 216 407 216 407 216 407 c 2
 217 406 218 405 218 404 c 2
 300 171 l 1
 428 312 l 1
 491 406 l 1
 522 469 522 469 523 470 c 2
 538 484 l 2
 540 486 541 486 543 486 c 0
EndSplineSet
Validated: 1
EndChar

StartChar: delta
Encoding: 948 948 158
Width: 566
Flags: W
HStem: 2 44<230 289> 442 44<261 307> 663 44<295 352>
VStem: 80 44<182 278> 238 44<592 650> 426 44<192.018 306>
LayerCount: 2
Fore
SplineSet
238 654 m 2
 238 656 239 658 240 659 c 0
 255 674 270 690 285 705 c 0
 287 706 289 707 291 707 c 2
 354 707 l 2
 355 707 357 707 358 706 c 2
 421 675 l 1
 500 596 l 2
 502 594 503 592 503 590 c 0
 503 588 501 586 500 585 c 2
 486 571 l 2
 484 569 482 568 480 568 c 0
 478 568 476 569 474 571 c 0
 412 633 412 633 412 633 c 1
 352 663 l 1
 295 663 l 1
 282 650 l 1
 282 592 l 1
 312 532 l 1
 437 407 l 2
 438 406 438 405 439 404 c 2
 470 310 l 1
 470 210 l 1
 439 115 l 2
 448 124 l 0
 448 124 433 108 360 35 c 0
 359 34 359 34 358 34 c 2
 295 2 l 1
 224 2 l 1
 161 34 l 2
 160 34 156 38 114 81 c 0
 113 82 113 83 112 84 c 2
 80 178 l 1
 80 278 l 1
 112 373 l 2
 103 364 l 0
 103 364 118 380 191 453 c 0
 192 454 192 454 193 454 c 2
 256 486 l 1
 307 486 l 1
 271 522 l 2
 270 523 270 523 270 524 c 2
 238 587 l 1
 238 654 l 2
396 122 m 1
 426 214 l 1
 426 306 l 1
 396 397 l 1
 351 442 l 1
 261 442 l 1
 201 412 l 1
 154 366 l 1
 124 274 l 1
 124 182 l 1
 154 92 l 1
 170 76 l 1
 230 46 l 1
 289 46 l 1
 349 76 l 1
 396 122 l 1
EndSplineSet
Validated: 1
EndChar

StartChar: phi
Encoding: 966 966 159
Width: 692
Flags: W
HStem: 2 44<230 234 292 342.982> 442 44<483 540>
VStem: 80 44<151 243> 175 43<-218.838 -175.381> 584 44<308 398>
LayerCount: 2
Fore
SplineSet
438 397 m 1
 375 272 l 1
 313 115 l 1
 292 46 l 1
 321 46 l 1
 413 76 l 1
 497 132 l 1
 553 216 l 1
 584 308 l 1
 584 398 l 1
 540 442 l 1
 483 442 l 1
 438 397 l 1
480 486 m 2
 543 486 l 2
 545 486 547 485 549 484 c 2
 626 407 l 2
 627 406 628 404 628 402 c 2
 628 304 l 1
 596 210 l 2
 596 209 596 209 595 208 c 2
 531 113 l 2
 530 112 531 112 516 97 c 1
 421 34 l 1
 420 33 l 1
 325 2 l 1
 279 2 l 1
 218 -199 l 2
 218 -201 217 -202 216 -203 c 2
 202 -217 l 2
 201 -218 200 -219 198 -219 c 0
 195 -219 191 -217 190 -216 c 2
 176 -202 l 2
 175 -201 175 -200 175 -198 c 0
 175 -197 175 -196 175 -195 c 2
 234 2 l 1
 224 2 l 1
 161 34 l 2
 160 34 160 34 112 83 c 1
 81 146 l 2
 80 147 80 149 80 150 c 2
 80 247 l 1
 112 341 l 2
 102 332 l 0
 102 332 118 348 193 423 c 1
 256 454 l 2
 258 455 260 455 261 455 c 0
 263 455 265 454 266 453 c 2
 280 439 l 2
 282 437 282 433 282 433 c 2
 282 431 281 429 280 428 c 0
 265 413 265 413 263 412 c 2
 201 381 l 1
 154 334 l 1
 124 243 l 1
 124 151 l 1
 154 92 l 1
 170 76 l 1
 230 46 l 1
 247 46 l 1
 269 120 l 2
 269 121 268 120 270 122 c 2
 333 278 l 1
 333 279 l 1
 397 407 l 1
 474 484 l 2
 476 485 478 486 480 486 c 2
EndSplineSet
Validated: 1
EndChar

StartChar: gamma
Encoding: 947 947 160
Width: 598
Flags: W
HStem: 442 44<167 195>
VStem: 301 44<179.046 306>
LayerCount: 2
Fore
SplineSet
542 486 m 0
 546 486 548 485 549 484 c 1
 564 470 l 2
 566 468 565 467 565 465 c 0
 565 464 565 462 565 462 c 2
 533 367 l 1
 533 366 l 1
 501 303 l 1
 312 19 l 1
 249 -106 l 1
 217 -202 218 -201 217 -202 c 2
 203 -217 l 2
 202 -218 200 -218 198 -218 c 0
 196 -218 192 -218 190 -216 c 2
 176 -202 l 2
 175 -201 174 -200 174 -198 c 0
 174 -196 174 -196 206 -100 c 1
 207 -99 l 1
 269 26 l 1
 301 182 l 1
 301 306 l 1
 270 397 l 1
 255 412 l 1
 195 442 l 1
 167 442 l 1
 107 412 l 1
 45 350 l 2
 43 348 41 347 39 347 c 0
 37 347 35 348 34 349 c 0
 20 363 l 2
 18 365 17 368 17 371 c 0
 17 373 18 375 19 376 c 2
 96 453 l 2
 97 454 97 454 98 454 c 2
 161 486 l 1
 200 486 l 1
 263 454 l 2
 264 454 264 454 311 407 c 0
 312 406 312 405 313 404 c 2
 344 310 l 2
 345 309 345 308 345 307 c 2
 345 181 l 2
 345 180 345 180 344 179 c 2
 333 122 l 1
 459 311 l 1
 490 373 l 1
 521 467 l 2
 522 469 522 469 537 484 c 0
 538 485 540 486 542 486 c 0
EndSplineSet
Validated: 1
EndChar

StartChar: eta
Encoding: 951 951 161
Width: 630
Flags: W
HStem: 442 44<137 193 387 445>
VStem: 206 44<386 429> 490 44<305.046 398>
LayerCount: 2
Fore
SplineSet
39 317 m 0
 37 317 35 317 33 319 c 1
 18 334 l 2
 17 335 17 336 17 338 c 0
 17 339 17 341 18 342 c 2
 49 405 l 1
 128 484 l 2
 129 485 131 486 134 486 c 2
 197 486 l 2
 199 486 201 485 202 484 c 0
 217 469 233 454 248 439 c 0
 249 437 250 435 250 433 c 2
 250 386 l 1
 317 453 l 2
 318 454 318 454 319 454 c 2
 382 486 l 1
 449 486 l 2
 451 486 453 485 454 484 c 0
 536 402 532 407 533 406 c 0
 534 405 534 403 534 402 c 2
 534 307 l 2
 534 306 534 306 533 305 c 2
 502 148 l 1
 502 147 l 1
 407 -199 l 2
 406 -201 406 -203 405 -204 c 0
 390 -218 l 2
 389 -219 388 -220 386 -220 c 0
 384 -220 382 -219 380 -217 c 2
 366 -203 l 2
 364 -201 363 -199 363 -197 c 0
 363 -196 364 -197 458 151 c 1
 490 308 l 1
 490 398 l 1
 445 442 l 1
 387 442 l 1
 327 412 l 1
 280 365 l 1
 218 241 l 1
 155 21 l 2
 154 19 154 19 139 4 c 0
 138 3 136 2 134 2 c 0
 132 2 130 2 128 4 c 1
 114 19 l 2
 113 20 111 22 111 24 c 0
 111 25 112 25 175 246 c 1
 206 371 l 1
 206 429 l 1
 193 442 l 1
 137 442 l 1
 91 397 l 1
 60 334 60 334 59 333 c 2
 45 319 l 2
 44 318 41 317 39 317 c 0
EndSplineSet
Validated: 1
EndChar

StartChar: iota
Encoding: 953 953 162
Width: 346
Flags: W
HStem: 2 44<137 193>
VStem: 80 44<59 145.903>
LayerCount: 2
Fore
SplineSet
196 486 m 0
 198 486 200 486 202 484 c 1
 216 469 l 2
 217 468 219 466 219 464 c 0
 219 463 218 463 155 242 c 1
 124 117 l 1
 124 59 l 1
 137 46 l 1
 193 46 l 1
 239 91 l 1
 270 153 l 2
 271 155 271 155 286 170 c 0
 287 171 289 172 291 172 c 2
 291 172 295 172 297 170 c 2
 311 156 l 2
 312 155 313 153 313 151 c 0
 313 150 313 148 312 146 c 2
 281 83 l 1
 202 4 l 2
 201 3 199 2 196 2 c 2
 134 2 l 2
 131 2 129 3 128 4 c 0
 113 19 97 34 82 49 c 0
 81 51 80 53 80 55 c 2
 80 120 l 1
 93 173 124 288 175 467 c 0
 176 469 176 469 191 484 c 0
 192 485 194 486 196 486 c 0
EndSplineSet
Validated: 1
EndChar

StartChar: phi1
Encoding: 981 981 163
Width: 629
Flags: W
HStem: 2 44<292 353> 442 44<292 353>
VStem: 80 44<183 278> 174 44<-218.965 -174.094> 521 44<210 305>
LayerCount: 2
Fore
SplineSet
448 707 m 0
 450 707 451 707 453 705 c 1
 468 691 l 2
 470 689 470 687 470 685 c 0
 470 684 471 684 410 469 c 1
 451 455 l 2
 442 465 l 0
 442 465 458 449 533 374 c 1
 564 311 l 2
 565 310 565 308 565 307 c 2
 565 210 l 1
 533 115 l 2
 542 124 l 0
 542 124 527 108 454 35 c 0
 453 34 452 34 451 33 c 2
 357 2 l 1
 288 2 l 1
 277 6 l 1
 218 -199 l 2
 217 -201 218 -201 202 -217 c 0
 201 -218 199 -219 197 -219 c 0
 194 -219 193 -219 176 -202 c 0
 175 -201 174 -199 174 -198 c 0
 174 -197 174 -198 235 19 c 1
 194 33 l 2
 203 23 l 0
 203 23 187 39 112 114 c 1
 81 177 l 2
 80 178 80 180 80 181 c 2
 80 278 l 1
 112 373 l 2
 103 364 l 0
 103 364 118 380 191 453 c 0
 192 454 193 454 194 455 c 2
 288 486 l 1
 357 486 l 1
 368 482 l 1
 427 687 l 2
 428 689 428 691 429 692 c 2
 444 706 l 2
 445 707 447 707 448 707 c 0
292 442 m 1
 201 412 l 1
 154 366 l 1
 124 274 l 1
 124 183 l 1
 154 123 l 1
 201 76 l 1
 248 60 l 1
 356 441 l 1
 353 442 l 1
 292 442 l 1
397 428 m 1
 289 47 l 1
 292 46 l 1
 353 46 l 1
 444 76 l 1
 491 122 l 1
 521 214 l 1
 521 305 l 1
 491 365 l 1
 444 412 l 1
 397 428 l 1
EndSplineSet
Validated: 33
EndChar

StartChar: kappa
Encoding: 954 954 164
Width: 567
Flags: W
HStem: 2 44<358 383> 442 44<451 477>
VStem: 49 44<1.08355 46.0345>
LayerCount: 2
Fore
SplineSet
196 486 m 0
 199 486 201 485 203 483 c 0
 217 469 l 2
 218 468 220 466 220 464 c 0
 220 463 219 463 172 298 c 1
 195 298 l 1
 255 328 l 1
 380 453 l 2
 381 454 381 454 382 454 c 2
 445 486 l 1
 481 486 l 2
 483 486 485 485 486 484 c 0
 501 469 517 454 532 439 c 0
 534 437 535 435 535 433 c 0
 535 431 534 429 533 428 c 2
 519 414 l 2
 517 412 514 411 511 411 c 0
 509 411 507 412 506 413 c 0
 496 423 487 432 477 442 c 1
 451 442 l 1
 391 412 l 1
 266 287 l 2
 265 286 265 286 264 286 c 2
 228 267 l 1
 232 265 l 2
 233 265 233 265 280 218 c 0
 281 217 281 216 281 215 c 2
 344 60 l 1
 358 46 l 1
 383 46 l 1
 412 75 l 2
 413 76 415 77 417 77 c 0
 419 77 421 76 423 74 c 2
 438 60 l 2
 439 59 439 57 439 55 c 0
 439 53 439 51 437 49 c 0
 422 34 407 19 392 4 c 0
 390 3 388 2 386 2 c 2
 355 2 l 2
 352 2 350 3 349 4 c 0
 334 19 318 34 303 49 c 0
 302 50 302 51 302 52 c 2
 239 208 l 1
 224 223 l 1
 161 254 161 254 160 255 c 1
 93 21 l 2
 93 19 93 19 77 3 c 0
 76 2 74 1 72 1 c 0
 70 1 67 2 65 4 c 1
 51 18 l 2
 50 19 49 21 49 24 c 0
 49 25 49 25 175 467 c 0
 176 469 176 469 191 484 c 0
 192 485 194 486 196 486 c 0
EndSplineSet
Validated: 1
EndChar

StartChar: lambda
Encoding: 955 955 165
Width: 504
Flags: W
HStem: 663 44<17.0007 100>
VStem: 427 44<2.04492 20>
LayerCount: 2
Fore
SplineSet
17 685 m 0
 17 687 18 690 19 691 c 2
 33 705 l 2
 34 706 37 707 39 707 c 2
 102 707 l 2
 103 707 105 707 106 706 c 2
 169 675 l 1
 217 627 217 627 217 626 c 0
 218 625 l 2
 470 27 l 2
 470 26 471 24 471 23 c 0
 471 21 470 19 469 18 c 2
 455 4 l 2
 454 3 451 2 448 2 c 0
 446 2 443 3 442 4 c 0
 427 19 427 19 427 20 c 2
 261 415 l 1
 92 20 l 2
 91 18 91 18 76 3 c 0
 75 2 73 1 71 1 c 0
 69 1 67 2 65 4 c 1
 51 18 l 2
 50 19 48 22 48 24 c 0
 48 25 49 26 49 27 c 2
 238 468 l 1
 239 469 l 1
 176 617 l 1
 160 633 l 1
 100 663 l 1
 39 663 l 2
 37 663 34 664 33 665 c 2
 19 679 l 2
 18 680 17 683 17 685 c 0
EndSplineSet
Validated: 1
EndChar

StartChar: uni03BC
Encoding: 956 956 166
Width: 661
Flags: W
HStem: 2 44<231 289 483 540>
VStem: 17 44<-218.916 -173.825> 427 44<58 102> 521 44<441.565 485.999>
LayerCount: 2
Fore
SplineSet
543 486 m 0
 545 486 546 486 548 484 c 0
 565 467 565 467 565 464 c 0
 565 463 565 463 502 242 c 1
 471 117 l 1
 471 58 l 1
 483 46 l 1
 540 46 l 1
 585 91 l 1
 616 153 l 2
 617 155 617 155 632 170 c 0
 633 171 635 172 637 172 c 0
 639 172 641 172 643 170 c 2
 657 155 l 2
 659 153 660 152 660 149 c 0
 660 148 659 147 659 146 c 2
 627 83 l 2
 627 82 627 82 626 81 c 0
 549 4 549 4 549 4 c 2
 547 3 545 2 543 2 c 2
 480 2 l 2
 478 2 476 3 474 4 c 0
 459 19 444 34 429 49 c 0
 428 51 427 53 427 55 c 2
 427 102 l 1
 360 35 l 2
 359 34 359 34 358 34 c 2
 295 2 l 1
 228 2 l 2
 226 2 224 3 222 4 c 2
 145 81 l 2
 144 82 143 84 143 86 c 2
 143 89 l 1
 61 -199 l 2
 61 -201 60 -202 59 -203 c 2
 45 -217 l 2
 44 -218 42 -219 40 -219 c 0
 38 -219 35 -218 33 -216 c 2
 19 -202 l 2
 18 -201 17 -199 17 -197 c 0
 17 -196 17 -196 206 467 c 0
 207 469 207 469 222 484 c 0
 223 485 225 486 227 486 c 0
 230 486 232 485 234 483 c 2
 248 469 l 2
 249 468 251 466 251 464 c 0
 251 463 250 463 216 344 c 1
 217 343 219 341 219 339 c 0
 219 339 218 339 187 180 c 1
 187 90 l 1
 231 46 l 1
 289 46 l 1
 349 76 l 1
 396 123 l 1
 459 247 l 1
 521 467 l 2
 521 468 522 469 537 484 c 0
 538 485 541 486 543 486 c 0
EndSplineSet
Validated: 1
EndChar

StartChar: nu
Encoding: 957 957 167
Width: 567
Flags: W
HStem: 442 44<80.0007 170>
LayerCount: 2
Fore
SplineSet
100 2 m 0
 98 2 97 2 96 3 c 1
 82 17 l 2
 81 18 80 21 80 24 c 2
 80 26 l 1
 112 120 l 1
 143 277 l 1
 170 442 l 1
 102 442 l 2
 100 442 97 443 96 444 c 2
 82 458 l 2
 81 459 80 462 80 464 c 0
 80 466 81 469 82 470 c 2
 96 484 l 2
 97 485 100 486 102 486 c 2
 196 486 l 2
 198 486 200 485 202 483 c 0
 218 467 219 467 219 465 c 0
 219 464 218 463 218 463 c 2
 187 274 l 1
 155 116 l 1
 155 115 l 1
 136 57 l 1
 193 76 l 1
 286 138 l 1
 365 218 l 1
 428 311 l 1
 459 373 l 1
 490 467 l 2
 491 469 491 469 506 484 c 0
 507 485 508 486 510 486 c 0
 512 486 516 486 518 484 c 2
 532 470 l 2
 533 469 534 468 534 466 c 0
 534 464 534 464 502 367 c 1
 501 366 l 1
 470 303 l 1
 467 300 l 1
 406 208 l 2
 406 207 l 0
 392 193 392 193 391 193 c 0
 360 161 329 130 297 98 c 0
 296 98 296 98 295 97 c 2
 201 34 l 2
 200 34 200 34 199 33 c 2
 105 2 l 1
 102 2 l 2
 101 2 101 2 100 2 c 0
EndSplineSet
Validated: 1
EndChar

StartChar: omicron
Encoding: 959 959 168
Width: 534
Flags: W
HStem: 2 44<230 289> 442 44<261 321>
VStem: 80 44<182 278> 426 44<192.018 306>
LayerCount: 2
Fore
SplineSet
261 442 m 1
 201 412 l 1
 154 366 l 1
 124 274 l 1
 124 182 l 1
 154 92 l 1
 170 76 l 1
 230 46 l 1
 289 46 l 1
 349 76 l 1
 396 122 l 1
 426 214 l 1
 426 306 l 1
 396 397 l 1
 381 412 l 1
 321 442 l 1
 261 442 l 1
256 486 m 1
 326 486 l 1
 389 454 l 2
 390 454 390 454 437 407 c 0
 438 406 438 405 439 404 c 2
 470 310 l 1
 470 210 l 1
 439 115 l 2
 448 124 l 0
 448 124 433 108 360 35 c 0
 359 34 359 34 358 34 c 2
 295 2 l 1
 224 2 l 1
 161 34 l 2
 160 34 156 38 114 81 c 0
 113 82 113 83 112 84 c 2
 80 178 l 1
 80 278 l 1
 112 373 l 2
 103 364 l 0
 103 364 118 380 191 453 c 0
 192 454 192 454 193 454 c 2
 256 486 l 1
EndSplineSet
Validated: 1
EndChar

StartChar: pi
Encoding: 960 960 169
Width: 693
Flags: W
HStem: 442 44<208.018 263 308 430 475 659.999>
LayerCount: 2
Fore
SplineSet
71 347 m 0
 69 347 67 348 66 349 c 0
 52 363 l 2
 50 365 49 368 49 371 c 0
 49 373 50 375 51 376 c 0
 129 454 129 454 130 454 c 0
 131 455 l 2
 226 486 l 1
 638 486 l 2
 640 486 643 485 644 484 c 2
 658 470 l 2
 659 469 660 466 660 464 c 0
 660 462 659 459 658 458 c 2
 644 444 l 2
 643 443 640 442 638 442 c 2
 475 442 l 1
 502 277 l 1
 534 120 l 1
 566 24 566 24 566 22 c 0
 566 20 565 19 564 18 c 2
 550 4 l 2
 548 2 544 2 542 2 c 0
 540 2 539 3 538 4 c 0
 523 19 523 19 522 21 c 0
 490 115 l 1
 490 116 l 1
 459 274 l 1
 430 442 l 1
 308 442 l 1
 187 21 l 2
 186 19 186 19 171 4 c 0
 170 3 168 2 166 2 c 0
 164 2 162 2 160 4 c 1
 146 19 l 2
 145 20 143 22 143 24 c 0
 143 25 144 25 263 442 c 1
 230 442 l 1
 138 412 l 1
 118 391 98 371 77 350 c 0
 75 348 73 347 71 347 c 0
EndSplineSet
Validated: 1
EndChar

StartChar: theta
Encoding: 952 952 170
Width: 534
Flags: W
HStem: 2 44<168 226> 348 44<154 403> 663 44<324 382>
VStem: 80 44<120 278.84> 426 44<427.624 589>
LayerCount: 2
Fore
SplineSet
322 707 m 2
 386 707 l 2
 388 707 390 706 391 705 c 0
 406 690 422 674 437 659 c 0
 438 658 438 658 438 657 c 2
 470 594 l 1
 470 463 l 1
 439 305 l 1
 439 304 l 1
 407 210 l 1
 407 209 l 1
 375 146 l 1
 375 145 l 1
 312 51 l 1
 306 45 301 40 295 34 c 1
 232 2 l 1
 165 2 l 2
 163 2 161 3 159 4 c 0
 143 20 128 35 112 51 c 1
 81 114 l 2
 80 115 80 117 80 118 c 2
 80 246 l 1
 112 403 l 1
 112 404 l 1
 143 499 l 1
 144 500 l 1
 175 563 l 1
 178 566 l 1
 239 658 l 1
 245 664 250 669 256 675 c 1
 319 706 l 2
 320 707 321 707 322 707 c 2
382 663 m 1
 324 663 l 1
 272 636 l 1
 217 555 l 1
 186 493 l 1
 155 399 l 1
 154 392 l 1
 412 392 l 1
 426 465 l 1
 426 589 l 1
 396 649 l 1
 382 663 l 1
279 72 m 1
 333 154 l 1
 364 216 l 1
 395 309 l 1
 403 348 l 1
 145 348 l 1
 124 243 l 1
 124 120 l 1
 154 60 l 1
 168 46 l 1
 226 46 l 1
 279 72 l 1
EndSplineSet
Validated: 1
EndChar

StartChar: rho
Encoding: 961 961 171
Width: 567
Flags: W
HStem: 2 44<262 321> 442 44<293 353>
VStem: -14 44<-218.916 -172.042> 459 44<214 306>
LayerCount: 2
Fore
SplineSet
156 274 m 1
 156 182 l 1
 187 91 l 1
 202 76 l 1
 262 46 l 1
 321 46 l 1
 381 76 l 1
 428 122 l 1
 459 214 l 1
 459 306 l 1
 428 397 l 1
 413 412 l 1
 353 442 l 1
 293 442 l 1
 233 412 l 1
 187 366 l 1
 156 274 l 1
9 -219 m 0
 7 -219 4 -218 2 -216 c 0
 -12 -202 l 2
 -13 -201 -14 -199 -14 -197 c 0
 -14 -196 -14 -196 112 278 c 1
 144 373 l 2
 135 364 l 0
 135 364 150 380 223 453 c 0
 224 454 224 454 225 454 c 2
 288 486 l 1
 358 486 l 1
 421 454 l 2
 422 454 422 454 469 407 c 0
 470 406 470 405 471 404 c 2
 502 310 l 2
 503 309 503 308 503 307 c 2
 503 212 l 2
 503 211 503 211 502 210 c 2
 471 115 l 2
 480 124 l 0
 480 124 465 108 392 35 c 0
 391 34 391 34 390 34 c 2
 327 2 l 1
 256 2 l 1
 193 34 l 2
 192 34 188 38 146 81 c 0
 145 82 145 83 144 84 c 2
 122 147 l 1
 30 -199 l 2
 30 -201 29 -202 28 -203 c 0
 14 -217 l 2
 13 -218 11 -219 9 -219 c 0
EndSplineSet
Validated: 1
EndChar

StartChar: sigma
Encoding: 963 963 172
Width: 630
Flags: W
HStem: 2 44<230 289> 442 44<261 321 402 595.999>
VStem: 80 44<182 278> 426 44<192.018 306>
LayerCount: 2
Fore
SplineSet
321 442 m 1
 261 442 l 1
 201 412 l 1
 154 366 l 1
 124 274 l 1
 124 182 l 1
 154 92 l 1
 170 76 l 1
 230 46 l 1
 289 46 l 1
 349 76 l 1
 396 122 l 1
 426 214 l 1
 426 306 l 1
 396 397 l 1
 381 412 l 1
 321 442 l 1
574 486 m 2
 576 486 579 485 580 484 c 2
 594 470 l 2
 595 469 596 466 596 464 c 0
 596 462 595 459 594 458 c 2
 580 444 l 2
 579 443 576 442 574 442 c 2
 402 442 l 1
 437 407 438 407 438 406 c 0
 439 404 l 2
 470 310 l 1
 470 210 l 1
 439 115 l 2
 448 124 l 0
 448 124 433 108 360 35 c 0
 359 34 359 34 358 34 c 2
 295 2 l 1
 224 2 l 1
 161 34 l 2
 160 34 156 38 114 81 c 0
 113 82 113 83 112 84 c 2
 80 178 l 1
 80 278 l 1
 112 373 l 2
 103 364 l 0
 103 364 118 380 191 453 c 0
 192 454 192 454 193 454 c 2
 256 486 l 1
 574 486 l 2
EndSplineSet
Validated: 1
EndChar

StartChar: tau
Encoding: 964 964 173
Width: 630
Flags: W
HStem: 442 44<208.018 328 372 596.999>
VStem: 328 44<408.549 442>
LayerCount: 2
Fore
SplineSet
71 347 m 0
 69 347 67 348 66 349 c 0
 52 363 l 2
 50 365 49 368 49 371 c 0
 49 373 50 375 51 376 c 0
 129 454 129 454 130 454 c 0
 131 455 l 2
 226 486 l 1
 575 486 l 2
 577 486 580 485 581 484 c 2
 595 470 l 2
 596 469 597 466 597 464 c 0
 597 462 596 459 595 458 c 2
 581 444 l 2
 580 443 577 442 575 442 c 2
 372 442 l 1
 282 22 l 2
 281 20 282 20 266 4 c 0
 264 2 262 2 260 2 c 0
 258 2 256 2 254 4 c 1
 239 18 l 2
 238 19 237 21 237 23 c 0
 237 23 238 23 328 442 c 1
 230 442 l 1
 138 412 l 1
 118 391 98 371 77 350 c 0
 75 348 73 347 71 347 c 0
EndSplineSet
Validated: 1
EndChar

StartChar: upsilon
Encoding: 965 965 174
Width: 629
Flags: W
HStem: 2 44<231 290> 442 44<137 193>
VStem: 143 44<90 180> 206 44<371 429> 521 44<342.328 485.999>
LayerCount: 2
Fore
SplineSet
39 317 m 0
 37 317 35 317 33 319 c 1
 18 334 l 2
 17 335 17 336 17 338 c 0
 17 339 17 341 18 342 c 2
 49 405 l 1
 128 484 l 2
 129 485 131 486 134 486 c 2
 197 486 l 2
 199 486 201 485 202 484 c 0
 217 469 233 454 248 439 c 0
 249 437 250 435 250 433 c 2
 250 367 l 1
 187 180 l 1
 187 90 l 1
 231 46 l 1
 290 46 l 1
 381 76 l 1
 428 123 l 1
 490 247 l 1
 521 371 l 1
 521 464 l 2
 521 466 522 469 523 470 c 2
 537 484 l 2
 538 485 541 486 543 486 c 0
 545 486 548 485 549 484 c 0
 563 470 l 2
 564 469 565 466 565 464 c 2
 565 368 l 1
 533 242 l 1
 533 240 l 1
 470 114 l 1
 390 34 391 34 390 34 c 0
 388 33 l 2
 294 2 l 1
 228 2 l 2
 226 2 224 3 222 4 c 2
 145 81 l 2
 144 82 143 84 143 86 c 2
 143 184 l 1
 206 371 l 1
 206 429 l 1
 193 442 l 1
 137 442 l 1
 91 397 l 1
 60 334 60 334 59 333 c 2
 45 319 l 2
 44 318 41 317 39 317 c 0
EndSplineSet
Validated: 1
EndChar

StartChar: omega
Encoding: 969 969 175
Width: 724
Flags: W
HStem: 2 44<168 226 420 478>
VStem: 80 44<151 243> 616 44<245 337>
LayerCount: 2
Fore
SplineSet
386 297 m 0
 388 297 390 296 391 295 c 2
 406 281 l 2
 407 280 408 278 408 276 c 0
 408 275 378 157 376 150 c 1
 406 60 l 1
 420 46 l 1
 478 46 l 1
 531 72 l 1
 585 153 l 1
 616 245 l 1
 616 337 l 1
 585 429 l 1
 582 432 554 460 554 460 c 0
 553 461 552 463 552 464 c 0
 552 466 553 468 555 470 c 0
 569 484 l 2
 571 486 573 487 575 487 c 0
 577 487 577 487 587 477 c 0
 622 443 626 440 627 438 c 0
 628 436 l 2
 659 341 l 2
 660 340 660 339 660 338 c 2
 660 244 l 2
 660 243 660 242 659 241 c 2
 628 147 l 2
 627 146 627 146 627 145 c 2
 564 51 l 1
 558 45 553 40 547 34 c 1
 484 2 l 1
 417 2 l 2
 415 2 413 3 411 4 c 0
 365 50 365 49 365 50 c 0
 364 52 l 2
 347 103 l 1
 312 51 l 1
 306 45 301 40 295 34 c 1
 232 2 l 1
 165 2 l 2
 163 2 161 3 159 4 c 0
 113 50 113 49 113 50 c 0
 112 52 l 2
 80 147 l 1
 80 247 l 1
 112 341 l 2
 112 342 112 342 113 343 c 2
 176 437 l 1
 182 443 187 448 193 454 c 1
 256 486 l 2
 257 486 258 487 259 487 c 0
 262 487 263 486 265 484 c 2
 280 470 l 2
 282 468 282 466 282 464 c 0
 282 462 281 460 280 459 c 0
 265 444 265 444 263 443 c 2
 209 416 l 1
 155 335 l 1
 124 243 l 1
 124 151 l 1
 154 60 l 1
 168 46 l 1
 226 46 l 1
 279 72 l 1
 333 153 l 1
 364 277 l 2
 365 279 364 279 380 295 c 0
 382 297 384 297 386 297 c 0
EndSplineSet
Validated: 1
EndChar

StartChar: xi
Encoding: 958 958 176
Width: 504
Flags: W
HStem: -219 44<174.001 258> 222 44<302.018 407.999> 506 44<355 469.999>
VStem: 80 44<58 116> 143 44<342 400> 206 44<594 619> 300 44<-154 -106>
LayerCount: 2
Fore
SplineSet
319 706 m 2
 319 706 322 707 324 707 c 0
 325 707 327 707 328 706 c 1
 342 692 l 2
 343 691 344 688 344 685 c 0
 344 683 344 682 342 680 c 0
 327 665 327 665 326 664 c 1
 264 633 l 1
 250 619 l 1
 250 594 l 1
 264 580 l 1
 355 550 l 1
 448 550 l 2
 450 550 453 549 454 548 c 1
 468 534 l 2
 469 533 470 530 470 528 c 0
 470 526 469 523 468 522 c 2
 454 508 l 2
 453 507 450 506 448 506 c 2
 355 506 l 1
 263 475 l 1
 211 450 l 1
 187 400 l 1
 187 342 l 1
 232 296 l 1
 324 266 l 1
 386 266 l 2
 388 266 391 265 392 264 c 1
 406 250 l 2
 407 249 408 246 408 244 c 0
 408 242 407 239 406 238 c 2
 392 224 l 2
 391 223 388 222 386 222 c 2
 323 222 l 1
 199 191 l 1
 149 166 l 1
 124 116 l 1
 124 58 l 1
 170 13 l 1
 295 -50 l 2
 296 -50 300 -54 342 -97 c 0
 343 -98 344 -100 344 -102 c 2
 344 -166 l 2
 344 -168 344 -169 342 -171 c 0
 327 -186 327 -186 326 -187 c 2
 263 -218 l 2
 262 -219 261 -219 260 -219 c 2
 196 -219 l 2
 194 -219 191 -218 190 -217 c 2
 176 -203 l 2
 175 -202 174 -199 174 -197 c 0
 174 -195 175 -192 176 -191 c 2
 190 -177 l 2
 191 -176 194 -175 196 -175 c 2
 258 -175 l 1
 300 -154 l 1
 300 -106 l 1
 286 -92 l 1
 161 -29 l 2
 160 -29 160 -29 159 -28 c 0
 82 49 82 49 82 49 c 2
 81 51 80 53 80 55 c 2
 80 118 l 2
 80 119 80 121 81 122 c 2
 112 185 l 1
 127 200 126 200 128 201 c 0
 131 203 131 203 193 234 c 1
 195 234 l 1
 246 247 l 1
 225 254 l 2
 234 245 l 0
 234 245 218 260 145 333 c 0
 144 334 143 336 143 338 c 2
 143 402 l 2
 143 403 143 404 144 405 c 2
 175 468 l 1
 181 474 187 480 193 486 c 1
 256 517 l 1
 257 518 l 1
 286 528 l 1
 257 537 l 2
 256 538 255 538 254 539 c 0
 239 554 223 570 208 585 c 0
 207 586 206 588 206 590 c 2
 206 622 l 2
 206 624 207 626 208 628 c 0
 224 644 240 659 256 675 c 1
 319 706 l 2
EndSplineSet
Validated: 1
EndChar

StartChar: psi
Encoding: 968 968 177
Width: 724
Flags: W
HStem: 442 44<137 193>
VStem: 175 44<120 248.071> 206 44<334.698 429> 490 44<661.892 706.965>
LayerCount: 2
Fore
SplineSet
39 317 m 0xb0
 37 317 35 317 33 319 c 1
 18 334 l 2
 17 335 17 336 17 338 c 0
 17 339 17 341 18 342 c 2
 49 405 l 1
 128 484 l 2
 129 485 131 486 134 486 c 2
 197 486 l 2
 199 486 201 485 202 484 c 0
 217 469 233 454 248 439 c 0
 249 437 250 435 250 433 c 2
 250 368 l 1xb0
 219 212 l 1
 219 120 l 1
 243 70 l 1
 293 46 l 1
 307 46 l 1
 490 687 l 2
 491 689 490 689 506 705 c 0
 507 706 509 707 511 707 c 0
 514 707 515 707 532 690 c 0
 533 689 534 687 534 686 c 0
 534 685 534 685 351 46 c 1
 353 46 l 1
 444 76 l 1
 491 123 l 1
 553 216 l 1
 616 373 l 1
 647 467 l 2
 648 469 648 469 663 484 c 0
 664 485 666 486 668 486 c 0
 672 486 674 485 675 484 c 1
 690 470 l 2
 692 468 691 467 691 465 c 0
 691 464 691 462 691 462 c 2
 659 367 l 1
 596 210 l 2
 596 209 596 209 595 208 c 2
 532 114 l 2
 532 113 532 113 531 112 c 0
 453 34 453 34 452 34 c 0
 451 33 l 2
 357 2 l 1
 339 2 l 1
 281 -199 l 2
 280 -201 280 -203 279 -204 c 2
 264 -218 l 2
 263 -219 261 -219 260 -219 c 0
 258 -219 257 -219 255 -217 c 1
 240 -203 l 2
 238 -201 238 -199 238 -197 c 0
 238 -196 238 -196 294 2 c 1
 287 2 l 1
 224 34 l 1
 218 40 213 45 207 51 c 1
 175 114 l 1
 175 214 l 1xd0
 206 371 l 1
 206 429 l 1
 193 442 l 1
 137 442 l 1
 91 397 l 1
 60 334 60 334 59 333 c 2
 45 319 l 2
 44 318 41 317 39 317 c 0xb0
EndSplineSet
Validated: 1
EndChar

StartChar: zeta
Encoding: 950 950 178
Width: 472
Flags: W
HStem: -219 44<240 287>
VStem: 80 44<151 215> 206 44<594 619> 300 44<-162 -104>
LayerCount: 2
Fore
SplineSet
448 550 m 2
 450 550 453 549 454 548 c 1
 468 534 l 2
 469 533 470 530 470 528 c 0
 470 526 470 523 468 521 c 0
 453 506 453 507 452 506 c 2
 327 444 l 1
 233 381 l 1
 154 303 l 1
 124 211 l 1
 124 151 l 1
 154 91 l 1
 202 44 l 1
 295 -19 l 1
 301 -25 306 -30 312 -36 c 1
 344 -99 l 1
 344 -166 l 2
 344 -168 343 -170 342 -171 c 0
 327 -186 312 -202 297 -217 c 0
 295 -218 293 -219 291 -219 c 2
 228 -219 l 2
 226 -219 223 -218 222 -217 c 0
 207 -202 207 -202 207 -201 c 2
 175 -138 l 2
 175 -137 174 -136 174 -135 c 0
 174 -133 176 -130 177 -129 c 2
 191 -115 l 2
 193 -113 196 -112 197 -112 c 0
 199 -112 200 -112 202 -114 c 0
 217 -129 217 -129 218 -130 c 2
 240 -175 l 1
 287 -175 l 1
 300 -162 l 1
 300 -104 l 1
 274 -52 l 1
 192 3 l 2
 191 3 l 0
 177 17 l 2
 177 18 l 2
 112 83 l 1
 81 146 l 2
 80 147 80 149 80 150 c 2
 80 215 l 1
 112 310 l 2
 113 311 113 312 114 313 c 2
 222 421 l 2
 223 422 223 422 224 422 c 2
 318 485 l 1
 319 486 l 1
 358 506 l 1
 351 506 l 1
 257 537 l 2
 256 538 255 538 254 539 c 0
 239 554 223 570 208 585 c 0
 207 586 206 588 206 590 c 2
 206 622 l 2
 206 624 207 626 208 628 c 0
 224 644 240 659 256 675 c 1
 319 706 319 706 319 706 c 0
 320 706 322 707 324 707 c 0
 325 707 327 707 328 706 c 1
 342 692 l 2
 343 691 344 688 344 685 c 0
 344 683 344 682 342 680 c 0
 327 665 327 665 326 664 c 1
 264 633 l 1
 250 619 l 1
 250 594 l 1
 264 580 l 1
 355 550 l 1
 448 550 l 2
EndSplineSet
Validated: 1
EndChar

StartChar: similar
Encoding: 8764 8764 179
Width: 755
Flags: W
HStem: 220 46<513 573> 378 46<198 258>
VStem: 80 44<190.001 278> 647 44<340 423.999>
LayerCount: 2
Fore
SplineSet
102 190 m 0
 100 190 97 191 96 192 c 1
 82 206 l 2
 81 207 80 210 80 212 c 0
 80 278 80 278 80 278 c 1
 112 373 l 2
 113 375 127 390 130 391 c 2
 193 423 l 2
 194 424 195 424 196 424 c 2
 260 424 l 2
 261 424 262 424 263 423 c 2
 326 391 l 2
 327 391 327 391 330 388 c 2
 453 296 l 1
 513 266 l 1
 573 266 l 1
 623 290 l 1
 647 340 l 1
 647 402 l 2
 647 404 648 407 649 408 c 2
 663 422 l 2
 664 423 667 424 669 424 c 0
 671 424 674 423 675 422 c 2
 689 408 l 2
 690 407 691 404 691 402 c 2
 691 336 l 1
 658 270 659 270 658 269 c 0
 643 254 643 254 641 253 c 0
 578 221 l 2
 577 220 575 220 574 220 c 2
 512 220 l 2
 511 220 509 220 508 221 c 2
 445 253 l 2
 444 253 444 253 441 256 c 2
 318 348 l 1
 258 378 l 1
 198 378 l 1
 150 354 l 1
 124 274 l 1
 124 212 l 2
 124 210 123 207 122 206 c 2
 108 192 l 2
 107 191 104 190 102 190 c 0
EndSplineSet
Validated: 1
EndChar

StartChar: minute
Encoding: 8242 8242 180
Width: 283
Flags: W
HStem: 443 264
VStem: 143 139
LayerCount: 2
Fore
SplineSet
258 707 m 0
 260 707 264 707 266 705 c 2
 280 690 l 2
 281 689 282 688 282 686 c 0
 282 685 281 683 281 682 c 0
 185 459 186 460 185 459 c 2
 171 445 l 2
 170 444 168 443 166 443 c 0
 164 443 161 443 159 445 c 2
 145 459 l 2
 144 460 143 463 143 465 c 0
 143 466 143 466 206 687 c 0
 207 690 206 689 222 705 c 0
 223 706 225 707 227 707 c 0
 231 707 231 707 243 695 c 1
 255 707 256 707 258 707 c 0
EndSplineSet
Validated: 1
EndChar

StartChar: arrowup
Encoding: 8593 8593 181
Width: 503
Flags: W
VStem: 238 44<2.00073 512>
LayerCount: 2
Fore
SplineSet
102 379 m 0
 100 379 98 380 96 382 c 0
 81 396 l 2
 80 397 79 399 79 401 c 0
 79 403 80 405 82 407 c 2
 176 501 l 1
 221 569 239 596 240 597 c 2
 254 611 l 2
 255 612 257 613 259 613 c 0
 263 613 262 613 280 595 c 1
 343 501 l 1
 437 407 l 2
 438 406 439 404 439 402 c 0
 439 400 438 398 436 396 c 2
 422 381 l 2
 421 380 419 380 417 380 c 0
 415 380 413 380 411 382 c 0
 368 425 325 469 282 512 c 1
 282 24 l 2
 282 22 281 19 280 18 c 2
 266 4 l 2
 265 3 262 2 260 2 c 0
 258 2 255 3 254 4 c 2
 240 18 l 2
 239 19 238 22 238 24 c 2
 238 512 l 1
 108 382 l 2
 106 380 104 379 102 379 c 0
EndSplineSet
Validated: 1
EndChar

StartChar: second
Encoding: 8243 8243 182
Width: 386
Flags: W
HStem: 443 264
VStem: 145 245
LayerCount: 2
Fore
SplineSet
368 707 m 0
 370 707 374 707 376 705 c 0
 390 690 l 2
 391 689 392 688 392 686 c 0
 392 685 391 683 391 682 c 0
 295 459 296 460 295 459 c 2
 281 445 l 2
 280 444 278 443 276 443 c 0
 274 443 271 443 269 445 c 0
 255 459 l 2
 254 460 253 463 253 465 c 0
 253 466 253 466 316 687 c 0
 317 690 316 689 332 705 c 0
 333 706 335 707 337 707 c 0
 341 707 341 707 353 695 c 1
 365 707 366 707 368 707 c 0
258 707 m 0
 260 707 264 707 266 705 c 2
 280 690 l 2
 281 689 282 688 282 686 c 0
 282 685 281 683 281 682 c 0
 185 459 186 460 185 459 c 2
 171 445 l 2
 170 444 168 443 166 443 c 0
 164 443 161 443 159 445 c 2
 145 459 l 2
 144 460 143 463 143 465 c 0
 143 466 143 466 206 687 c 0
 207 690 206 689 222 705 c 0
 223 706 225 707 227 707 c 0
 231 707 231 707 243 695 c 1
 255 707 256 707 258 707 c 0
EndSplineSet
Validated: 1
EndChar

StartChar: minus
Encoding: 8722 8722 183
Width: 441
Flags: W
HStem: 285 44<-13.9993 470.999>
LayerCount: 2
Fore
SplineSet
-14 307 m 0
 -14 309 -13 312 -12 313 c 2
 2 327 l 2
 3 328 6 329 8 329 c 2
 449 329 l 2
 451 329 454 328 455 327 c 2
 469 313 l 2
 470 312 471 309 471 307 c 0
 471 305 470 302 469 301 c 2
 455 287 l 2
 454 286 451 285 449 285 c 2
 8 285 l 2
 6 285 3 286 2 287 c 0
 -12 301 l 2
 -13 302 -14 305 -14 307 c 0
EndSplineSet
Validated: 1
EndChar

StartChar: universal
Encoding: 8704 8704 184
Width: 566
Flags: W
HStem: 360 44<180 384>
VStem: 513 44<692 711.848>
LayerCount: 2
Fore
SplineSet
9 689 m 0
 9 691 9 692 11 694 c 0
 29 712 29 712 32 712 c 0
 33 712 33 712 49 696 c 0
 51 694 52 692 52 692 c 1
 164 404 l 1
 400 404 l 1
 513 692 l 2
 513 693 512 693 529 710 c 0
 530 711 532 712 534 712 c 2
 534 712 537 712 540 709 c 2
 555 695 l 2
 556 694 557 692 557 690 c 0
 557 689 556 688 556 687 c 2
 304 25 l 2
 304 23 303 23 288 8 c 0
 287 7 285 6 282 6 c 0
 280 6 278 7 277 8 c 0
 262 23 262 23 261 25 c 0
 9 687 l 2
 9 688 9 688 9 689 c 0
384 360 m 1
 180 360 l 1
 283 88 l 1
 384 360 l 1
EndSplineSet
Validated: 1
EndChar

StartChar: logicaland
Encoding: 8743 8743 185
Width: 504
Flags: W
VStem: 239 42<642 659.999>
LayerCount: 2
Fore
SplineSet
504 8 m 0
 504 6 503 4 502 3 c 0
 488 -11 l 2
 486 -13 483 -13 483 -13 c 2
 481 -13 479 -13 477 -11 c 0
 462 4 463 4 462 5 c 2
 259 584 l 1
 32 5 l 2
 31 4 32 4 17 -11 c 0
 15 -13 13 -13 11 -13 c 2
 11 -13 8 -13 6 -11 c 1
 -8 3 l 2
 -9 4 -10 6 -10 8 c 0
 -10 9 -10 11 -9 13 c 0
 239 642 l 2
 239 643 239 643 240 644 c 2
 254 658 l 2
 255 659 258 660 260 660 c 0
 262 660 265 659 266 658 c 0
 281 643 281 643 281 642 c 2
 503 13 l 2
 504 11 504 9 504 8 c 0
EndSplineSet
Validated: 1
EndChar

StartChar: logicalor
Encoding: 8744 8744 186
Width: 504
Flags: W
VStem: 237 42<-13.9993 4>
LayerCount: 2
Fore
SplineSet
-12 598 m 0
 -12 600 -11 602 -10 603 c 1
 4 617 l 2
 6 619 9 619 9 619 c 0
 11 619 13 619 15 617 c 0
 30 602 29 602 30 601 c 2
 257 60 l 1
 460 601 l 2
 461 602 460 602 475 617 c 0
 477 619 479 619 481 619 c 2
 481 619 484 619 486 617 c 2
 500 603 l 2
 501 602 502 600 502 598 c 0
 502 597 502 595 501 593 c 2
 279 4 l 2
 279 3 279 3 264 -12 c 0
 263 -13 260 -14 258 -14 c 0
 256 -14 253 -13 252 -12 c 0
 237 3 237 3 237 4 c 2
 -11 593 l 2
 -12 595 -12 597 -12 598 c 0
EndSplineSet
Validated: 1
EndChar

StartChar: uni22C4
Encoding: 8900 8900 187
Width: 378
Flags: W
LayerCount: 2
Fore
SplineSet
197 593 m 0
 200 593 202 591 204 589 c 2
 218 575 l 1
 409 311 l 2
 409 310 410 309 410 308 c 0
 410 307 409 305 409 304 c 0
 217 38 217 38 217 38 c 2
 203 24 l 2
 202 23 199 22 197 22 c 0
 194 22 192 23 190 25 c 2
 176 39 l 1
 -15 304 l 2
 -15 305 -16 307 -16 308 c 0
 -16 309 -15 310 -15 311 c 0
 177 576 176 576 177 577 c 2
 192 591 l 2
 194 593 195 593 197 593 c 0
197 76 m 1
 365 307 l 1
 197 538 l 1
 29 307 l 1
 197 76 l 1
EndSplineSet
Validated: 1
EndChar

StartChar: circleplus
Encoding: 8853 8853 188
Width: 881
Flags: W
HStem: -30 44<387 426 470 510> 316 44<124 426 470 773> 663 44<387 426 470 510>
VStem: 80 44<277 316 360 400> 426 44<14 316 360 663> 773 44<277 316 360 400>
LayerCount: 2
Fore
SplineSet
383 707 m 1
 514 707 l 1
 609 675 l 2
 610 675 610 675 612 673 c 2
 705 611 l 1
 719 597 l 2
 722 592 782 503 783 502 c 0
 786 499 785 500 785 499 c 2
 817 404 l 1
 817 273 l 1
 785 178 l 2
 785 177 785 177 783 175 c 2
 721 82 l 1
 707 68 l 2
 702 65 613 5 612 4 c 0
 609 1 610 2 609 2 c 2
 514 -30 l 1
 383 -30 l 1
 288 2 l 2
 287 2 287 2 285 4 c 2
 192 66 l 1
 178 80 l 2
 175 85 115 174 114 175 c 0
 111 178 112 177 112 178 c 2
 80 273 l 1
 80 404 l 1
 112 499 l 2
 112 500 112 500 114 502 c 2
 176 595 l 1
 190 609 l 2
 195 612 284 672 285 673 c 0
 288 676 287 675 288 675 c 2
 383 707 l 1
124 360 m 1
 426 360 l 1
 426 663 l 1
 387 663 l 1
 295 632 l 1
 211 576 l 1
 155 492 l 1
 124 400 l 1
 124 360 l 1
426 14 m 1
 426 316 l 1
 124 316 l 1
 124 277 l 1
 155 185 l 1
 211 101 l 1
 295 45 l 1
 387 14 l 1
 426 14 l 1
470 663 m 1
 470 360 l 1
 773 360 l 1
 773 400 l 1
 742 492 l 1
 686 576 l 1
 602 632 l 1
 510 663 l 1
 470 663 l 1
773 316 m 1
 470 316 l 1
 470 14 l 1
 510 14 l 1
 602 45 l 1
 686 101 l 1
 742 185 l 1
 773 277 l 1
 773 316 l 1
EndSplineSet
Validated: 1
EndChar

StartChar: circlemultiply
Encoding: 8855 8855 189
Width: 881
Flags: W
LayerCount: 2
Fore
SplineSet
227 664 m 0
 227 664 227 664 242 679 c 1
 332 723 l 1
 333 723 l 1
 445 746 l 1
 448 746 l 1
 560 723 l 1
 561 723 l 1
 651 679 l 1
 666 664 666 664 666 664 c 0
 666 663 l 2
 757 572 l 1
 802 482 l 1
 802 481 l 1
 825 369 l 1
 825 366 l 1
 802 255 l 1
 802 253 l 1
 757 163 l 1
 651 57 l 1
 561 12 l 1
 560 12 l 1
 448 -10 l 1
 445 -10 l 1
 333 12 l 1
 332 12 l 1
 242 57 l 1
 151 148 l 2
 150 148 l 0
 150 148 150 148 135 163 c 1
 91 253 l 1
 91 255 l 1
 68 366 l 1
 68 369 l 1
 91 481 l 1
 91 482 l 1
 135 572 l 1
 150 587 149 587 150 587 c 0
 151 587 152 588 227 663 c 0
 227 664 l 0
201 587 m 1
 178 564 l 1
 134 477 l 1
 112 368 l 1
 134 259 l 1
 178 172 l 1
 202 148 l 1
 421 367 l 1
 201 587 l 1
666 122 m 1
 446 342 l 1
 227 122 l 1
 251 99 l 1
 338 56 l 1
 446 33 l 1
 555 56 l 1
 642 99 l 1
 666 122 l 1
226 612 m 1
 446 392 l 1
 666 612 l 1
 641 637 l 1
 555 680 l 1
 446 702 l 1
 338 680 l 1
 251 637 l 1
 226 612 l 1
692 587 m 1
 472 367 l 1
 691 148 l 1
 715 172 l 1
 758 259 l 1
 781 368 l 1
 758 477 l 1
 715 564 l 1
 692 587 l 1
EndSplineSet
Validated: 1
EndChar

StartChar: degree
Encoding: 176 176 190
Width: 126
Flags: W
HStem: 222 44<43 99> 348 44<43 99>
VStem: -14 44<279 335> 112 44<279 335>
LayerCount: 2
Fore
SplineSet
40 392 m 2
 102 392 l 2
 105 392 107 391 108 390 c 0
 123 375 139 359 154 344 c 0
 155 343 156 341 156 338 c 2
 156 276 l 2
 156 273 155 271 154 270 c 0
 139 255 123 239 108 224 c 0
 107 223 105 222 102 222 c 2
 40 222 l 2
 37 222 35 223 34 224 c 0
 19 239 3 255 -12 270 c 0
 -13 271 -14 273 -14 276 c 2
 -14 338 l 2
 -14 341 -13 343 -12 344 c 0
 3 359 19 375 34 390 c 0
 35 391 37 392 40 392 c 2
99 348 m 1
 43 348 l 1
 30 335 l 1
 30 279 l 1
 43 266 l 1
 99 266 l 1
 112 279 l 1
 112 335 l 1
 99 348 l 1
EndSplineSet
Validated: 1
EndChar

StartChar: fraction
Encoding: 8260 8260 191
Width: 314
InSpiro: 1
Flags: W
VStem: 271 42<501 518.646>
LayerCount: 2
Fore
SplineSet
290 519 m 0
 292 519 294 518 296 516 c 0
 310 502 l 2
 312 500 313 498 313 495 c 0
 313 494 312 493 312 491 c 0
 59 144 59 144 59 144 c 1
 45 130 l 2
 43 128 41 128 38 128 c 0
 36 128 34 129 33 130 c 2
 19 144 l 2
 18 145 17 146 17 148 c 0
 17 150 18 152 19 154 c 1
 271 501 l 2
 271 502 271 502 272 503 c 2
 286 517 l 2
 287 518 288 519 290 519 c 0
EndSplineSet
Validated: 1
EndChar

StartChar: Zeta
Encoding: 918 918 192
Width: 629
Flags: W
HStem: 2 44<141 564.999> 663 44<80.0007 504>
LayerCount: 2
Fore
SplineSet
102 2 m 2
 100 2 97 3 96 4 c 1
 82 18 l 2
 81 19 80 22 80 24 c 0
 80 25 80 27 81 28 c 2
 504 663 l 1
 102 663 l 2
 100 663 97 664 96 665 c 2
 82 679 l 2
 81 680 80 683 80 685 c 0
 80 687 81 690 82 691 c 2
 96 705 l 2
 97 706 100 707 102 707 c 2
 543 707 l 2
 545 707 548 706 549 705 c 0
 563 691 l 2
 564 690 565 687 565 685 c 0
 565 684 565 682 564 681 c 2
 141 46 l 1
 543 46 l 2
 545 46 548 45 549 44 c 2
 563 30 l 2
 564 29 565 26 565 24 c 0
 565 22 564 19 563 18 c 2
 549 4 l 2
 548 3 545 2 543 2 c 0
 102 2 102 2 102 2 c 2
EndSplineSet
Validated: 1
EndChar

StartChar: caron
Encoding: 711 711 193
Width: 315
Flags: W
HStem: 210 265
LayerCount: 2
Fore
SplineSet
166 210 m 0
 164 210 162 211 161 212 c 0
 146 227 146 227 145 229 c 2
 114 291 l 1
 52 384 l 1
 31 405 10 426 -11 447 c 0
 -12 449 -13 450 -13 452 c 0
 -13 454 -12 457 -11 458 c 0
 4 472 l 2
 6 474 8 475 10 475 c 0
 12 475 13 474 15 473 c 2
 92 396 l 2
 92 395 92 395 93 394 c 2
 156 300 l 1
 156 299 l 1
 166 278 l 1
 177 299 l 1
 177 300 l 1
 240 394 l 2
 241 395 241 395 241 396 c 2
 318 473 l 2
 319 474 321 475 323 475 c 0
 326 475 329 474 331 472 c 1
 345 458 l 2
 346 457 347 455 347 453 c 0
 347 451 346 449 344 447 c 0
 330 433 330 432 281 384 c 1
 219 291 l 1
 188 229 l 2
 187 228 187 228 172 213 c 0
 170 211 168 210 166 210 c 0
EndSplineSet
Validated: 1
EndChar

StartChar: uni2235
Encoding: 8757 8757 194
Width: 818
Flags: W
LayerCount: 2
Fore
SplineSet
72 552 m 0
 72 554 72 556 74 558 c 0
 89 573 105 588 120 603 c 0
 122 605 124 606 126 606 c 0
 128 606 128 606 136 598 c 0
 150 585 163 572 177 558 c 0
 179 556 179 554 179 552 c 0
 179 550 179 548 177 546 c 0
 162 531 146 516 131 501 c 0
 130 500 127 499 125 499 c 0
 123 499 121 500 120 501 c 0
 105 516 89 531 74 546 c 0
 72 548 72 550 72 552 c 0
639 552 m 0
 639 554 639 556 641 558 c 0
 656 573 672 588 687 603 c 0
 689 605 691 606 693 606 c 0
 695 606 695 606 703 598 c 0
 717 585 730 572 744 558 c 0
 746 556 746 554 746 552 c 0
 746 550 746 548 744 546 c 0
 729 531 713 516 698 501 c 0
 697 500 694 499 692 499 c 0
 690 499 688 500 687 501 c 0
 672 516 656 531 641 546 c 0
 639 548 639 550 639 552 c 0
355 48 m 0
 355 50 356 52 358 54 c 0
 373 69 388 84 403 99 c 0
 405 101 407 102 409 102 c 2
 415 99 l 1
 430 84 445 69 460 54 c 0
 462 52 463 50 463 48 c 0
 463 46 462 44 460 42 c 0
 445 27 430 12 415 -3 c 0
 413 -4 411 -5 409 -5 c 0
 407 -5 405 -4 403 -3 c 0
 388 12 373 27 358 42 c 0
 356 44 355 46 355 48 c 0
126 558 m 1
 120 552 l 1
 126 546 l 1
 132 552 l 1
 126 558 l 1
693 558 m 1
 687 552 l 1
 693 546 l 1
 699 552 l 1
 693 558 l 1
409 54 m 1
 403 48 l 1
 409 42 l 1
 415 48 l 1
 409 54 l 1
EndSplineSet
Validated: 1
EndChar

StartChar: uni222C
Encoding: 8748 8748 195
Width: 1016
Flags: W
HStem: -219 44<119 164 399 444> 694 21G<668 670 948 950> 789 44<608 653 888 933>
VStem: 49 44<-149 -137> 329 44<-149 -137> 679 44<751 763> 959 44<751 763>
LayerCount: 2
Fore
SplineSet
896 748 m 0
 896 750 896 752 898 754 c 0
 910 766 921 777 933 789 c 1
 888 789 l 1
 829 759 l 1
 813 743 l 1
 768 674 l 1
 731 557 l 1
 658 180 l 1
 658 179 l 1
 636 53 l 1
 636 52 l 1
 614 -42 l 1
 613 -43 l 1
 576 -126 l 1
 555 -147 533 -167 512 -187 c 1
 449 -218 l 2
 448 -219 447 -219 446 -219 c 2
 382 -219 l 2
 380 -219 378 -218 377 -217 c 0
 362 -202 346 -186 331 -171 c 0
 330 -170 329 -168 329 -166 c 2
 329 -134 l 2
 329 -132 330 -130 331 -128 c 0
 339 -120 378 -82 378 -82 c 0
 379 -81 381 -80 382 -80 c 0
 384 -80 386 -81 388 -83 c 0
 403 -98 419 -113 434 -128 c 0
 436 -130 436 -132 436 -134 c 0
 436 -136 436 -138 434 -140 c 0
 422 -152 411 -163 399 -175 c 1
 444 -175 l 1
 503 -145 l 1
 519 -129 l 1
 550 -68 l 1
 581 57 l 1
 644 434 l 1
 644 435 l 1
 676 561 l 1
 676 562 l 1
 707 656 l 1
 708 657 l 1
 739 720 l 1
 820 801 l 1
 883 832 l 2
 884 833 885 833 886 833 c 2
 950 833 l 2
 952 833 954 832 955 831 c 0
 970 816 986 800 1001 785 c 0
 1002 784 1003 782 1003 780 c 2
 1003 748 l 2
 1003 746 1002 744 1001 742 c 0
 986 727 970 712 955 697 c 0
 953 695 951 694 949 694 c 0
 947 694 947 694 939 702 c 0
 925 715 912 728 898 742 c 0
 896 744 896 746 896 748 c 0
373 -137 m 1
 373 -149 l 1
 373 -149 374 -149 389 -134 c 1
 382 -128 l 1
 373 -137 l 1
959 751 m 1
 959 763 l 1
 959 763 958 763 943 748 c 1
 950 742 l 1
 959 751 l 1
616 748 m 0
 616 750 616 752 618 754 c 0
 630 766 641 777 653 789 c 1
 608 789 l 1
 549 759 l 1
 533 743 l 1
 488 674 l 1
 451 557 l 1
 378 180 l 1
 378 179 l 1
 356 53 l 1
 356 52 l 1
 334 -42 l 1
 333 -43 l 1
 296 -126 l 1
 275 -147 253 -167 232 -187 c 1
 169 -218 l 2
 168 -219 167 -219 166 -219 c 2
 102 -219 l 2
 100 -219 98 -218 97 -217 c 0
 82 -202 66 -186 51 -171 c 0
 50 -170 49 -168 49 -166 c 2
 49 -134 l 2
 49 -132 50 -130 51 -128 c 0
 59 -120 98 -82 98 -82 c 0
 99 -81 101 -80 102 -80 c 0
 104 -80 106 -81 108 -83 c 0
 123 -98 139 -113 154 -128 c 0
 156 -130 156 -132 156 -134 c 0
 156 -136 156 -138 154 -140 c 0
 142 -152 131 -163 119 -175 c 1
 164 -175 l 1
 223 -145 l 1
 239 -129 l 1
 270 -68 l 1
 301 57 l 1
 364 434 l 1
 364 435 l 1
 396 561 l 1
 396 562 l 1
 427 656 l 1
 428 657 l 1
 459 720 l 1
 540 801 l 1
 603 832 l 2
 604 833 605 833 606 833 c 2
 670 833 l 2
 672 833 674 832 675 831 c 0
 690 816 706 800 721 785 c 0
 722 784 723 782 723 780 c 2
 723 748 l 2
 723 746 722 744 721 742 c 0
 706 727 690 712 675 697 c 0
 673 695 671 694 669 694 c 0
 667 694 667 694 659 702 c 0
 645 715 632 728 618 742 c 0
 616 744 616 746 616 748 c 0
93 -137 m 1
 93 -149 l 1
 93 -149 94 -149 109 -134 c 1
 102 -128 l 1
 93 -137 l 1
679 751 m 1
 679 763 l 1
 679 763 678 763 663 748 c 1
 670 742 l 1
 679 751 l 1
EndSplineSet
Validated: 1
EndChar

StartChar: uni222D
Encoding: 8749 8749 196
Width: 1295
Flags: W
HStem: -219 44<119 164 399 444 679 724> 694 21G<668 670 948 950 1228 1230> 789 44<608 653 888 933 1168 1213>
VStem: 49 44<-149 -137> 329 44<-149 -137> 609 44<-149 -137> 679 44<751 763> 959 44<751 763> 1239 44<751 763>
LayerCount: 2
Fore
SplineSet
1176 748 m 0
 1176 750 1176 752 1178 754 c 0
 1190 766 1201 777 1213 789 c 1
 1168 789 l 1
 1109 759 l 1
 1093 743 l 1
 1048 674 l 1
 1011 557 l 1
 938 180 l 1
 938 179 l 1
 916 53 l 1
 916 52 l 1
 894 -42 l 1
 893 -43 l 1
 856 -126 l 1
 835 -147 813 -167 792 -187 c 1
 729 -218 l 2
 728 -219 727 -219 726 -219 c 2
 662 -219 l 2
 660 -219 658 -218 657 -217 c 0
 642 -202 626 -186 611 -171 c 0
 610 -170 609 -168 609 -166 c 2
 609 -134 l 2
 609 -132 610 -130 611 -128 c 0
 619 -120 658 -82 658 -82 c 0
 659 -81 661 -80 662 -80 c 0
 664 -80 666 -81 668 -83 c 0
 683 -98 699 -113 714 -128 c 0
 716 -130 716 -132 716 -134 c 0
 716 -136 716 -138 714 -140 c 0
 702 -152 691 -163 679 -175 c 1
 724 -175 l 1
 783 -145 l 1
 799 -129 l 1
 830 -68 l 1
 861 57 l 1
 924 434 l 1
 924 435 l 1
 956 561 l 1
 956 562 l 1
 987 656 l 1
 988 657 l 1
 1019 720 l 1
 1100 801 l 1
 1163 832 l 2
 1164 833 1165 833 1166 833 c 2
 1230 833 l 2
 1232 833 1234 832 1235 831 c 0
 1250 816 1266 800 1281 785 c 0
 1282 784 1283 782 1283 780 c 2
 1283 748 l 2
 1283 746 1282 744 1281 742 c 0
 1266 727 1250 712 1235 697 c 0
 1233 695 1231 694 1229 694 c 0
 1227 694 1227 694 1219 702 c 0
 1205 715 1192 728 1178 742 c 0
 1176 744 1176 746 1176 748 c 0
653 -137 m 1
 653 -149 l 1
 653 -149 654 -149 669 -134 c 1
 662 -128 l 1
 653 -137 l 1
1239 751 m 1
 1239 763 l 1
 1239 763 1238 763 1223 748 c 1
 1230 742 l 1
 1239 751 l 1
896 748 m 0
 896 750 896 752 898 754 c 0
 910 766 921 777 933 789 c 1
 888 789 l 1
 829 759 l 1
 813 743 l 1
 768 674 l 1
 731 557 l 1
 658 180 l 1
 658 179 l 1
 636 53 l 1
 636 52 l 1
 614 -42 l 1
 613 -43 l 1
 576 -126 l 1
 555 -147 533 -167 512 -187 c 1
 449 -218 l 2
 448 -219 447 -219 446 -219 c 2
 382 -219 l 2
 380 -219 378 -218 377 -217 c 0
 362 -202 346 -186 331 -171 c 0
 330 -170 329 -168 329 -166 c 2
 329 -134 l 2
 329 -132 330 -130 331 -128 c 0
 339 -120 378 -82 378 -82 c 0
 379 -81 381 -80 382 -80 c 0
 384 -80 386 -81 388 -83 c 0
 403 -98 419 -113 434 -128 c 0
 436 -130 436 -132 436 -134 c 0
 436 -136 436 -138 434 -140 c 0
 422 -152 411 -163 399 -175 c 1
 444 -175 l 1
 503 -145 l 1
 519 -129 l 1
 550 -68 l 1
 581 57 l 1
 644 434 l 1
 644 435 l 1
 676 561 l 1
 676 562 l 1
 707 656 l 1
 708 657 l 1
 739 720 l 1
 820 801 l 1
 883 832 l 2
 884 833 885 833 886 833 c 2
 950 833 l 2
 952 833 954 832 955 831 c 0
 970 816 986 800 1001 785 c 0
 1002 784 1003 782 1003 780 c 2
 1003 748 l 2
 1003 746 1002 744 1001 742 c 0
 986 727 970 712 955 697 c 0
 953 695 951 694 949 694 c 0
 947 694 947 694 939 702 c 0
 925 715 912 728 898 742 c 0
 896 744 896 746 896 748 c 0
373 -137 m 1
 373 -149 l 1
 373 -149 374 -149 389 -134 c 1
 382 -128 l 1
 373 -137 l 1
959 751 m 1
 959 763 l 1
 959 763 958 763 943 748 c 1
 950 742 l 1
 959 751 l 1
616 748 m 0
 616 750 616 752 618 754 c 0
 630 766 641 777 653 789 c 1
 608 789 l 1
 549 759 l 1
 533 743 l 1
 488 674 l 1
 451 557 l 1
 378 180 l 1
 378 179 l 1
 356 53 l 1
 356 52 l 1
 334 -42 l 1
 333 -43 l 1
 296 -126 l 1
 275 -147 253 -167 232 -187 c 1
 169 -218 l 2
 168 -219 167 -219 166 -219 c 2
 102 -219 l 2
 100 -219 98 -218 97 -217 c 0
 82 -202 66 -186 51 -171 c 0
 50 -170 49 -168 49 -166 c 2
 49 -134 l 2
 49 -132 50 -130 51 -128 c 0
 59 -120 98 -82 98 -82 c 0
 99 -81 101 -80 102 -80 c 0
 104 -80 106 -81 108 -83 c 0
 123 -98 139 -113 154 -128 c 0
 156 -130 156 -132 156 -134 c 0
 156 -136 156 -138 154 -140 c 0
 142 -152 131 -163 119 -175 c 1
 164 -175 l 1
 223 -145 l 1
 239 -129 l 1
 270 -68 l 1
 301 57 l 1
 364 434 l 1
 364 435 l 1
 396 561 l 1
 396 562 l 1
 427 656 l 1
 428 657 l 1
 459 720 l 1
 540 801 l 1
 603 832 l 2
 604 833 605 833 606 833 c 2
 670 833 l 2
 672 833 674 832 675 831 c 0
 690 816 706 800 721 785 c 0
 722 784 723 782 723 780 c 2
 723 748 l 2
 723 746 722 744 721 742 c 0
 706 727 690 712 675 697 c 0
 673 695 671 694 669 694 c 0
 667 694 667 694 659 702 c 0
 645 715 632 728 618 742 c 0
 616 744 616 746 616 748 c 0
93 -137 m 1
 93 -149 l 1
 93 -149 94 -149 109 -134 c 1
 102 -128 l 1
 93 -137 l 1
679 751 m 1
 679 763 l 1
 679 763 678 763 663 748 c 1
 670 742 l 1
 679 751 l 1
EndSplineSet
Validated: 1
EndChar

